<svg width="16" height="22" viewBox="0 0 16 22" fill="none" xmlns="http://www.w3.org/2000/svg">
<g id="attach_file_add">
<path d="M10.907 9.98131V4.88794H12.9444V9.98131H10.907ZM5.81365 17.0102C5.21943 16.8404 4.73131 16.5093 4.34931 16.017C3.9673 15.5246 3.7763 14.9558 3.7763 14.3107V4.88794H5.81365V17.0102ZM6.57766 21.1867C4.81196 21.1867 3.30941 20.5671 2.07002 19.3277C0.830632 18.0883 0.210938 16.5857 0.210938 14.82V5.39727C0.210938 4.12393 0.656608 3.04159 1.54795 2.15024C2.43929 1.2589 3.52163 0.813232 4.79498 0.813232C6.06832 0.813232 7.15067 1.2589 8.04201 2.15024C8.93335 3.04159 9.37902 4.12393 9.37902 5.39727V13.0373H7.34167V5.39727C7.32469 4.6842 7.07427 4.08148 6.59039 3.58912C6.10652 3.09676 5.50805 2.85058 4.79498 2.85058C4.08191 2.85058 3.47919 3.09676 2.98683 3.58912C2.49447 4.08148 2.24829 4.6842 2.24829 5.39727V14.82C2.23131 16.0255 2.64727 17.0484 3.49617 17.8888C4.34506 18.7292 5.37223 19.1494 6.57766 19.1494C7.00211 19.1494 7.40533 19.0942 7.78734 18.9839C8.16934 18.8735 8.53012 18.708 8.86968 18.4873V20.7538C8.51314 20.8896 8.14387 20.9957 7.76187 21.0721C7.37987 21.1485 6.98513 21.1867 6.57766 21.1867ZM10.907 20.1681V17.112H7.85101V15.0747H10.907V12.0187H12.9444V15.0747H16.0004V17.112H12.9444V20.1681H10.907Z" fill="white"/>
<path d="M10.907 9.98131V4.88794H12.9444V9.98131H10.907ZM5.81365 17.0102C5.21943 16.8404 4.73131 16.5093 4.34931 16.017C3.9673 15.5246 3.7763 14.9558 3.7763 14.3107V4.88794H5.81365V17.0102ZM6.57766 21.1867C4.81196 21.1867 3.30941 20.5671 2.07002 19.3277C0.830632 18.0883 0.210938 16.5857 0.210938 14.82V5.39727C0.210938 4.12393 0.656608 3.04159 1.54795 2.15024C2.43929 1.2589 3.52163 0.813232 4.79498 0.813232C6.06832 0.813232 7.15067 1.2589 8.04201 2.15024C8.93335 3.04159 9.37902 4.12393 9.37902 5.39727V13.0373H7.34167V5.39727C7.32469 4.6842 7.07427 4.08148 6.59039 3.58912C6.10652 3.09676 5.50805 2.85058 4.79498 2.85058C4.08191 2.85058 3.47919 3.09676 2.98683 3.58912C2.49447 4.08148 2.24829 4.6842 2.24829 5.39727V14.82C2.23131 16.0255 2.64727 17.0484 3.49617 17.8888C4.34506 18.7292 5.37223 19.1494 6.57766 19.1494C7.00211 19.1494 7.40533 19.0942 7.78734 18.9839C8.16934 18.8735 8.53012 18.708 8.86968 18.4873V20.7538C8.51314 20.8896 8.14387 20.9957 7.76187 21.0721C7.37987 21.1485 6.98513 21.1867 6.57766 21.1867ZM10.907 20.1681V17.112H7.85101V15.0747H10.907V12.0187H12.9444V15.0747H16.0004V17.112H12.9444V20.1681H10.907Z" fill="#0D1117"/>
<path d="M10.907 9.98131V4.88794H12.9444V9.98131H10.907ZM5.81365 17.0102C5.21943 16.8404 4.73131 16.5093 4.34931 16.017C3.9673 15.5246 3.7763 14.9558 3.7763 14.3107V4.88794H5.81365V17.0102ZM6.57766 21.1867C4.81196 21.1867 3.30941 20.5671 2.07002 19.3277C0.830632 18.0883 0.210938 16.5857 0.210938 14.82V5.39727C0.210938 4.12393 0.656608 3.04159 1.54795 2.15024C2.43929 1.2589 3.52163 0.813232 4.79498 0.813232C6.06832 0.813232 7.15067 1.2589 8.04201 2.15024C8.93335 3.04159 9.37902 4.12393 9.37902 5.39727V13.0373H7.34167V5.39727C7.32469 4.6842 7.07427 4.08148 6.59039 3.58912C6.10652 3.09676 5.50805 2.85058 4.79498 2.85058C4.08191 2.85058 3.47919 3.09676 2.98683 3.58912C2.49447 4.08148 2.24829 4.6842 2.24829 5.39727V14.82C2.23131 16.0255 2.64727 17.0484 3.49617 17.8888C4.34506 18.7292 5.37223 19.1494 6.57766 19.1494C7.00211 19.1494 7.40533 19.0942 7.78734 18.9839C8.16934 18.8735 8.53012 18.708 8.86968 18.4873V20.7538C8.51314 20.8896 8.14387 20.9957 7.76187 21.0721C7.37987 21.1485 6.98513 21.1867 6.57766 21.1867ZM10.907 20.1681V17.112H7.85101V15.0747H10.907V12.0187H12.9444V15.0747H16.0004V17.112H12.9444V20.1681H10.907Z" fill="white"/>
</g>
</svg>
