<svg width="140" height="141" viewBox="0 0 140 141" fill="none" xmlns="http://www.w3.org/2000/svg">
<g id="Check circle" clip-path="url(#clip0_11001_212150)">
<path id="Vector" d="M70 12.166C37.8 12.166 11.6667 38.2993 11.6667 70.4994C11.6667 102.699 37.8 128.833 70 128.833C102.2 128.833 128.333 102.699 128.333 70.4994C128.333 38.2993 102.2 12.166 70 12.166ZM70 117.166C44.275 117.166 23.3333 96.2243 23.3333 70.4994C23.3333 44.7743 44.275 23.8327 70 23.8327C95.725 23.8327 116.667 44.7743 116.667 70.4994C116.667 96.2243 95.725 117.166 70 117.166ZM96.775 44.716L58.3333 83.1577L43.225 68.1077L35 76.3327L58.3333 99.666L105 52.9994L96.775 44.716Z" fill="white"/>
</g>
<defs>
<clipPath id="clip0_11001_212150">
<rect width="140" height="140" fill="white" transform="translate(0 0.5)"/>
</clipPath>
</defs>
</svg>
