<svg width="15" height="15" viewBox="0 0 15 15" fill="none" xmlns="http://www.w3.org/2000/svg">
<rect x="0.169998" width="14.66" height="14.66" rx="7.33" fill="white"/>
<path d="M5.1 10.18C4.935 10.18 4.79375 10.1213 4.67625 10.0038C4.55875 9.88625 4.5 9.745 4.5 9.58V6.28C4.5 6.115 4.55875 5.97375 4.67625 5.85625C4.79375 5.73875 4.935 5.68 5.1 5.68H6.3V5.08C6.3 4.915 6.35875 4.77375 6.47625 4.65625C6.59375 4.53875 6.735 4.48 6.9 4.48H8.1C8.265 4.48 8.40625 4.53875 8.52375 4.65625C8.64125 4.77375 8.7 4.915 8.7 5.08V5.68H9.9C10.065 5.68 10.2063 5.73875 10.3238 5.85625C10.4413 5.97375 10.5 6.115 10.5 6.28V9.58C10.5 9.745 10.4413 9.88625 10.3238 10.0038C10.2063 10.1213 10.065 10.18 9.9 10.18H5.1ZM6.9 5.68H8.1V5.08H6.9V5.68ZM9.9 8.38H8.4V8.98H6.6V8.38H5.1V9.58H9.9V8.38ZM7.2 8.38H7.8V7.78H7.2V8.38ZM5.1 7.78H6.6V7.18H8.4V7.78H9.9V6.28H5.1V7.78Z" fill="#0D1117"/>
</svg>
