<svg width="17" height="18" viewBox="0 0 17 18" fill="none" xmlns="http://www.w3.org/2000/svg">
<g id="Related - Not Related">
<path id="cancel_presentation" d="M6.17368 13.1409L8.5 10.1943L10.8263 13.1409L11.7691 11.9467L9.44283 9L11.7691 6.05333L10.8263 4.85908L8.5 7.80575L6.17368 4.85908L5.23085 6.05333L7.55717 9L5.23085 11.9467L6.17368 13.1409ZM1.61746 17.5C1.16547 17.5 0.782895 17.3017 0.469737 16.905C0.156579 16.5083 0 16.0237 0 15.4512V2.54878C0 1.97626 0.156579 1.49167 0.469737 1.095C0.782895 0.698333 1.16547 0.5 1.61746 0.5H15.3825C15.8345 0.5 16.2171 0.698333 16.5303 1.095C16.8434 1.49167 17 1.97626 17 2.54878V15.4512C17 16.0237 16.8434 16.5083 16.5303 16.905C16.2171 17.3017 15.8345 17.5 15.3825 17.5H1.61746ZM1.61746 15.8H15.3825C15.4514 15.8 15.5145 15.7636 15.5718 15.6909C15.6292 15.6184 15.6579 15.5385 15.6579 15.4512V2.54878C15.6579 2.46152 15.6292 2.38162 15.5718 2.30908C15.5145 2.23636 15.4514 2.2 15.3825 2.2H1.61746C1.54857 2.2 1.48549 2.23636 1.42822 2.30908C1.37081 2.38162 1.34211 2.46152 1.34211 2.54878V15.4512C1.34211 15.5385 1.37081 15.6184 1.42822 15.6909C1.48549 15.7636 1.54857 15.8 1.61746 15.8Z" fill="white"/>
</g>
</svg>
