<svg width="15" height="15" viewBox="0 0 15 15" fill="none" xmlns="http://www.w3.org/2000/svg">
<rect width="14.6552" height="14.6552" rx="7.32759" fill="#555555"/>
<path d="M7.32759 7.32759C7.00754 7.32759 6.73357 7.21363 6.50566 6.98572C6.27775 6.75781 6.16379 6.48384 6.16379 6.16379C6.16379 5.84375 6.27775 5.56977 6.50566 5.34186C6.73357 5.11395 7.00754 5 7.32759 5C7.64763 5 7.92161 5.11395 8.14951 5.34186C8.37742 5.56977 8.49138 5.84375 8.49138 6.16379C8.49138 6.48384 8.37742 6.75781 8.14951 6.98572C7.92161 7.21363 7.64763 7.32759 7.32759 7.32759ZM5 9.65517V8.84052C5 8.67565 5.04243 8.52411 5.12729 8.38591C5.21215 8.24771 5.32489 8.14224 5.46552 8.0695C5.76616 7.91918 6.07166 7.80644 6.382 7.73128C6.69235 7.65612 7.00754 7.61853 7.32759 7.61853C7.64763 7.61853 7.96282 7.65612 8.27317 7.73128C8.58351 7.80644 8.88901 7.91918 9.18966 8.0695C9.33028 8.14224 9.44302 8.24771 9.52788 8.38591C9.61274 8.52411 9.65517 8.67565 9.65517 8.84052V9.65517H5ZM5.5819 9.07328H9.07328V8.84052C9.07328 8.78718 9.05994 8.73869 9.03327 8.69504C9.0066 8.6514 8.97144 8.61746 8.9278 8.59321C8.66595 8.46228 8.40167 8.36409 8.13497 8.29863C7.86827 8.23316 7.59914 8.20043 7.32759 8.20043C7.05603 8.20043 6.78691 8.23316 6.5202 8.29863C6.2535 8.36409 5.98922 8.46228 5.72737 8.59321C5.68373 8.61746 5.64857 8.6514 5.6219 8.69504C5.59523 8.73869 5.5819 8.78718 5.5819 8.84052V9.07328ZM7.32759 6.74569C7.48761 6.74569 7.6246 6.68871 7.73855 6.57476C7.85251 6.4608 7.90948 6.32381 7.90948 6.16379C7.90948 6.00377 7.85251 5.86678 7.73855 5.75283C7.6246 5.63887 7.48761 5.5819 7.32759 5.5819C7.16756 5.5819 7.03058 5.63887 6.91662 5.75283C6.80267 5.86678 6.74569 6.00377 6.74569 6.16379C6.74569 6.32381 6.80267 6.4608 6.91662 6.57476C7.03058 6.68871 7.16756 6.74569 7.32759 6.74569Z" fill="white"/>
</svg>
