<svg width="17" height="18" viewBox="0 0 17 18" fill="none" xmlns="http://www.w3.org/2000/svg">
<g id="Related - Not Related">
<path id="check_box" d="M7.1 12.8538L13.823 6.13075L12.7693 5.077L7.1 10.7463L4.25 7.89625L3.19625 8.95L7.1 12.8538ZM1.80775 17.5C1.30258 17.5 0.875 17.325 0.525 16.975C0.175 16.625 0 16.1974 0 15.6923V2.30775C0 1.80258 0.175 1.375 0.525 1.025C0.875 0.675 1.30258 0.5 1.80775 0.5H15.1923C15.6974 0.5 16.125 0.675 16.475 1.025C16.825 1.375 17 1.80258 17 2.30775V15.6923C17 16.1974 16.825 16.625 16.475 16.975C16.125 17.325 15.6974 17.5 15.1923 17.5H1.80775ZM1.80775 16H15.1923C15.2692 16 15.3398 15.9679 15.4038 15.9038C15.4679 15.8398 15.5 15.7692 15.5 15.6923V2.30775C15.5 2.23075 15.4679 2.16025 15.4038 2.09625C15.3398 2.03208 15.2692 2 15.1923 2H1.80775C1.73075 2 1.66025 2.03208 1.59625 2.09625C1.53208 2.16025 1.5 2.23075 1.5 2.30775V15.6923C1.5 15.7692 1.53208 15.8398 1.59625 15.9038C1.66025 15.9679 1.73075 16 1.80775 16Z" fill="white"/>
</g>
</svg>
