<svg width="140" height="141" viewBox="0 0 140 141" fill="none" xmlns="http://www.w3.org/2000/svg">
<g clip-path="url(#clip0_7959_167486)">
<path d="M69.9993 12.1665C37.7993 12.1665 11.666 38.2998 11.666 70.4998C11.666 102.7 37.7993 128.833 69.9993 128.833C102.199 128.833 128.333 102.7 128.333 70.4998C128.333 38.2998 102.199 12.1665 69.9993 12.1665ZM69.9993 117.167C44.2743 117.167 23.3327 96.2248 23.3327 70.4998C23.3327 44.7748 44.2743 23.8332 69.9993 23.8332C95.7243 23.8332 116.666 44.7748 116.666 70.4998C116.666 96.2248 95.7243 117.167 69.9993 117.167ZM96.7743 44.7165L58.3327 83.1582L43.2243 68.1082L34.9993 76.3332L58.3327 99.6665L104.999 52.9998L96.7743 44.7165Z" fill="white"/>
</g>
<defs>
<clipPath id="clip0_7959_167486">
<rect width="140" height="140" fill="white" transform="translate(0 0.5)"/>
</clipPath>
</defs>
</svg>
