<svg width="45" height="44" viewBox="0 0 45 44" fill="none" xmlns="http://www.w3.org/2000/svg">
<g id="Spinner">
<circle id="Ellipse" cx="22.5" cy="22" r="19" stroke="white" stroke-opacity="0.4" stroke-width="6"/>
<path id="Ellipse_2" d="M22.5 2.85984C22.5 1.2804 23.7857 -0.0191305 25.3519 0.185615C28.405 0.58477 31.3515 1.62199 33.995 3.24192C37.4544 5.36185 40.2602 8.39714 42.1021 12.0122C43.9441 15.6273 44.7505 19.6813 44.4322 23.7261C44.1889 26.8169 43.2962 29.8103 41.8245 32.515C41.0696 33.9023 39.2625 34.1787 37.9847 33.2503C36.7069 32.3219 36.45 30.5406 37.1407 29.1202C38.0276 27.2966 38.5697 25.3156 38.7301 23.2773C38.9657 20.2841 38.369 17.2841 37.0059 14.6089C35.6428 11.9337 33.5665 9.68753 31.0064 8.11875C29.2632 7.05046 27.3418 6.32462 25.3452 5.97023C23.7901 5.69419 22.5 4.43929 22.5 2.85984Z" fill="white"/>
</g>
</svg>
