<?xml version="1.0" encoding="utf-8"?>
<!-- Generator: Adobe Illustrator 16.0.0, SVG Export Plug-In . SVG Version: 6.00 Build 0)  -->
<!DOCTYPE svg PUBLIC "-//W3C//DTD SVG 1.1//EN" "http://www.w3.org/Graphics/SVG/1.1/DTD/svg11.dtd">
<svg version="1.1" id="Layer_1" xmlns="http://www.w3.org/2000/svg" xmlns:xlink="http://www.w3.org/1999/xlink" x="0px" y="0px"
	 width="192px" height="192px" viewBox="0 0 192 192" enable-background="new 0 0 192 192" xml:space="preserve">
<g>
	<rect fill="#FFFFFF" width="192" height="192"/>
	<g>
		<polygon fill="#F06C24" points="165.333,136.968 137.132,106.52 162.321,78.495 143.896,78.495 119.327,106.52 147.12,136.968 		
			"/>
		<g>
			<path fill="#282460" d="M116.149,98.229c0-4.761-0.894-8.346-1.963-10.759c-1.38-3.117-3.648-5.643-6.804-7.578
				c-1.803-1.105-3.774-1.883-5.904-2.357c-1.599-0.355-3.284-0.544-5.067-0.544c-4.016,0-7.718,0.896-11.106,2.688
				c-3.388,1.792-6.248,4.407-8.578,7.846c-1.793-3.439-4.159-6.055-7.1-7.846s-6.239-2.688-9.896-2.688
				c-3.622,0-6.966,0.681-10.031,2.042c-3.065,1.362-5.854,3.422-8.363,6.181v-8.56H26.667v60.315h14.672v-26.011
				c0-5.625,0.494-9.746,1.482-12.361c0.987-2.615,2.477-4.649,4.471-6.1c1.993-1.451,4.211-2.177,6.653-2.177
				c2.19,0,4.058,0.573,5.603,1.72c1.544,1.147,2.703,2.894,3.475,5.24c0.772,2.348,1.158,6.137,1.158,11.367v28.322h14.78V110.58
				c0-5.59,0.484-9.647,1.451-12.173c0.968-2.526,2.446-4.505,4.434-5.939c1.988-1.432,4.236-2.149,6.745-2.149
				c3.296,0,5.769,1.174,7.417,3.52c1.647,2.347,2.472,6.835,2.472,13.463v29.666h0.001h14.671h0.107
				C116.257,136.968,116.149,108.132,116.149,98.229z"/>
		</g>
		<g>
			<path fill="#F06C24" d="M109.79,73.51c0.326,0.2,0.633,0.414,0.944,0.625c0.792,0.494,1.54,1.059,2.215,1.697
				c1.21,1.05,2.279,2.202,3.2,3.457V55.032h-14.671V70.39c0.334,0.061,0.67,0.12,1,0.193
				C105.121,71.171,107.581,72.156,109.79,73.51z"/>
		</g>
	</g>
</g>
</svg>
