<svg width="60" height="60" viewBox="0 0 60 60" fill="none" xmlns="http://www.w3.org/2000/svg">
<path d="M59.7301 29.7107C59.7301 45.9627 46.5021 59.1411 30.1888 59.1411C13.8756 59.1411 0.654297 45.9627 0.654297 29.7107C0.654297 13.4587 13.8756 0.280273 30.1888 0.280273C46.5021 0.280273 59.7301 13.4519 59.7301 29.7107Z" fill="#FFCE00"/>
<path d="M45.4786 33.2263C45.3899 33.2263 45.3012 33.2128 45.2056 33.1856L38.9329 31.3632C38.5574 31.2544 38.2844 30.928 38.2435 30.5336C38.2025 30.146 38.4073 29.772 38.7554 29.5884C38.7554 29.5884 43.6357 27.0724 45.0964 26.2972C45.5673 26.0456 46.1475 26.2223 46.4001 26.6915C46.6526 27.1607 46.4752 27.7387 46.0042 27.9903C45.1851 28.4255 43.2876 29.4115 41.7791 30.1867L45.7448 31.3428C46.2567 31.4924 46.5503 32.0228 46.4001 32.5328C46.2772 32.9476 45.895 33.2263 45.4786 33.2263Z" fill="#562912"/>
<path d="M14.8929 33.2263C14.4765 33.2263 14.0943 32.9544 13.9714 32.5328C13.8212 32.0228 14.1148 31.4924 14.6267 31.3428L18.5924 30.1867C17.0839 29.4047 15.1864 28.4255 14.3673 27.9903C13.8963 27.7387 13.7189 27.1607 13.9714 26.6915C14.224 26.2223 14.8041 26.0456 15.2751 26.2972C16.7358 27.0724 21.6161 29.5884 21.6161 29.5884C21.9642 29.772 22.169 30.146 22.1349 30.5336C22.0939 30.928 21.8209 31.2544 21.4455 31.3632L15.1727 33.1856C15.0772 33.2128 14.9884 33.2263 14.8929 33.2263Z" fill="#562912"/>
<path d="M49.3078 21.0822C49.26 21.0822 49.2122 21.0754 49.1576 21.0686C44.3524 20.3274 41.9429 16.4514 41.8474 16.2882C41.5744 15.8326 41.7177 15.2478 42.1682 14.969C42.6255 14.6902 43.2125 14.8398 43.4855 15.2886C43.506 15.3226 45.5537 18.573 49.4511 19.1714C49.9767 19.253 50.3384 19.7426 50.2565 20.2662C50.1883 20.7422 49.7788 21.0822 49.3078 21.0822Z" fill="#562912"/>
<path d="M11.0639 21.0818C10.5997 21.0818 10.1833 20.7419 10.1151 20.2659C10.0332 19.7423 10.395 19.2527 10.9205 19.1711C14.8453 18.5659 16.8657 15.3223 16.8861 15.2883C17.1592 14.8327 17.753 14.6899 18.2103 14.9687C18.6676 15.2407 18.8109 15.8323 18.5311 16.2879C18.4287 16.4511 16.0193 20.3339 11.214 21.0683C11.1663 21.0751 11.1116 21.0818 11.0639 21.0818Z" fill="#562912"/>
<path d="M19.7865 46.7784C19.4248 46.7784 19.0698 46.6493 18.79 46.3773L16.1894 43.9021C15.6092 43.3513 15.5887 42.44 16.1416 41.8688C16.6945 41.2908 17.6091 41.2772 18.1825 41.8212L19.7797 43.3444L23.9774 39.346C24.5371 38.8156 25.4177 38.8156 25.9705 39.346L30.1683 43.3444L34.3661 39.346C34.9258 38.8156 35.8063 38.8156 36.3591 39.346L40.5637 43.3444L42.1677 41.8212C42.7479 41.2704 43.6625 41.2908 44.2086 41.8688C44.7615 42.44 44.741 43.3581 44.1608 43.9021L41.5603 46.3773C41.0006 46.9077 40.1201 46.9077 39.5672 46.3773L35.3626 42.3788L31.1648 46.3773C30.6051 46.9077 29.7246 46.9077 29.1649 46.3773L24.9672 42.3788L20.7694 46.3773C20.51 46.6493 20.1483 46.7784 19.7865 46.7784Z" fill="#562912"/>
</svg>
