<svg width="85" height="84" viewBox="0 0 85 84" fill="none" xmlns="http://www.w3.org/2000/svg">
<path d="M63.3965 62.4704C74.933 50.9772 74.933 32.3431 63.3965 20.8499C51.86 9.35673 33.1557 9.35673 21.6192 20.8499C10.0827 32.3431 10.0826 50.9772 21.6191 62.4704C33.1556 73.9636 51.86 73.9636 63.3965 62.4704Z" fill="#FFCE00"/>
<path d="M23.4809 32.4908C23.4127 32.4908 23.3376 32.484 23.2693 32.4704C22.7506 32.3548 22.4229 31.8448 22.539 31.328C22.9076 29.6892 23.9451 28.4176 25.4672 27.758C26.9825 27.0984 28.7913 27.146 30.0813 27.894C30.5386 28.1592 30.6956 28.744 30.4294 29.2064C30.1632 29.662 29.5762 29.8184 29.1121 29.5532C28.3544 29.118 27.2009 29.0976 26.2385 29.5192C25.5696 29.8116 24.7164 30.4304 24.4229 31.7496C24.3205 32.1916 23.9246 32.4908 23.4809 32.4908Z" fill="#562912"/>
<path d="M61.5401 32.4913C61.0964 32.4913 60.7006 32.1853 60.5982 31.7433C60.3047 30.4241 59.4447 29.8053 58.7826 29.5129C57.827 29.0981 56.6734 29.1117 55.9158 29.5469C55.4517 29.8121 54.8647 29.6557 54.5985 29.2001C54.3323 28.7445 54.4892 28.1529 54.9465 27.8877C56.2298 27.1465 58.0386 27.0921 59.5538 27.7517C61.076 28.4181 62.1135 29.6829 62.482 31.3217C62.5981 31.8385 62.2705 32.3485 61.7517 32.4641C61.6766 32.4845 61.6084 32.4913 61.5401 32.4913Z" fill="#562912"/>
<path d="M32.1364 44.2142C31.7678 44.2142 31.3992 44.0714 31.1125 43.7926L24.1026 36.809C23.5361 36.2446 23.5361 35.3334 24.1026 34.7758C24.6692 34.2114 25.5838 34.2114 26.1435 34.7758L33.1534 41.7594C33.7199 42.3238 33.7199 43.235 33.1534 43.7926C32.8736 44.0714 32.505 44.2142 32.1364 44.2142Z" fill="#562912"/>
<path d="M25.1265 44.2142C24.7579 44.2142 24.3893 44.0714 24.1026 43.7926C23.5361 43.2282 23.5361 42.317 24.1026 41.7594L31.1125 34.7758C31.6791 34.2114 32.5937 34.2114 33.1534 34.7758C33.7199 35.3402 33.7199 36.2514 33.1534 36.809L26.1435 43.7926C25.8705 44.0714 25.4951 44.2142 25.1265 44.2142Z" fill="#562912"/>
<path d="M59.8962 44.2142C59.5276 44.2142 59.159 44.0714 58.8723 43.7926L51.8624 36.809C51.2959 36.2446 51.2959 35.3334 51.8624 34.7758C52.4289 34.2114 53.3436 34.2114 53.9033 34.7758L60.9132 41.7594C61.4797 42.3238 61.4797 43.235 60.9132 43.7926C60.6333 44.0714 60.2647 44.2142 59.8962 44.2142Z" fill="#562912"/>
<path d="M52.8862 44.2142C52.5177 44.2142 52.1491 44.0714 51.8624 43.7926C51.2959 43.2282 51.2959 42.317 51.8624 41.7594L58.8723 34.7758C59.4388 34.2114 60.3535 34.2114 60.9132 34.7758C61.4797 35.3402 61.4797 36.2514 60.9132 36.809L53.9033 43.7926C53.6302 44.0714 53.2548 44.2142 52.8862 44.2142Z" fill="#562912"/>
<path d="M42.511 47.7441C40.2585 47.7441 38.245 48.7029 36.8525 50.2262H48.1694C46.777 48.7097 44.7635 47.7441 42.511 47.7441Z" fill="white"/>
<path d="M47.0978 61.0784C48.9271 59.7252 50.1147 57.5832 50.1147 55.1692C50.1147 53.272 49.3776 51.538 48.1763 50.2256H36.8525C35.6512 51.538 34.9141 53.2652 34.9141 55.1692C34.9141 57.5832 36.1017 59.7252 37.931 61.0784C39.2483 60.3304 40.8182 59.8884 42.511 59.8884C44.2038 59.8884 45.7805 60.3236 47.0978 61.0784Z" fill="#562912"/>
<path d="M47.0975 61.0787C45.7801 60.3307 44.2103 59.8887 42.5175 59.8887C40.8247 59.8887 39.248 60.3307 37.9375 61.0787C39.2139 62.0239 40.7974 62.5883 42.5175 62.5883C44.2376 62.5883 45.8211 62.0171 47.0975 61.0787Z" fill="#CC342F"/>
</svg>
