<svg width="68" height="68" viewBox="0 0 68 68" fill="none" xmlns="http://www.w3.org/2000/svg">
<path d="M38.8216 62.9721C54.9312 60.4023 65.8996 45.3087 63.3202 29.2595C60.7408 13.2104 45.5903 2.28316 29.4806 4.85291C13.371 7.42266 2.40257 22.5163 4.98201 38.5654C7.56144 54.6146 22.7119 65.5418 38.8216 62.9721Z" fill="#FFCE00"/>
<path d="M51.2744 30.1297C51.5816 30.3201 51.9843 30.1025 51.9843 29.7489V29.7421C51.9843 27.5933 50.2369 25.8525 48.08 25.8525C45.9231 25.8525 44.1758 27.5933 44.1758 29.7421C44.1758 29.7489 44.1758 29.7489 44.1758 29.7489C44.1758 30.1093 44.5785 30.3201 44.8856 30.1297C45.8139 29.5585 46.906 29.2253 48.08 29.2253C49.254 29.2253 50.3461 29.5585 51.2744 30.1297Z" fill="#562912"/>
<path d="M23.419 30.1297C23.7261 30.3201 24.1288 30.1025 24.1288 29.7489V29.7421C24.1288 27.5933 22.3815 25.8525 20.2246 25.8525C18.0677 25.8525 16.3203 27.5933 16.3203 29.7421C16.3203 29.7489 16.3203 29.7489 16.3203 29.7489C16.3203 30.1093 16.723 30.3201 17.0302 30.1297C17.9585 29.5585 19.0506 29.2253 20.2246 29.2253C21.3986 29.2253 22.4907 29.5585 23.419 30.1297Z" fill="#562912"/>
<path d="M34.3123 47.3267C29.3705 47.3267 24.4766 45.4227 20.8931 42.1043C20.3061 41.5603 20.272 40.6559 20.818 40.0711C21.3573 39.4863 22.2719 39.4523 22.8589 39.9963C25.9168 42.8251 30.0872 44.4503 34.3123 44.4503C38.3872 44.4503 42.4484 42.9271 45.4722 40.2615C46.0728 39.7379 46.9806 39.7923 47.513 40.3839C48.0386 40.9823 47.984 41.8867 47.3902 42.4171C43.7931 45.5859 39.1517 47.3267 34.3123 47.3267Z" fill="#562912"/>
</svg>
