<svg width="72" height="72" viewBox="0 0 72 72" fill="none" xmlns="http://www.w3.org/2000/svg">
<path d="M64.6425 42.3662C68.4032 26.5495 58.5815 10.6903 42.7051 6.94376C26.8287 3.19723 10.9098 12.982 7.14912 28.7988C3.38846 44.6155 13.2102 60.4747 29.0865 64.2212C44.9629 67.9677 60.8818 58.1829 64.6425 42.3662Z" fill="#FFCE00"/>
<path d="M49.3731 44.7201H22.4119C21.6133 44.7201 20.9648 44.0741 20.9648 43.2785C20.9648 42.4829 21.6133 41.8369 22.4119 41.8369H49.3731C50.1717 41.8369 50.8202 42.4829 50.8202 43.2785C50.8133 44.0741 50.1717 44.7201 49.3731 44.7201Z" fill="#562912"/>
<path d="M51.3461 30.5764C51.3461 32.29 49.9536 33.684 48.2267 33.684C46.5067 33.684 45.1074 32.29 45.1074 30.5764C45.1074 28.8628 46.5067 27.4688 48.2267 27.4688C49.9536 27.4756 51.3461 28.8628 51.3461 30.5764Z" fill="#562912"/>
<path d="M26.6713 30.5764C26.6713 32.29 25.272 33.684 23.5519 33.684C21.8319 33.684 20.4326 32.29 20.4326 30.5764C20.4326 28.8628 21.8319 27.4688 23.5519 27.4688C25.272 27.4756 26.6713 28.8628 26.6713 30.5764Z" fill="#562912"/>
</svg>
