<svg width="60" height="60" viewBox="0 0 60 60" fill="none" xmlns="http://www.w3.org/2000/svg">
<path d="M59.9528 29.7107C59.9528 45.9627 46.7247 59.1411 30.4115 59.1411C14.0982 59.1411 0.870117 45.9627 0.870117 29.7107C0.870117 13.4587 14.0914 0.280273 30.4115 0.280273C46.7316 0.280273 59.9528 13.4587 59.9528 29.7107Z" fill="#FFCE00"/>
<path d="M49.9463 25.9159C50.2466 26.1063 50.6562 25.8887 50.6562 25.5351V25.5283C50.6562 23.3795 48.9088 21.6387 46.7519 21.6387C44.595 21.6387 42.8477 23.3795 42.8477 25.5283V25.5351C42.8477 25.8955 43.2504 26.1063 43.5575 25.9159C44.4858 25.3447 45.5779 25.0115 46.7519 25.0115C47.9191 25.0115 49.0112 25.3447 49.9463 25.9159Z" fill="#562912"/>
<path d="M17.2724 25.9159C17.5796 26.1063 17.9823 25.8887 17.9823 25.5351V25.5283C17.9823 23.3795 16.2349 21.6387 14.0781 21.6387C11.9212 21.6387 10.1738 23.3795 10.1738 25.5283V25.5351C10.1738 25.8955 10.5765 26.1063 10.8837 25.9159C11.812 25.3447 12.9041 25.0115 14.0712 25.0115C15.2521 25.0115 16.3442 25.3447 17.2724 25.9159Z" fill="#562912"/>
<path d="M15.3134 34.1646C14.3715 34.4842 13.8323 35.5042 14.2009 36.429C16.3987 41.9778 22.8489 46.6494 30.4185 46.6494C37.9882 46.6494 44.4384 41.9778 46.6362 36.429C46.998 35.5042 46.4656 34.4842 45.5237 34.1646C36.3978 31.091 24.4325 31.091 15.3134 34.1646Z" fill="#562912"/>
<path d="M22.2891 44.7524C24.7053 45.9424 27.4765 46.6496 30.4115 46.6496C33.3534 46.6496 36.1178 45.9356 38.534 44.7524C36.2952 43.0728 33.4762 42.0596 30.4115 42.0596C27.3468 42.0664 24.5279 43.0728 22.2891 44.7524Z" fill="#CC342F"/>
</svg>
