<svg width="1054" height="684" viewBox="0 0 1054 684" fill="none" xmlns="http://www.w3.org/2000/svg">
<path opacity="0.5" d="M1054 293.115L1018.46 272.598L657.175 481.145L534.61 410.355L977.34 154.625L941.821 134.107L499.073 389.819L380.802 321.508L457.549 277.173L486.471 260.462L823.532 65.779L788.013 45.2612L450.951 239.944L35.5197 0L0 20.5177L415.414 260.462L58.1056 468.119L93.6253 488.636L345.265 342.026L466.433 412.013L499.073 430.872L935.171 684L970.69 663.482L692.694 501.663L1054 293.115Z" fill="url(#paint0_radial)"/>
<path opacity="0.3" d="M422.047 454.149C549.571 454.149 652.95 394.436 652.95 320.775C652.95 247.115 549.571 187.401 422.047 187.401C294.522 187.401 191.143 247.115 191.143 320.775C191.143 394.436 294.522 454.149 422.047 454.149Z" fill="url(#paint1_radial)"/>
<path opacity="0.3" d="M732.298 642.249C859.823 642.249 963.203 582.535 963.203 508.875C963.203 435.215 859.823 375.501 732.298 375.501C604.774 375.501 501.395 435.215 501.395 508.875C501.395 582.535 604.774 642.249 732.298 642.249Z" fill="url(#paint2_radial)"/>
<path opacity="0.5" d="M499.247 373.772L408.833 321.544L499.247 269.315L589.678 321.544L499.247 373.772Z" fill="#0B0244"/>
<path d="M499.247 352.59L408.101 299.943L499.247 247.295L590.412 299.943L499.247 352.59Z" fill="#312A91"/>
<path d="M499.247 337.45L408.101 284.803L499.247 232.138L590.412 284.803L499.247 337.45Z" fill="#312A91"/>
<path opacity="0.7" d="M499.247 325.454L428.871 284.803L499.247 244.151L569.623 284.803L499.247 325.454Z" fill="url(#paint3_linear)"/>
<path d="M590.411 284.803V299.942L499.247 352.59V337.45L590.411 284.803Z" fill="url(#paint4_linear)"/>
<path d="M408.101 284.803V299.942L499.247 352.59V337.45L408.101 284.803Z" fill="#312A91"/>
<path opacity="0.7" d="M408.101 284.803V299.942L499.247 352.59V337.45L408.101 284.803Z" fill="url(#paint5_linear)"/>
<path d="M499.247 320.774L408.101 268.126L499.247 215.479L590.412 268.126L499.247 320.774Z" fill="#312A91"/>
<path d="M499.247 305.635L408.101 252.987L499.247 200.322L590.412 252.987L499.247 305.635Z" fill="#312A91"/>
<path opacity="0.7" d="M499.247 305.635L408.101 252.987L499.247 200.322L590.412 252.987L499.247 305.635Z" fill="url(#paint6_linear)"/>
<path opacity="0.3" d="M499.248 272.475L465.508 252.987L499.248 233.482L533.004 252.987L499.248 272.475Z" fill="#42E8E0"/>
<path opacity="0.3" d="M499.248 246.719L521.537 259.588L533.004 252.987L499.248 233.482L465.508 252.987L476.958 259.588L499.248 246.719Z" fill="#42E8E0"/>
<path d="M499.248 246.719L521.537 259.588L533.004 252.987L499.248 233.482L465.508 252.987L476.958 259.588L499.248 246.719Z" fill="#42E8E0"/>
<path d="M590.411 252.987V268.127L499.247 320.774V305.635L590.411 252.987Z" fill="url(#paint7_linear)"/>
<path d="M408.101 252.987V268.127L499.247 320.774V305.635L408.101 252.987Z" fill="#312A91"/>
<path opacity="0.7" d="M408.101 252.987V268.127L499.247 320.774V305.635L408.101 252.987Z" fill="url(#paint8_linear)"/>
<path opacity="0.3" d="M499.247 320.775V337.451L408.101 284.803V268.127L499.247 320.775Z" fill="#42E8E0"/>
<path opacity="0.3" d="M428.871 280.123V284.803L499.247 325.454L569.623 284.803V280.123L499.247 320.774L428.871 280.123Z" fill="#42E8E0"/>
<path opacity="0.3" d="M499.247 320.774V325.454L428.871 284.803V280.123L499.247 320.774Z" fill="#42E8E0"/>
<path opacity="0.5" d="M408.101 268.127V284.803L499.247 337.451L590.412 284.803V268.127L499.247 320.775L408.101 268.127Z" fill="#5CFFF3"/>
<path d="M410.247 252.987L500.329 200.951L499.247 200.322L408.101 252.987L499.247 305.635L500.329 305.006L410.247 252.987Z" fill="url(#paint9_linear)"/>
<path opacity="0.5" d="M408.101 268.127V284.803L409.357 285.519V268.843L408.101 268.127Z" fill="#42E8E0"/>
<path opacity="0.5" d="M590.411 268.127V284.803L589.155 285.519V268.843L590.411 268.127Z" fill="#42E8E0"/>
<path opacity="0.5" d="M499.247 320.774L497.101 319.534V336.21L499.247 337.45L501.394 336.21V319.534L499.247 320.774Z" fill="#42E8E0"/>
<path d="M499.247 292.661L408.101 239.996L499.247 187.349L590.412 239.996L499.247 292.661Z" fill="#312A91"/>
<path d="M499.247 277.504L408.101 224.857L499.247 172.209L590.412 224.857L499.247 277.504Z" fill="#312A91"/>
<path opacity="0.7" d="M499.247 265.508L428.871 224.856L499.247 184.205L569.623 224.856L499.247 265.508Z" fill="url(#paint10_linear)"/>
<path d="M590.411 224.856V239.996L499.247 292.661V277.504L590.411 224.856Z" fill="url(#paint11_linear)"/>
<path d="M408.101 224.856V239.996L499.247 292.661V277.504L408.101 224.856Z" fill="#312A91"/>
<path opacity="0.7" d="M408.101 224.856V239.996L499.247 292.661V277.504L408.101 224.856Z" fill="url(#paint12_linear)"/>
<path d="M499.247 260.846L408.101 208.181L499.247 155.533L590.412 208.181L499.247 260.846Z" fill="#312A91"/>
<path d="M499.247 245.689L408.101 193.041L499.247 140.394L590.412 193.041L499.247 245.689Z" fill="#312A91"/>
<path opacity="0.7" d="M499.247 245.689L408.101 193.041L499.247 140.394L590.412 193.041L499.247 245.689Z" fill="url(#paint13_linear)"/>
<path opacity="0.3" d="M499.248 212.529L465.508 193.041L499.248 173.554L533.004 193.041L499.248 212.529Z" fill="#42E8E0"/>
<path opacity="0.3" d="M499.248 186.772L521.537 199.659L533.004 193.041L499.248 173.554L465.508 193.041L476.958 199.659L499.248 186.772Z" fill="#42E8E0"/>
<path d="M499.248 186.772L521.537 199.659L533.004 193.041L499.248 173.554L465.508 193.041L476.958 199.659L499.248 186.772Z" fill="#42E8E0"/>
<path d="M590.411 193.041V208.18L499.247 260.846V245.689L590.411 193.041Z" fill="url(#paint14_linear)"/>
<path d="M408.101 193.041V208.18L499.247 260.846V245.689L408.101 193.041Z" fill="#312A91"/>
<path opacity="0.7" d="M408.101 193.041V208.18L499.247 260.846V245.689L408.101 193.041Z" fill="url(#paint15_linear)"/>
<path opacity="0.3" d="M499.247 260.846V277.504L408.101 224.857V208.181L499.247 260.846Z" fill="#42E8E0"/>
<path opacity="0.3" d="M428.871 220.194V224.857L499.247 265.508L569.623 224.857V220.194L499.247 260.846L428.871 220.194Z" fill="#42E8E0"/>
<path opacity="0.3" d="M499.247 260.846V265.508L428.871 224.857V220.194L499.247 260.846Z" fill="#42E8E0"/>
<path opacity="0.5" d="M408.101 208.181V224.857L499.247 277.504L590.412 224.857V208.181L499.247 260.846L408.101 208.181Z" fill="#5CFFF3"/>
<path d="M410.247 193.041L500.329 141.022L499.247 140.394L408.101 193.041L499.247 245.689L500.329 245.078L410.247 193.041Z" fill="url(#paint16_linear)"/>
<path opacity="0.5" d="M408.101 208.181V224.857L409.357 225.573V208.914L408.101 208.181Z" fill="#42E8E0"/>
<path opacity="0.5" d="M590.411 208.181V224.857L589.155 225.573V208.914L590.411 208.181Z" fill="#42E8E0"/>
<path opacity="0.5" d="M499.247 260.845L497.101 259.588V276.281L499.247 277.504L501.394 276.281V259.588L499.247 260.845Z" fill="#42E8E0"/>
<path d="M499.247 232.715L408.101 180.068L499.247 127.42L590.412 180.068L499.247 232.715Z" fill="#312A91"/>
<path d="M499.247 217.575L408.101 164.928L499.247 112.263L590.412 164.928L499.247 217.575Z" fill="#312A91"/>
<path opacity="0.7" d="M499.247 205.579L428.871 164.928L499.247 124.276L569.623 164.928L499.247 205.579Z" fill="url(#paint17_linear)"/>
<path d="M590.411 164.928V180.067L499.247 232.715V217.575L590.411 164.928Z" fill="url(#paint18_linear)"/>
<path d="M408.101 164.928V180.067L499.247 232.715V217.575L408.101 164.928Z" fill="#312A91"/>
<path opacity="0.7" d="M408.101 164.928V180.067L499.247 232.715V217.575L408.101 164.928Z" fill="url(#paint19_linear)"/>
<path d="M499.247 200.899L408.101 148.251L499.247 95.6035L590.412 148.251L499.247 200.899Z" fill="#312A91"/>
<path d="M499.247 185.76L408.101 133.112L499.247 80.4473L590.412 133.112L499.247 185.76Z" fill="#312A91"/>
<path opacity="0.7" d="M499.247 185.76L408.101 133.112L499.247 80.4473L590.412 133.112L499.247 185.76Z" fill="url(#paint20_linear)"/>
<path opacity="0.3" d="M499.248 152.6L465.508 133.112L499.248 113.607L533.004 133.112L499.248 152.6Z" fill="#42E8E0"/>
<path opacity="0.3" d="M499.248 126.844L521.537 139.713L533.004 133.112L499.248 113.607L465.508 133.112L476.958 139.713L499.248 126.844Z" fill="#42E8E0"/>
<path d="M499.248 126.844L521.537 139.713L533.004 133.112L499.248 113.607L465.508 133.112L476.958 139.713L499.248 126.844Z" fill="#42E8E0"/>
<path d="M590.411 133.112V148.252L499.247 200.899V185.76L590.411 133.112Z" fill="url(#paint21_linear)"/>
<path d="M408.101 133.112V148.252L499.247 200.899V185.76L408.101 133.112Z" fill="#312A91"/>
<path opacity="0.7" d="M408.101 133.112V148.252L499.247 200.899V185.76L408.101 133.112Z" fill="url(#paint22_linear)"/>
<path opacity="0.3" d="M499.247 200.9V217.576L408.101 164.928V148.252L499.247 200.9Z" fill="#42E8E0"/>
<path opacity="0.3" d="M428.871 160.248V164.928L499.247 205.579L569.623 164.928V160.248L499.247 200.899L428.871 160.248Z" fill="#42E8E0"/>
<path opacity="0.3" d="M499.247 200.899V205.579L428.871 164.928V160.248L499.247 200.899Z" fill="#42E8E0"/>
<path opacity="0.5" d="M408.101 148.252V164.928L499.247 217.576L590.412 164.928V148.252L499.247 200.9L408.101 148.252Z" fill="#5CFFF3"/>
<path d="M410.247 133.112L500.329 81.0759L499.247 80.4473L408.101 133.112L499.247 185.76L500.329 185.131L410.247 133.112Z" fill="url(#paint23_linear)"/>
<path opacity="0.5" d="M408.101 148.252V164.928L409.357 165.644V148.968L408.101 148.252Z" fill="#42E8E0"/>
<path opacity="0.5" d="M590.411 148.252V164.928L589.155 165.644V148.968L590.411 148.252Z" fill="#42E8E0"/>
<path opacity="0.5" d="M499.247 200.899L497.101 199.659V216.353L499.247 217.575L501.394 216.353V199.659L499.247 200.899Z" fill="#42E8E0"/>
<path d="M499.247 172.785L408.101 120.12L499.247 67.4727L590.412 120.138L499.247 172.785Z" fill="#312A91"/>
<path d="M499.247 157.628L408.101 104.981L499.247 52.333L590.412 104.981L499.247 157.628Z" fill="#312A91"/>
<path opacity="0.7" d="M499.247 145.632L428.871 104.98L499.247 64.3291L569.623 104.98L499.247 145.632Z" fill="url(#paint24_linear)"/>
<path d="M590.411 104.98V120.137L499.247 172.785V157.628L590.411 104.98Z" fill="url(#paint25_linear)"/>
<path d="M408.101 104.98V120.12L499.247 172.785V157.628L408.101 104.98Z" fill="#312A91"/>
<path opacity="0.7" d="M408.101 104.98V120.12L499.247 172.785V157.628L408.101 104.98Z" fill="url(#paint26_linear)"/>
<path d="M499.247 140.97L408.101 88.3048L499.247 35.6572L590.412 88.3223L499.247 140.97Z" fill="#312A91"/>
<path d="M499.247 125.813L408.101 73.1652L499.247 20.5176L590.412 73.1652L499.247 125.813Z" fill="#312A91"/>
<path opacity="0.7" d="M499.247 125.813L408.101 73.1652L499.247 20.5176L590.412 73.1652L499.247 125.813Z" fill="url(#paint27_linear)"/>
<path d="M590.411 73.165V88.322L499.247 140.97V125.813L590.411 73.165Z" fill="url(#paint28_linear)"/>
<path d="M408.101 73.165V88.3045L499.247 140.97V125.813L408.101 73.165Z" fill="#312A91"/>
<path opacity="0.7" d="M408.101 73.165V88.3045L499.247 140.97V125.813L408.101 73.165Z" fill="url(#paint29_linear)"/>
<path opacity="0.3" d="M499.247 140.97V157.628L408.101 104.981V88.3047L499.247 140.97Z" fill="#42E8E0"/>
<path opacity="0.3" d="M428.871 100.318V104.981L499.247 145.632L569.623 104.981V100.318L499.247 140.97L428.871 100.318Z" fill="#42E8E0"/>
<path opacity="0.3" d="M499.247 140.97V145.632L428.871 104.981V100.318L499.247 140.97Z" fill="#42E8E0"/>
<path opacity="0.5" d="M408.101 88.3047V104.981L499.247 157.628L590.412 104.981V88.3222L499.247 140.97L408.101 88.3047Z" fill="#5CFFF3"/>
<path d="M410.247 73.1652L500.329 21.1462L499.247 20.5176L408.101 73.1652L499.247 125.813L500.329 125.202L410.247 73.1652Z" fill="url(#paint30_linear)"/>
<path opacity="0.5" d="M408.101 88.3047V104.981L409.357 105.714V89.0381L408.101 88.3047Z" fill="#42E8E0"/>
<path opacity="0.5" d="M590.411 88.3047V104.981L589.155 105.714V89.0381L590.411 88.3047Z" fill="#42E8E0"/>
<path opacity="0.5" d="M499.247 140.969L497.101 139.712V156.406L499.247 157.628L501.394 156.406V139.712L499.247 140.969Z" fill="#42E8E0"/>
<path opacity="0.5" d="M809.499 554.154L719.085 501.926L809.499 449.697L899.913 501.926L809.499 554.154Z" fill="#0B0244"/>
<path d="M809.499 532.973L718.353 480.325L809.499 427.678L900.646 480.325L809.499 532.973Z" fill="#312A91"/>
<path d="M809.499 517.833L718.353 465.186L809.499 412.538L900.646 465.186L809.499 517.833Z" fill="#312A91"/>
<path opacity="0.7" d="M809.499 505.837L739.123 465.185L809.499 424.534L879.875 465.185L809.499 505.837Z" fill="url(#paint31_linear)"/>
<path d="M900.646 465.186V480.325L809.499 532.973V517.833L900.646 465.186Z" fill="url(#paint32_linear)"/>
<path d="M718.353 465.186V480.325L809.499 532.973V517.833L718.353 465.186Z" fill="#312A91"/>
<path opacity="0.7" d="M718.353 465.186V480.325L809.499 532.973V517.833L718.353 465.186Z" fill="url(#paint33_linear)"/>
<path d="M809.499 501.158L718.353 448.51L809.499 395.862L900.646 448.51L809.499 501.158Z" fill="#312A91"/>
<path d="M809.499 486.018L718.353 433.37L809.499 380.723L900.646 433.37L809.499 486.018Z" fill="#312A91"/>
<path opacity="0.7" d="M809.499 486.018L718.353 433.37L809.499 380.723L900.646 433.37L809.499 486.018Z" fill="url(#paint34_linear)"/>
<path opacity="0.3" d="M809.499 452.858L775.742 433.37L809.499 413.865L843.256 433.37L809.499 452.858Z" fill="#42E8E0"/>
<path opacity="0.3" d="M809.499 427.101L831.788 439.988L843.256 433.37L809.499 413.865L775.742 433.37L787.21 439.988L809.499 427.101Z" fill="#42E8E0"/>
<path d="M809.499 427.101L831.788 439.988L843.256 433.37L809.499 413.865L775.742 433.37L787.21 439.988L809.499 427.101Z" fill="#42E8E0"/>
<path d="M900.646 433.37V448.51L809.499 501.157V486.018L900.646 433.37Z" fill="url(#paint35_linear)"/>
<path d="M718.353 433.37V448.51L809.499 501.157V486.018L718.353 433.37Z" fill="#312A91"/>
<path opacity="0.7" d="M718.353 433.37V448.51L809.499 501.157V486.018L718.353 433.37Z" fill="url(#paint36_linear)"/>
<path opacity="0.3" d="M809.499 501.157V517.833L718.353 465.186V448.51L809.499 501.157Z" fill="#42E8E0"/>
<path opacity="0.3" d="M739.123 460.506V465.186L809.499 505.837L879.875 465.186V460.506L809.499 501.157L739.123 460.506Z" fill="#42E8E0"/>
<path opacity="0.3" d="M809.499 501.157V505.837L739.123 465.186V460.506L809.499 501.157Z" fill="#42E8E0"/>
<path opacity="0.5" d="M718.353 448.51V465.186L809.499 517.833L900.646 465.186V448.51L809.499 501.157L718.353 448.51Z" fill="#5CFFF3"/>
<path d="M720.499 433.37L810.581 381.334L809.499 380.723L718.353 433.37L809.499 486.018L810.581 485.389L720.499 433.37Z" fill="url(#paint37_linear)"/>
<path opacity="0.5" d="M718.353 448.51V465.186L719.592 465.902V449.226L718.353 448.51Z" fill="#42E8E0"/>
<path opacity="0.5" d="M900.646 448.51V465.186L899.407 465.902V449.226L900.646 448.51Z" fill="#42E8E0"/>
<path opacity="0.5" d="M809.499 501.157L807.353 499.917V516.611L809.499 517.833L811.646 516.611V499.917L809.499 501.157Z" fill="#42E8E0"/>
<path d="M809.499 473.043L718.353 420.396L809.499 367.73L900.646 420.396L809.499 473.043Z" fill="#312A91"/>
<path d="M809.499 457.886L718.353 405.238L809.499 352.591L900.646 405.238L809.499 457.886Z" fill="#312A91"/>
<path opacity="0.7" d="M809.499 445.89L739.123 405.238L809.499 364.587L879.875 405.238L809.499 445.89Z" fill="url(#paint38_linear)"/>
<path d="M900.646 405.238V420.395L809.499 473.043V457.886L900.646 405.238Z" fill="url(#paint39_linear)"/>
<path d="M718.353 405.238V420.395L809.499 473.043V457.886L718.353 405.238Z" fill="#312A91"/>
<path opacity="0.7" d="M718.353 405.238V420.395L809.499 473.043V457.886L718.353 405.238Z" fill="url(#paint40_linear)"/>
<path d="M809.499 441.228L718.353 388.58L809.499 335.915L900.646 388.58L809.499 441.228Z" fill="#312A91"/>
<path d="M809.499 426.071L718.353 373.423L809.499 320.775L900.646 373.423L809.499 426.071Z" fill="#312A91"/>
<path opacity="0.7" d="M809.499 426.071L718.353 373.423L809.499 320.775L900.646 373.423L809.499 426.071Z" fill="url(#paint41_linear)"/>
<path opacity="0.3" d="M809.499 392.928L775.742 373.423L809.499 353.936L843.256 373.423L809.499 392.928Z" fill="#42E8E0"/>
<path opacity="0.3" d="M809.499 367.172L831.788 380.041L843.256 373.423L809.499 353.936L775.742 373.423L787.21 380.041L809.499 367.172Z" fill="#42E8E0"/>
<path d="M809.499 367.172L831.788 380.041L843.256 373.423L809.499 353.936L775.742 373.423L787.21 380.041L809.499 367.172Z" fill="#42E8E0"/>
<path d="M900.646 373.423V388.58L809.499 441.227V426.07L900.646 373.423Z" fill="url(#paint42_linear)"/>
<path d="M718.353 373.423V388.58L809.499 441.227V426.07L718.353 373.423Z" fill="#312A91"/>
<path opacity="0.7" d="M718.353 373.423V388.58L809.499 441.227V426.07L718.353 373.423Z" fill="url(#paint43_linear)"/>
<path opacity="0.3" d="M809.499 441.228V457.886L718.353 405.239V388.58L809.499 441.228Z" fill="#42E8E0"/>
<path opacity="0.3" d="M739.123 400.576V405.239L809.499 445.89L879.875 405.239V400.576L809.499 441.227L739.123 400.576Z" fill="#42E8E0"/>
<path opacity="0.3" d="M809.499 441.227V445.89L739.123 405.239V400.576L809.499 441.227Z" fill="#42E8E0"/>
<path opacity="0.5" d="M718.353 388.58V405.239L809.499 457.886L900.646 405.239V388.58L809.499 441.228L718.353 388.58Z" fill="#5CFFF3"/>
<path d="M720.499 373.423L810.581 321.404L809.499 320.775L718.353 373.423L809.499 426.071L810.581 425.459L720.499 373.423Z" fill="url(#paint44_linear)"/>
<path opacity="0.5" d="M718.353 388.58V405.239L719.592 405.972V389.296L718.353 388.58Z" fill="#42E8E0"/>
<path opacity="0.5" d="M900.646 388.58V405.239L899.407 405.972V389.296L900.646 388.58Z" fill="#42E8E0"/>
<path opacity="0.5" d="M809.499 441.227L807.353 439.987V456.663L809.499 457.886L811.646 456.663V439.987L809.499 441.227Z" fill="#42E8E0"/>
<path d="M809.499 413.096L718.353 360.448L809.499 307.801L900.646 360.448L809.499 413.096Z" fill="#312A91"/>
<path d="M809.499 397.956L718.353 345.309L809.499 292.661L900.646 345.309L809.499 397.956Z" fill="#312A91"/>
<path opacity="0.7" d="M809.499 385.96L739.123 345.309L809.499 304.657L879.875 345.309L809.499 385.96Z" fill="url(#paint45_linear)"/>
<path d="M900.646 345.309V360.448L809.499 413.096V397.956L900.646 345.309Z" fill="url(#paint46_linear)"/>
<path d="M718.353 345.309V360.448L809.499 413.096V397.956L718.353 345.309Z" fill="#312A91"/>
<path opacity="0.7" d="M718.353 345.309V360.448L809.499 413.096V397.956L718.353 345.309Z" fill="url(#paint47_linear)"/>
<path d="M809.499 381.281L718.353 328.633L809.499 275.985L900.646 328.633L809.499 381.281Z" fill="#312A91"/>
<path d="M809.499 366.141L718.353 313.493L809.499 260.846L900.646 313.493L809.499 366.141Z" fill="#312A91"/>
<path opacity="0.7" d="M809.499 366.141L718.353 313.493L809.499 260.846L900.646 313.493L809.499 366.141Z" fill="url(#paint48_linear)"/>
<path opacity="0.3" d="M809.499 332.981L775.742 313.493L809.499 293.988L843.256 313.493L809.499 332.981Z" fill="#42E8E0"/>
<path opacity="0.3" d="M809.499 307.224L831.788 320.111L843.256 313.493L809.499 293.988L775.742 313.493L787.21 320.111L809.499 307.224Z" fill="#42E8E0"/>
<path d="M809.499 307.224L831.788 320.111L843.256 313.493L809.499 293.988L775.742 313.493L787.21 320.111L809.499 307.224Z" fill="#42E8E0"/>
<path d="M900.646 313.493V328.633L809.499 381.28V366.141L900.646 313.493Z" fill="url(#paint49_linear)"/>
<path d="M718.353 313.493V328.633L809.499 381.28V366.141L718.353 313.493Z" fill="#312A91"/>
<path opacity="0.7" d="M718.353 313.493V328.633L809.499 381.28V366.141L718.353 313.493Z" fill="url(#paint50_linear)"/>
<path opacity="0.3" d="M809.499 381.28V397.957L718.353 345.309V328.633L809.499 381.28Z" fill="#42E8E0"/>
<path opacity="0.3" d="M739.123 340.63V345.31L809.499 385.961L879.875 345.31V340.63L809.499 381.281L739.123 340.63Z" fill="#42E8E0"/>
<path opacity="0.3" d="M809.499 381.281V385.961L739.123 345.31V340.63L809.499 381.281Z" fill="#42E8E0"/>
<path opacity="0.5" d="M718.353 328.633V345.309L809.499 397.957L900.646 345.309V328.633L809.499 381.28L718.353 328.633Z" fill="#5CFFF3"/>
<path d="M720.499 313.493L810.581 261.457L809.499 260.846L718.353 313.493L809.499 366.141L810.581 365.512L720.499 313.493Z" fill="url(#paint51_linear)"/>
<path opacity="0.5" d="M718.353 328.633V345.309L719.592 346.025V329.366L718.353 328.633Z" fill="#42E8E0"/>
<path opacity="0.5" d="M900.646 328.633V345.309L899.407 346.025V329.366L900.646 328.633Z" fill="#42E8E0"/>
<path opacity="0.5" d="M809.499 381.28L807.353 380.04V396.734L809.499 397.956L811.646 396.734V380.04L809.499 381.28Z" fill="#42E8E0"/>
<path d="M809.499 353.167L718.353 300.52L809.499 247.854L900.646 300.52L809.499 353.167Z" fill="#312A91"/>
<path d="M809.499 338.01L718.353 285.362L809.499 232.715L900.646 285.362L809.499 338.01Z" fill="#312A91"/>
<path opacity="0.7" d="M809.499 326.014L739.123 285.362L809.499 244.711L879.875 285.362L809.499 326.014Z" fill="url(#paint52_linear)"/>
<path d="M900.646 285.362V300.519L809.499 353.167V338.01L900.646 285.362Z" fill="url(#paint53_linear)"/>
<path d="M718.353 285.362V300.519L809.499 353.167V338.01L718.353 285.362Z" fill="#312A91"/>
<path opacity="0.7" d="M718.353 285.362V300.519L809.499 353.167V338.01L718.353 285.362Z" fill="url(#paint54_linear)"/>
<path d="M809.499 321.352L718.353 268.704L809.499 216.039L900.646 268.704L809.499 321.352Z" fill="#312A91"/>
<path d="M809.499 306.195L718.353 253.547L809.499 200.899L900.646 253.547L809.499 306.195Z" fill="#312A91"/>
<path opacity="0.7" d="M809.499 306.195L718.353 253.547L809.499 200.899L900.646 253.547L809.499 306.195Z" fill="url(#paint55_linear)"/>
<path d="M900.646 253.547V268.704L809.499 321.351V306.194L900.646 253.547Z" fill="url(#paint56_linear)"/>
<path d="M718.353 253.547V268.704L809.499 321.351V306.194L718.353 253.547Z" fill="#312A91"/>
<path opacity="0.7" d="M718.353 253.547V268.704L809.499 321.351V306.194L718.353 253.547Z" fill="url(#paint57_linear)"/>
<path opacity="0.3" d="M809.499 321.352V338.01L718.353 285.363V268.704L809.499 321.352Z" fill="#42E8E0"/>
<path opacity="0.3" d="M739.123 280.7V285.363L809.499 326.014L879.875 285.363V280.7L809.499 321.352L739.123 280.7Z" fill="#42E8E0"/>
<path opacity="0.3" d="M809.499 321.352V326.014L739.123 285.363V280.7L809.499 321.352Z" fill="#42E8E0"/>
<path opacity="0.5" d="M718.353 268.704V285.363L809.499 338.01L900.646 285.363V268.704L809.499 321.352L718.353 268.704Z" fill="#5CFFF3"/>
<path d="M720.499 253.547L810.581 201.528L809.499 200.899L718.353 253.547L809.499 306.195L810.581 305.583L720.499 253.547Z" fill="url(#paint58_linear)"/>
<path opacity="0.5" d="M718.353 268.704V285.363L719.592 286.096V269.42L718.353 268.704Z" fill="#42E8E0"/>
<path opacity="0.5" d="M900.646 268.704V285.363L899.407 286.096V269.42L900.646 268.704Z" fill="#42E8E0"/>
<path opacity="0.5" d="M809.499 321.351L807.353 320.111V336.787L809.499 338.01L811.646 336.787V320.111L809.499 321.351Z" fill="#42E8E0"/>
<path opacity="0.3" d="M411.888 675.636C539.413 675.636 642.792 615.922 642.792 542.262C642.792 468.601 539.413 408.888 411.888 408.888C284.364 408.888 180.984 468.601 180.984 542.262C180.984 615.922 284.364 675.636 411.888 675.636Z" fill="url(#paint59_radial)"/>
<path opacity="0.5" d="M472.664 584.118L404.557 544.776C399.391 541.79 400.037 536.569 406.006 533.112L471.198 495.446C477.168 491.989 486.209 491.622 491.393 494.608L559.5 533.95C564.666 536.936 564.021 542.157 558.051 545.614L492.859 583.28C486.872 586.737 477.831 587.104 472.664 584.118Z" fill="#0B0244"/>
<path d="M571.666 499.113V485.021H535.343L492.405 460.208C486.68 456.89 476.662 457.309 470.046 461.133L428.714 485.004H392.357V499.881H392.392C392.235 502.117 393.474 504.282 396.232 505.871L471.652 549.438C477.377 552.756 487.396 552.337 494.011 548.513L566.22 506.796C570.042 504.631 571.875 501.767 571.666 499.113Z" fill="#312A91"/>
<path opacity="0.5" d="M571.666 499.113V485.021H535.343L492.405 460.208C486.68 456.89 476.662 457.309 470.046 461.133L428.714 485.004H392.357V499.881H392.392C392.235 502.117 393.474 504.282 396.232 505.871L471.652 549.438C477.377 552.756 487.396 552.337 494.011 548.513L566.22 506.796C570.042 504.631 571.875 501.767 571.666 499.113Z" fill="url(#paint60_linear)"/>
<path d="M492.405 460.226C489.648 458.637 485.912 457.921 482.02 458.008V551.691C486.209 551.586 490.573 550.539 494.011 548.548L566.22 506.832C570.042 504.631 571.875 501.768 571.666 499.113V485.022H535.343L492.405 460.226Z" fill="url(#paint61_linear)"/>
<path d="M471.651 534.596L396.213 491.029C390.488 487.711 391.203 481.931 397.819 478.107L470.027 436.39C476.643 432.566 486.661 432.147 492.386 435.465L567.807 479.032C573.532 482.35 572.816 488.13 566.201 491.954L493.992 533.67C487.394 537.495 477.376 537.896 471.651 534.596Z" fill="#312A91"/>
<path opacity="0.5" d="M471.651 534.596L396.213 491.029C390.488 487.711 391.203 481.931 397.819 478.107L470.027 436.39C476.643 432.566 486.661 432.147 492.386 435.465L567.807 479.032C573.532 482.35 572.816 488.13 566.201 491.954L493.992 533.67C487.394 537.495 477.376 537.896 471.651 534.596Z" fill="url(#paint62_linear)"/>
<path d="M473.659 524.957L412.883 489.859C408.258 487.187 408.851 482.525 414.175 479.452L472.35 445.838C477.674 442.764 485.755 442.415 490.363 445.087L551.139 480.185C555.765 482.857 555.171 487.519 549.848 490.592L491.672 524.207C486.349 527.297 478.285 527.629 473.659 524.957Z" fill="#5CFFF3"/>
<path d="M414.192 484.008L472.368 450.394C477.691 447.321 485.773 446.972 490.381 449.643L551.157 484.742C552.291 485.405 553.112 486.174 553.635 487.029C554.979 484.567 554.194 481.948 551.157 480.184L490.381 445.086C485.755 442.414 477.691 442.746 472.368 445.837L414.192 479.451C410.178 481.773 408.851 484.986 410.422 487.571C411.12 486.296 412.36 485.056 414.192 484.008Z" fill="#42E8E0"/>
<path opacity="0.5" d="M474.183 534.596L398.762 491.028C393.037 487.711 391.658 482.856 400.368 478.107L472.577 436.39C475.823 434.504 479.908 433.457 483.887 433.264C479.157 433.055 473.991 434.103 470.046 436.39L397.837 478.107C391.222 481.931 390.506 487.711 396.231 491.028L471.652 534.596C474.567 536.272 478.581 536.988 482.7 536.796C479.506 536.639 476.487 535.923 474.183 534.596Z" fill="url(#paint63_linear)"/>
<path opacity="0.5" d="M566.22 498.241L494.011 539.957C487.396 543.781 477.377 544.2 471.652 540.883L396.214 497.315C393.456 495.726 392.217 493.561 392.374 491.326H392.339V494.416H392.374C392.217 496.652 393.456 498.817 396.214 500.406L471.635 543.973C477.36 547.291 487.378 546.872 493.994 543.048L566.202 501.331C570.025 499.131 571.858 496.267 571.648 493.613V490.522C571.875 493.177 570.042 496.04 566.22 498.241Z" fill="url(#paint64_linear)"/>
<path d="M553.129 494.137C553.949 494.608 553.949 495.377 553.129 495.866C552.308 496.337 550.964 496.337 550.144 495.866C549.324 495.394 549.324 494.626 550.144 494.137C550.964 493.665 552.308 493.665 553.129 494.137Z" fill="#FCCC6B"/>
<path d="M557.772 491.447C558.592 491.919 558.592 492.687 557.772 493.176C556.952 493.647 555.608 493.647 554.787 493.176C553.967 492.705 553.967 491.936 554.787 491.447C555.608 490.976 556.952 490.976 557.772 491.447Z" fill="#FCCC6B"/>
<path d="M562.414 488.775C563.235 489.247 563.235 490.015 562.414 490.504C561.594 490.976 560.25 490.976 559.43 490.504C558.609 490.033 558.609 489.264 559.43 488.775C560.25 488.304 561.594 488.304 562.414 488.775Z" fill="#FCCC6B"/>
<path opacity="0.5" d="M475.475 516.453L427.789 488.933C424.159 486.838 424.613 483.188 428.802 480.778L474.445 454.411C478.634 452.001 484.952 451.739 488.583 453.817L536.251 481.355C539.881 483.45 539.427 487.1 535.238 489.509L489.595 515.877C485.424 518.287 479.088 518.549 475.475 516.453Z" fill="#0B0244"/>
<path opacity="0.5" d="M454.442 445.401L392.357 445.681V485.022H392.392C392.235 487.257 393.474 489.423 396.232 491.012L471.652 534.579C474.41 536.168 478.145 536.884 482.02 536.779V437.893H467.428L454.442 445.401Z" fill="#5CFFF3"/>
<path opacity="0.5" d="M571.666 485.039C571.683 484.777 571.683 484.498 571.666 484.236V444.894L509.179 445.174L492.388 435.482C486.663 432.165 476.644 432.584 470.029 436.408L454.425 445.418L392.339 445.698V485.039H392.374C392.217 487.274 393.456 489.44 396.214 491.029L471.635 534.596C477.36 537.914 487.378 537.495 493.994 533.671L566.202 491.954C569.658 489.963 571.491 487.449 571.666 485.039Z" fill="#5CFFF3"/>
<path d="M571.666 444.894V430.803H535.343L492.405 405.989C486.68 402.671 476.662 403.09 470.046 406.915L428.714 430.785H392.357V445.663H392.392C392.235 447.898 393.474 450.063 396.232 451.652L471.652 495.219C477.377 498.537 487.396 498.118 494.011 494.294L566.22 452.578C570.042 450.395 571.875 447.549 571.666 444.894Z" fill="#312A91"/>
<path opacity="0.5" d="M571.666 444.894V430.803H535.343L492.405 405.989C486.68 402.671 476.662 403.09 470.046 406.915L428.714 430.785H392.357V445.663H392.392C392.235 447.898 393.474 450.063 396.232 451.652L471.652 495.219C477.377 498.537 487.396 498.118 494.011 494.294L566.22 452.578C570.042 450.395 571.875 447.549 571.666 444.894Z" fill="url(#paint65_linear)"/>
<path d="M492.405 405.989C489.648 404.4 485.912 403.684 482.02 403.772V497.455C486.209 497.35 490.573 496.302 494.011 494.312L566.22 452.595C570.042 450.395 571.875 447.531 571.666 444.877V430.785H535.343L492.405 405.989Z" fill="url(#paint66_linear)"/>
<path d="M471.651 480.36L396.213 436.792C390.488 433.474 391.203 427.695 397.819 423.87L470.027 382.154C476.643 378.33 486.661 377.911 492.386 381.228L567.807 424.796C573.532 428.114 572.816 433.894 566.201 437.718L493.992 479.434C487.394 483.258 477.376 483.677 471.651 480.36Z" fill="#312A91"/>
<path opacity="0.5" d="M471.651 480.36L396.213 436.792C390.488 433.474 391.203 427.695 397.819 423.87L470.027 382.154C476.643 378.33 486.661 377.911 492.386 381.228L567.807 424.796C573.532 428.114 572.816 433.894 566.201 437.718L493.992 479.434C487.394 483.258 477.376 483.677 471.651 480.36Z" fill="url(#paint67_linear)"/>
<path opacity="0.5" d="M474.183 480.36L398.762 436.792C393.037 433.474 391.658 428.62 400.368 423.87L472.577 382.154C475.823 380.268 479.908 379.22 483.887 379.028C479.157 378.819 473.991 379.866 470.046 382.154L397.837 423.87C391.222 427.694 390.506 433.474 396.231 436.792L471.652 480.36C474.567 482.036 478.581 482.752 482.7 482.56C479.506 482.42 476.487 481.687 474.183 480.36Z" fill="url(#paint68_linear)"/>
<path opacity="0.5" d="M566.22 444.022L494.011 485.738C487.396 489.562 477.377 489.981 471.652 486.664L396.214 443.079C393.456 441.49 392.217 439.324 392.374 437.089H392.339V440.18H392.374C392.217 442.415 393.456 444.581 396.214 446.17L471.635 489.737C477.36 493.055 487.378 492.636 493.994 488.812L566.202 447.095C570.025 444.895 571.858 442.031 571.648 439.377V436.286C571.875 438.958 570.042 441.804 566.22 444.022Z" fill="url(#paint69_linear)"/>
<path opacity="0.2" d="M476.033 433.946C477.604 434.854 477.604 436.321 476.033 437.229C474.463 438.137 471.932 438.137 470.361 437.229C468.79 436.321 468.79 434.854 470.361 433.946C471.914 433.056 474.463 433.056 476.033 433.946Z" fill="#5CFFF3"/>
<path opacity="0.6" d="M484.865 428.847C486.436 429.755 486.436 431.222 484.865 432.13C483.295 433.038 480.764 433.038 479.193 432.13C477.622 431.222 477.622 429.755 479.193 428.847C480.746 427.939 483.295 427.939 484.865 428.847Z" fill="#5CFFF3"/>
<path d="M493.698 423.748C495.268 424.656 495.268 426.123 493.698 427.031C492.127 427.939 489.596 427.939 488.025 427.031C486.454 426.123 486.454 424.656 488.025 423.748C489.596 422.84 492.127 422.84 493.698 423.748Z" fill="#5CFFF3"/>
<path opacity="0.5" d="M481.531 469.656C478.739 469.656 476.068 469.097 474.061 467.944L418.294 435.727C416.269 434.557 415.152 432.916 415.152 431.082C415.152 428.934 416.723 426.787 419.481 425.18L472.874 394.342C477.918 391.426 485.581 391.129 489.979 393.661L545.746 425.879C547.771 427.049 548.888 428.69 548.888 430.523C548.888 432.689 547.317 434.836 544.559 436.426L491.166 467.263C488.426 468.835 484.883 469.656 481.531 469.656ZM474.637 466.949C478.704 469.306 485.877 468.992 490.608 466.268L544.001 435.43C546.392 434.051 547.771 432.252 547.771 430.523C547.771 429.126 546.863 427.834 545.188 426.874L489.421 394.657C485.354 392.299 478.18 392.614 473.45 395.338L420.057 426.175C417.666 427.555 416.287 429.353 416.287 431.082C416.287 432.479 417.194 433.771 418.87 434.732L474.637 466.949Z" fill="#0B0244"/>
<path opacity="0.3" d="M231.41 397.607C358.935 397.607 462.314 337.894 462.314 264.233C462.314 190.573 358.935 130.859 231.41 130.859C103.886 130.859 0.506348 190.573 0.506348 264.233C0.506348 337.894 103.886 397.607 231.41 397.607Z" fill="url(#paint70_radial)"/>
<path opacity="0.5" d="M292.187 306.089L224.08 266.747C218.913 263.761 219.559 258.54 225.529 255.082L290.721 217.417C296.69 213.96 305.731 213.593 310.915 216.579L379.022 255.921C384.189 258.906 383.543 264.128 377.574 267.585L312.381 305.25C306.395 308.708 297.353 309.075 292.187 306.089Z" fill="#0B0244"/>
<path d="M391.188 221.084V206.992H354.865L311.927 182.196C306.202 178.878 296.184 179.298 289.568 183.122L248.236 206.992H211.879V221.87H211.914C211.757 224.105 212.996 226.27 215.754 227.859L291.174 271.427C296.899 274.744 306.918 274.325 313.533 270.501L385.742 228.785C389.564 226.602 391.415 223.756 391.188 221.084Z" fill="#312A91"/>
<path opacity="0.5" d="M391.188 221.084V206.992H354.865L311.927 182.196C306.202 178.878 296.184 179.298 289.568 183.122L248.236 206.992H211.879V221.87H211.914C211.757 224.105 212.996 226.27 215.754 227.859L291.174 271.427C296.899 274.744 306.918 274.325 313.533 270.501L385.742 228.785C389.564 226.602 391.415 223.756 391.188 221.084Z" fill="url(#paint71_linear)"/>
<path d="M311.927 182.196C309.17 180.607 305.434 179.891 301.542 179.979V273.662C305.731 273.557 310.095 272.509 313.533 270.519L385.742 228.802C389.564 226.602 391.397 223.738 391.188 221.084V206.992H354.865L311.927 182.196Z" fill="url(#paint72_linear)"/>
<path d="M291.173 256.566L215.752 212.998C210.027 209.681 210.743 203.901 217.358 200.077L289.567 158.378C296.182 154.553 306.201 154.134 311.926 157.452L387.346 201.02C393.071 204.337 392.356 210.117 385.74 213.941L313.532 255.658C306.917 259.465 296.915 259.866 291.173 256.566Z" fill="#312A91"/>
<path opacity="0.5" d="M291.173 256.566L215.752 212.998C210.027 209.681 210.743 203.901 217.358 200.077L289.567 158.378C296.182 154.553 306.201 154.134 311.926 157.452L387.346 201.02C393.071 204.337 392.356 210.117 385.74 213.941L313.532 255.658C306.917 259.465 296.915 259.866 291.173 256.566Z" fill="url(#paint73_linear)"/>
<path d="M293.199 246.927L232.423 211.829C227.797 209.157 228.391 204.495 233.714 201.421L291.89 167.807C297.213 164.734 305.295 164.385 309.903 167.056L370.679 202.155C375.304 204.827 374.711 209.489 369.387 212.562L311.212 246.176C305.871 249.267 297.807 249.599 293.199 246.927Z" fill="#5CFFF3"/>
<path d="M233.714 205.98L291.89 172.366C297.213 169.293 305.295 168.943 309.903 171.615L370.679 206.713C371.813 207.377 372.634 208.145 373.157 209.001C374.501 206.539 373.716 203.92 370.679 202.156L309.903 167.057C305.277 164.386 297.213 164.718 291.89 167.808L233.714 201.422C229.7 203.745 228.373 206.958 229.944 209.542C230.642 208.268 231.899 207.028 233.714 205.98Z" fill="#42E8E0"/>
<path opacity="0.5" d="M293.704 256.567L218.283 212.999C212.558 209.681 211.179 204.827 219.889 200.077L292.098 158.361C295.344 156.475 299.429 155.427 303.408 155.235C298.678 155.026 293.512 156.073 289.567 158.361L217.358 200.077C210.743 203.902 210.027 209.681 215.752 212.999L291.173 256.567C294.088 258.243 298.102 258.959 302.221 258.767C299.027 258.61 296.025 257.894 293.704 256.567Z" fill="url(#paint74_linear)"/>
<path opacity="0.5" d="M385.759 220.21L313.533 261.927C306.918 265.751 296.899 266.17 291.174 262.852L215.754 219.285C212.996 217.696 211.757 215.531 211.914 213.295H211.879V216.386H211.914C211.757 218.621 212.996 220.787 215.754 222.376L291.174 265.943C296.899 269.261 306.918 268.842 313.533 265.018L385.742 223.301C389.564 221.101 391.397 218.237 391.188 215.583V212.492C391.415 215.146 389.564 218.01 385.759 220.21Z" fill="url(#paint75_linear)"/>
<path d="M372.651 216.108C373.472 216.579 373.472 217.347 372.651 217.836C371.831 218.308 370.487 218.308 369.667 217.836C368.846 217.365 368.846 216.596 369.667 216.108C370.504 215.636 371.831 215.636 372.651 216.108Z" fill="#FCCC6B"/>
<path d="M377.294 213.418C378.114 213.889 378.114 214.658 377.294 215.147C376.473 215.618 375.129 215.618 374.309 215.147C373.489 214.675 373.489 213.907 374.309 213.418C375.129 212.929 376.473 212.946 377.294 213.418Z" fill="#FCCC6B"/>
<path d="M381.937 210.746C382.757 211.218 382.757 211.986 381.937 212.475C381.117 212.946 379.773 212.946 378.952 212.475C378.132 212.003 378.132 211.235 378.952 210.746C379.79 210.275 381.117 210.275 381.937 210.746Z" fill="#FCCC6B"/>
<path opacity="0.5" d="M294.997 238.425L247.329 210.887C243.698 208.792 244.152 205.142 248.341 202.733L293.984 176.365C298.173 173.955 304.492 173.693 308.122 175.771L355.79 203.309C359.421 205.404 358.967 209.054 354.778 211.464L309.135 237.831C304.946 240.258 298.61 240.52 294.997 238.425Z" fill="#0B0244"/>
<path opacity="0.5" d="M301.542 155.235C297.353 155.34 293.007 156.388 289.568 158.361L273.964 167.371L211.879 167.651V206.992H211.914C211.757 209.228 212.996 211.393 215.754 212.982L291.174 256.549C293.932 258.138 297.667 258.854 301.542 258.749V155.235Z" fill="#5CFFF3"/>
<path opacity="0.5" d="M391.188 207.01C391.205 206.748 391.205 206.469 391.188 206.207V166.865L328.701 167.144L311.91 157.453C306.185 154.135 296.166 154.554 289.551 158.379L273.947 167.389L211.861 167.668V207.01H211.896C211.739 209.245 212.978 211.41 215.736 212.999L291.157 256.567C296.882 259.885 306.9 259.465 313.516 255.641L385.724 213.925C389.198 211.934 391.013 209.42 391.188 207.01Z" fill="#5CFFF3"/>
<path d="M391.188 166.865V152.773H354.865L311.927 127.96C306.202 124.642 296.184 125.061 289.568 128.885L248.236 152.756H211.879V167.633H211.914C211.757 169.868 212.996 172.034 215.754 173.623L291.174 217.19C296.899 220.508 306.918 220.089 313.533 216.265L385.742 174.548C389.564 172.365 391.415 169.519 391.188 166.865Z" fill="#312A91"/>
<path opacity="0.5" d="M391.188 166.865V152.773H354.865L311.927 127.96C306.202 124.642 296.184 125.061 289.568 128.885L248.236 152.756H211.879V167.633H211.914C211.757 169.868 212.996 172.034 215.754 173.623L291.174 217.19C296.899 220.508 306.918 220.089 313.533 216.265L385.742 174.548C389.564 172.365 391.415 169.519 391.188 166.865Z" fill="url(#paint76_linear)"/>
<path d="M311.927 127.96C309.17 126.371 305.434 125.655 301.542 125.742V219.426C305.731 219.321 310.095 218.273 313.533 216.282L385.742 174.566C389.564 172.366 391.397 169.502 391.188 166.848V152.756H354.865L311.927 127.96Z" fill="url(#paint77_linear)"/>
<path d="M291.174 202.33L215.753 158.763C210.028 155.445 210.744 149.665 217.359 145.841L289.568 104.125C296.183 100.3 306.202 99.8814 311.927 103.199L387.347 146.767C393.072 150.084 392.357 155.864 385.741 159.688L313.533 201.405C306.917 205.229 296.916 205.648 291.174 202.33Z" fill="#312A91"/>
<path opacity="0.5" d="M291.174 202.33L215.753 158.763C210.028 155.445 210.744 149.665 217.359 145.841L289.568 104.125C296.183 100.3 306.202 99.8814 311.927 103.199L387.347 146.767C393.072 150.084 392.357 155.864 385.741 159.688L313.533 201.405C306.917 205.229 296.916 205.648 291.174 202.33Z" fill="url(#paint78_linear)"/>
<path opacity="0.5" d="M293.705 202.33L218.284 158.763C212.559 155.445 211.18 150.591 219.89 145.841L292.099 104.125C295.345 102.239 299.43 101.191 303.409 100.999C298.679 100.789 293.513 101.837 289.568 104.125L217.359 145.841C210.744 149.665 210.028 155.445 215.753 158.763L291.174 202.33C294.089 204.007 298.103 204.723 302.222 204.53C299.028 204.391 296.026 203.675 293.705 202.33Z" fill="url(#paint79_linear)"/>
<path opacity="0.5" d="M385.76 165.993L313.551 207.709C306.936 211.533 296.917 211.952 291.192 208.635L215.771 165.067C213.014 163.478 211.774 161.313 211.931 159.078H211.896V162.168H211.931C211.774 164.404 213.014 166.569 215.771 168.158L291.192 211.725C296.917 215.043 306.936 214.624 313.551 210.8L385.76 169.083C389.582 166.883 391.415 164.019 391.205 161.365V158.274C391.415 160.929 389.565 163.775 385.76 165.993Z" fill="url(#paint80_linear)"/>
<path opacity="0.2" d="M295.555 155.934C297.126 156.842 297.126 158.309 295.555 159.217C293.984 160.125 291.453 160.125 289.882 159.217C288.311 158.309 288.311 156.842 289.882 155.934C291.453 155.026 293.984 155.026 295.555 155.934Z" fill="#5CFFF3"/>
<path opacity="0.6" d="M304.387 150.818C305.958 151.726 305.958 153.193 304.387 154.101C302.816 155.009 300.285 155.009 298.714 154.101C297.143 153.193 297.143 151.726 298.714 150.818C300.285 149.928 302.816 149.928 304.387 150.818Z" fill="#5CFFF3"/>
<path d="M313.219 145.719C314.79 146.627 314.79 148.094 313.219 149.002C311.648 149.91 309.117 149.91 307.546 149.002C305.975 148.094 305.975 146.627 307.546 145.719C309.117 144.811 311.648 144.811 313.219 145.719Z" fill="#5CFFF3"/>
<path opacity="0.5" d="M301.053 191.626C298.261 191.626 295.59 191.068 293.583 189.915L237.816 157.698C235.791 156.528 234.674 154.869 234.674 153.053C234.674 150.905 236.245 148.758 239.003 147.151L292.396 116.313C297.44 113.397 305.103 113.083 309.501 115.632L365.268 147.849C367.293 149.019 368.41 150.678 368.41 152.494C368.41 154.642 366.839 156.79 364.081 158.396L310.688 189.234C307.948 190.806 304.422 191.626 301.053 191.626ZM302.048 115.039C298.906 115.039 295.573 115.807 292.972 117.309L239.579 148.146C237.188 149.526 235.809 151.324 235.809 153.053C235.809 154.45 236.716 155.742 238.392 156.703L294.159 188.92C298.226 191.277 305.399 190.963 310.13 188.239L363.523 157.401C365.914 156.022 367.293 154.223 367.293 152.494C367.293 151.097 366.385 149.805 364.709 148.845L308.943 116.628C307.11 115.562 304.631 115.039 302.048 115.039Z" fill="#0B0244"/>
<path opacity="0.5" d="M718.353 253.547V480.325L809.499 532.972V306.212L718.353 253.547Z" fill="#5CFFF3"/>
<path d="M808.172 295.595C804.839 295.595 801.644 294.931 799.253 293.552L695.906 233.85C693.549 232.488 692.258 230.602 692.258 228.524C692.258 226.027 694.108 223.53 697.355 221.661L797.804 163.635C803.844 160.143 813.025 159.776 818.278 162.797L921.626 222.499C923.982 223.861 925.274 225.747 925.274 227.825C925.274 230.305 923.424 232.819 920.177 234.688L819.727 292.714C816.428 294.617 812.187 295.595 808.172 295.595ZM799.567 292.993C804.647 295.927 813.548 295.543 819.413 292.155L919.863 234.129C922.9 232.383 924.645 230.078 924.645 227.825C924.645 225.974 923.459 224.281 921.312 223.041L817.964 163.339C812.885 160.405 803.983 160.789 798.119 164.177L697.669 222.203C694.632 223.949 692.886 226.254 692.886 228.524C692.886 230.375 694.073 232.069 696.22 233.308L799.567 292.993Z" fill="#6EE8FC"/>
<path opacity="0.3" d="M782.427 219.985C829.624 219.985 867.884 197.891 867.884 170.637C867.884 143.384 829.624 121.29 782.427 121.29C735.231 121.29 696.971 143.384 696.971 170.637C696.971 197.891 735.231 219.985 782.427 219.985Z" fill="url(#paint81_radial)"/>
<path opacity="0.3" d="M874.726 309.774C921.922 309.774 960.182 287.68 960.182 260.426C960.182 233.173 921.922 211.079 874.726 211.079C827.529 211.079 789.269 233.173 789.269 260.426C789.269 287.68 827.529 309.774 874.726 309.774Z" fill="url(#paint82_radial)"/>
<path opacity="0.3" d="M704.528 253.425C740.812 253.425 770.227 236.436 770.227 215.48C770.227 194.524 740.812 177.535 704.528 177.535C668.244 177.535 638.83 194.524 638.83 215.48C638.83 236.436 668.244 253.425 704.528 253.425Z" fill="url(#paint83_radial)"/>
<path d="M795.431 172.418C795.431 179.194 789.95 184.677 783.178 184.677C776.406 184.677 770.925 179.194 770.925 172.418C770.925 165.643 776.406 160.16 783.178 160.16C789.95 160.16 795.431 165.661 795.431 172.418Z" fill="url(#paint84_radial)"/>
<path d="M786.686 172.418C786.686 174.339 785.115 175.911 783.195 175.911C781.275 175.911 779.705 174.339 779.705 172.418C779.705 170.497 781.275 168.926 783.195 168.926C785.115 168.926 786.686 170.497 786.686 172.418Z" fill="#6EE8FC"/>
<path d="M704.528 230.2C711.296 230.2 716.781 224.712 716.781 217.942C716.781 211.172 711.296 205.684 704.528 205.684C697.761 205.684 692.275 211.172 692.275 217.942C692.275 224.712 697.761 230.2 704.528 230.2Z" fill="url(#paint85_radial)"/>
<path d="M708.019 217.942C708.019 219.862 706.448 221.434 704.528 221.434C702.608 221.434 701.038 219.862 701.038 217.942C701.038 216.021 702.608 214.449 704.528 214.449C706.466 214.449 708.019 216.003 708.019 217.942Z" fill="#6EE8FC"/>
<path d="M867.011 277.364C873.778 277.364 879.264 271.876 879.264 265.106C879.264 258.336 873.778 252.848 867.011 252.848C860.244 252.848 854.758 258.336 854.758 265.106C854.758 271.876 860.244 277.364 867.011 277.364Z" fill="url(#paint86_radial)"/>
<path d="M870.502 265.106C870.502 267.026 868.931 268.598 867.011 268.598C865.091 268.598 863.521 267.026 863.521 265.106C863.521 263.185 865.091 261.613 867.011 261.613C868.931 261.613 870.502 263.167 870.502 265.106Z" fill="#6EE8FC"/>
<path d="M889.719 263.972C896.486 263.972 901.972 258.483 901.972 251.713C901.972 244.943 896.486 239.455 889.719 239.455C882.952 239.455 877.466 244.943 877.466 251.713C877.466 258.483 882.952 263.972 889.719 263.972Z" fill="url(#paint87_radial)"/>
<path d="M893.21 251.713C893.21 253.634 891.639 255.205 889.719 255.205C887.799 255.205 886.229 253.634 886.229 251.713C886.229 249.792 887.799 248.221 889.719 248.221C891.639 248.221 893.21 249.792 893.21 251.713Z" fill="#6EE8FC"/>
<path d="M924.663 238.53C924.663 245.305 919.182 250.788 912.41 250.788C905.637 250.788 900.157 245.305 900.157 238.53C900.157 231.755 905.637 226.271 912.41 226.271C919.182 226.271 924.663 231.772 924.663 238.53Z" fill="url(#paint88_radial)"/>
<path d="M915.918 238.529C915.918 240.45 914.347 242.022 912.427 242.022C910.507 242.022 908.937 240.45 908.937 238.529C908.937 236.609 910.507 235.037 912.427 235.037C914.347 235.037 915.918 236.609 915.918 238.529Z" fill="#6EE8FC"/>
<path d="M808.172 269.525C804.839 269.525 801.645 268.844 799.271 267.482L695.923 207.779C693.567 206.417 692.275 204.531 692.275 202.453C692.275 199.974 694.126 197.459 697.372 195.591L797.822 137.565C803.861 134.073 813.042 133.706 818.296 136.727L921.643 196.429C924 197.791 925.291 199.677 925.291 201.755C925.291 204.252 923.441 206.749 920.195 208.618L819.745 266.643C816.428 268.547 812.187 269.525 808.172 269.525ZM799.567 266.923C804.647 269.856 813.548 269.472 819.413 266.085L919.863 208.059C922.9 206.313 924.645 204.008 924.645 201.738C924.645 199.887 923.459 198.193 921.312 196.953L817.964 137.251C812.885 134.317 803.983 134.701 798.119 138.089L697.669 196.115C694.632 197.861 692.886 200.166 692.886 202.419C692.886 204.27 694.073 205.963 696.22 207.203L799.567 266.923Z" fill="#6EE8FC"/>
<path opacity="0.3" d="M782.427 193.914C829.624 193.914 867.884 171.821 867.884 144.567C867.884 117.313 829.624 95.2197 782.427 95.2197C735.231 95.2197 696.971 117.313 696.971 144.567C696.971 171.821 735.231 193.914 782.427 193.914Z" fill="url(#paint89_radial)"/>
<path opacity="0.3" d="M874.726 283.703C921.922 283.703 960.182 261.61 960.182 234.356C960.182 207.102 921.922 185.009 874.726 185.009C827.529 185.009 789.269 207.102 789.269 234.356C789.269 261.61 827.529 283.703 874.726 283.703Z" fill="url(#paint90_radial)"/>
<path opacity="0.3" d="M704.528 227.337C740.812 227.337 770.227 210.348 770.227 189.392C770.227 168.436 740.812 151.447 704.528 151.447C668.244 151.447 638.83 168.436 638.83 189.392C638.83 210.348 668.244 227.337 704.528 227.337Z" fill="url(#paint91_radial)"/>
<path d="M795.431 146.348C795.431 153.123 789.95 158.606 783.178 158.606C776.406 158.606 770.925 153.123 770.925 146.348C770.925 139.573 776.406 134.09 783.178 134.09C789.95 134.09 795.431 139.573 795.431 146.348Z" fill="url(#paint92_radial)"/>
<path d="M786.686 146.348C786.686 148.269 785.115 149.84 783.195 149.84C781.275 149.84 779.705 148.269 779.705 146.348C779.705 144.427 781.275 142.855 783.195 142.855C785.115 142.855 786.686 144.41 786.686 146.348Z" fill="#6EE8FC"/>
<path d="M704.528 204.112C711.296 204.112 716.781 198.624 716.781 191.854C716.781 185.084 711.296 179.596 704.528 179.596C697.761 179.596 692.275 185.084 692.275 191.854C692.275 198.624 697.761 204.112 704.528 204.112Z" fill="url(#paint93_radial)"/>
<path d="M708.019 191.854C708.019 193.774 706.448 195.346 704.528 195.346C702.608 195.346 701.038 193.774 701.038 191.854C701.038 189.933 702.608 188.361 704.528 188.361C706.466 188.361 708.019 189.933 708.019 191.854Z" fill="#6EE8FC"/>
<path d="M867.011 251.277C873.778 251.277 879.264 245.789 879.264 239.019C879.264 232.249 873.778 226.761 867.011 226.761C860.244 226.761 854.758 232.249 854.758 239.019C854.758 245.789 860.244 251.277 867.011 251.277Z" fill="url(#paint94_radial)"/>
<path d="M870.502 239.019C870.502 240.94 868.931 242.511 867.011 242.511C865.091 242.511 863.521 240.94 863.521 239.019C863.521 237.098 865.091 235.526 867.011 235.526C868.931 235.526 870.502 237.098 870.502 239.019Z" fill="#6EE8FC"/>
<path d="M889.719 237.901C896.486 237.901 901.972 232.413 901.972 225.643C901.972 218.873 896.486 213.385 889.719 213.385C882.952 213.385 877.466 218.873 877.466 225.643C877.466 232.413 882.952 237.901 889.719 237.901Z" fill="url(#paint95_radial)"/>
<path d="M893.21 225.643C893.21 227.564 891.639 229.135 889.719 229.135C887.799 229.135 886.229 227.564 886.229 225.643C886.229 223.722 887.799 222.15 889.719 222.15C891.639 222.15 893.21 223.704 893.21 225.643Z" fill="#6EE8FC"/>
<path d="M924.663 212.459C924.663 219.235 919.182 224.718 912.41 224.718C905.637 224.718 900.157 219.235 900.157 212.459C900.157 205.684 905.637 200.201 912.41 200.201C919.182 200.201 924.663 205.684 924.663 212.459Z" fill="url(#paint96_radial)"/>
<path d="M915.918 212.459C915.918 214.38 914.347 215.952 912.427 215.952C910.507 215.952 908.937 214.38 908.937 212.459C908.937 210.538 910.507 208.967 912.427 208.967C914.347 208.967 915.918 210.521 915.918 212.459Z" fill="#6EE8FC"/>
<path d="M302.135 198.629C298.802 198.629 295.607 197.948 293.234 196.586L189.886 136.884C187.53 135.522 186.238 133.636 186.238 131.558C186.238 129.061 188.088 126.564 191.335 124.695L291.785 66.6695C297.824 63.1772 307.005 62.8105 312.259 65.8314L415.606 125.534C417.963 126.896 419.254 128.782 419.254 130.859C419.254 133.357 417.404 135.854 414.158 137.722L313.708 195.748C310.391 197.651 306.15 198.629 302.135 198.629ZM303.34 64.417C299.43 64.417 295.311 65.3599 292.099 67.2283L191.649 125.254C188.612 127 186.867 129.305 186.867 131.575C186.867 133.426 188.054 135.12 190.2 136.36L293.548 196.062C298.627 198.996 307.529 198.612 313.393 195.224L413.843 137.198C416.88 135.452 418.626 133.147 418.626 130.877C418.626 129.026 417.439 127.332 415.292 126.092L311.945 66.3902C309.641 65.0631 306.551 64.417 303.34 64.417Z" fill="#6EE8FC"/>
<path opacity="0.3" d="M276.39 123.036C323.587 123.036 361.847 100.943 361.847 73.6891C361.847 46.4353 323.587 24.3418 276.39 24.3418C229.194 24.3418 190.934 46.4353 190.934 73.6891C190.934 100.943 229.194 123.036 276.39 123.036Z" fill="url(#paint97_radial)"/>
<path opacity="0.3" d="M368.689 212.826C415.885 212.826 454.146 190.732 454.146 163.478C454.146 136.224 415.885 114.131 368.689 114.131C321.493 114.131 283.232 136.224 283.232 163.478C283.232 190.732 321.493 212.826 368.689 212.826Z" fill="url(#paint98_radial)"/>
<path opacity="0.3" d="M198.491 156.459C234.775 156.459 264.19 139.47 264.19 118.514C264.19 97.5578 234.775 80.5693 198.491 80.5693C162.207 80.5693 132.793 97.5578 132.793 118.514C132.793 139.47 162.207 156.459 198.491 156.459Z" fill="url(#paint99_radial)"/>
<path d="M277.141 87.7108C283.908 87.7108 289.394 82.2226 289.394 75.4526C289.394 68.6825 283.908 63.1943 277.141 63.1943C270.374 63.1943 264.888 68.6825 264.888 75.4526C264.888 82.2226 270.374 87.7108 277.141 87.7108Z" fill="url(#paint100_radial)"/>
<path d="M280.649 75.4523C280.649 77.3732 279.078 78.9447 277.158 78.9447C275.238 78.9447 273.667 77.3732 273.667 75.4523C273.667 73.5315 275.238 71.96 277.158 71.96C279.078 71.96 280.649 73.5315 280.649 75.4523Z" fill="#6EE8FC"/>
<path d="M198.491 133.234C205.258 133.234 210.744 127.746 210.744 120.976C210.744 114.206 205.258 108.718 198.491 108.718C191.724 108.718 186.238 114.206 186.238 120.976C186.238 127.746 191.724 133.234 198.491 133.234Z" fill="url(#paint101_radial)"/>
<path d="M201.982 120.976C201.982 122.897 200.411 124.468 198.491 124.468C196.571 124.468 195 122.897 195 120.976C195 119.055 196.571 117.483 198.491 117.483C200.429 117.483 201.982 119.055 201.982 120.976Z" fill="#6EE8FC"/>
<path d="M373.227 168.141C373.227 174.916 367.747 180.399 360.974 180.399C354.202 180.399 348.721 174.916 348.721 168.141C348.721 161.366 354.202 155.883 360.974 155.883C367.747 155.883 373.227 161.366 373.227 168.141Z" fill="url(#paint102_radial)"/>
<path d="M364.465 168.141C364.465 170.062 362.894 171.633 360.974 171.633C359.054 171.633 357.483 170.062 357.483 168.141C357.483 166.22 359.054 164.648 360.974 164.648C362.912 164.648 364.465 166.203 364.465 168.141Z" fill="#6EE8FC"/>
<path opacity="0.5" d="M408.101 73.166V299.944L499.247 352.591V125.814L408.101 73.166Z" fill="#5CFFF3"/>
<defs>
<radialGradient id="paint0_radial" cx="0" cy="0" r="1" gradientUnits="userSpaceOnUse" gradientTransform="translate(526.998 342.312) scale(565.3 379.762)">
<stop stop-color="#42E8E0"/>
<stop offset="0.0759" stop-color="#3CC8CC"/>
<stop offset="0.2218" stop-color="#3190AA"/>
<stop offset="0.3636" stop-color="#28618E"/>
<stop offset="0.4979" stop-color="#213C78"/>
<stop offset="0.6227" stop-color="#1C2268"/>
<stop offset="0.7346" stop-color="#19135E"/>
<stop offset="0.8226" stop-color="#180D5B"/>
</radialGradient>
<radialGradient id="paint1_radial" cx="0" cy="0" r="1" gradientUnits="userSpaceOnUse" gradientTransform="translate(422.042 320.777) rotate(30.0114) scale(188.551 163.328)">
<stop stop-color="#42E8E0"/>
<stop offset="0.0225" stop-color="#3FD8D7"/>
<stop offset="0.0983" stop-color="#36A9BA"/>
<stop offset="0.1786" stop-color="#2E7FA0"/>
<stop offset="0.2622" stop-color="#275C8B"/>
<stop offset="0.35" stop-color="#223F79"/>
<stop offset="0.4433" stop-color="#1D296C"/>
<stop offset="0.5449" stop-color="#1A1962"/>
<stop offset="0.6608" stop-color="#19105D"/>
<stop offset="0.8226" stop-color="#180D5B"/>
</radialGradient>
<radialGradient id="paint2_radial" cx="0" cy="0" r="1" gradientUnits="userSpaceOnUse" gradientTransform="translate(732.307 508.874) rotate(30.0114) scale(188.552 163.328)">
<stop stop-color="#42E8E0"/>
<stop offset="0.0225" stop-color="#3FD8D7"/>
<stop offset="0.0983" stop-color="#36A9BA"/>
<stop offset="0.1786" stop-color="#2E7FA0"/>
<stop offset="0.2622" stop-color="#275C8B"/>
<stop offset="0.35" stop-color="#223F79"/>
<stop offset="0.4433" stop-color="#1D296C"/>
<stop offset="0.5449" stop-color="#1A1962"/>
<stop offset="0.6608" stop-color="#19105D"/>
<stop offset="0.8226" stop-color="#180D5B"/>
</radialGradient>
<linearGradient id="paint3_linear" x1="619.912" y1="350.997" x2="432.506" y2="248.265" gradientUnits="userSpaceOnUse">
<stop stop-color="#180D5B"/>
<stop offset="0.095" stop-color="#1A1660"/>
<stop offset="0.2466" stop-color="#1E2D6E"/>
<stop offset="0.436" stop-color="#255385"/>
<stop offset="0.6555" stop-color="#2F87A5"/>
<stop offset="0.8978" stop-color="#3CCACE"/>
<stop offset="1" stop-color="#42E8E0"/>
</linearGradient>
<linearGradient id="paint4_linear" x1="468.949" y1="318.693" x2="599.259" y2="318.693" gradientUnits="userSpaceOnUse">
<stop stop-color="#2B237C"/>
<stop offset="1" stop-color="#180D5B"/>
</linearGradient>
<linearGradient id="paint5_linear" x1="508.786" y1="350.036" x2="390.078" y2="282.583" gradientUnits="userSpaceOnUse">
<stop stop-color="#180D5B"/>
<stop offset="0.0951" stop-color="#1A1560"/>
<stop offset="0.2465" stop-color="#1E2D6E"/>
<stop offset="0.2819" stop-color="#1F3372"/>
<stop offset="0.3779" stop-color="#22447C"/>
<stop offset="0.5681" stop-color="#2B7097"/>
<stop offset="0.832" stop-color="#39B7C2"/>
<stop offset="1" stop-color="#42E8E0"/>
</linearGradient>
<linearGradient id="paint6_linear" x1="560.027" y1="292.473" x2="407.099" y2="193.187" gradientUnits="userSpaceOnUse">
<stop stop-color="#180D5B"/>
<stop offset="0.095" stop-color="#1A1660"/>
<stop offset="0.2466" stop-color="#1E2D6E"/>
<stop offset="0.436" stop-color="#255385"/>
<stop offset="0.6555" stop-color="#2F87A5"/>
<stop offset="0.8978" stop-color="#3CCACE"/>
<stop offset="1" stop-color="#42E8E0"/>
</linearGradient>
<linearGradient id="paint7_linear" x1="468.949" y1="286.878" x2="599.259" y2="286.878" gradientUnits="userSpaceOnUse">
<stop stop-color="#2B237C"/>
<stop offset="1" stop-color="#180D5B"/>
</linearGradient>
<linearGradient id="paint8_linear" x1="493.602" y1="309.399" x2="386.771" y2="249.194" gradientUnits="userSpaceOnUse">
<stop stop-color="#180D5B"/>
<stop offset="0.0951" stop-color="#1A1560"/>
<stop offset="0.2465" stop-color="#1E2D6E"/>
<stop offset="0.2819" stop-color="#1F3372"/>
<stop offset="0.3779" stop-color="#22447C"/>
<stop offset="0.5681" stop-color="#2B7097"/>
<stop offset="0.832" stop-color="#39B7C2"/>
<stop offset="1" stop-color="#42E8E0"/>
</linearGradient>
<linearGradient id="paint9_linear" x1="529.629" y1="259.843" x2="406.709" y2="232.097" gradientUnits="userSpaceOnUse">
<stop stop-color="#180D5B"/>
<stop offset="0.095" stop-color="#1A1660"/>
<stop offset="0.2466" stop-color="#1E2D6E"/>
<stop offset="0.436" stop-color="#255385"/>
<stop offset="0.6555" stop-color="#2F87A5"/>
<stop offset="0.8978" stop-color="#3CCACE"/>
<stop offset="1" stop-color="#42E8E0"/>
</linearGradient>
<linearGradient id="paint10_linear" x1="619.912" y1="291.06" x2="432.506" y2="188.328" gradientUnits="userSpaceOnUse">
<stop stop-color="#180D5B"/>
<stop offset="0.095" stop-color="#1A1660"/>
<stop offset="0.2466" stop-color="#1E2D6E"/>
<stop offset="0.436" stop-color="#255385"/>
<stop offset="0.6555" stop-color="#2F87A5"/>
<stop offset="0.8978" stop-color="#3CCACE"/>
<stop offset="1" stop-color="#42E8E0"/>
</linearGradient>
<linearGradient id="paint11_linear" x1="468.949" y1="258.756" x2="599.259" y2="258.756" gradientUnits="userSpaceOnUse">
<stop stop-color="#2B237C"/>
<stop offset="1" stop-color="#180D5B"/>
</linearGradient>
<linearGradient id="paint12_linear" x1="508.786" y1="290.099" x2="390.078" y2="222.646" gradientUnits="userSpaceOnUse">
<stop stop-color="#180D5B"/>
<stop offset="0.0951" stop-color="#1A1560"/>
<stop offset="0.2465" stop-color="#1E2D6E"/>
<stop offset="0.2819" stop-color="#1F3372"/>
<stop offset="0.3779" stop-color="#22447C"/>
<stop offset="0.5681" stop-color="#2B7097"/>
<stop offset="0.832" stop-color="#39B7C2"/>
<stop offset="1" stop-color="#42E8E0"/>
</linearGradient>
<linearGradient id="paint13_linear" x1="560.027" y1="232.535" x2="407.099" y2="133.25" gradientUnits="userSpaceOnUse">
<stop stop-color="#180D5B"/>
<stop offset="0.095" stop-color="#1A1660"/>
<stop offset="0.2466" stop-color="#1E2D6E"/>
<stop offset="0.436" stop-color="#255385"/>
<stop offset="0.6555" stop-color="#2F87A5"/>
<stop offset="0.8978" stop-color="#3CCACE"/>
<stop offset="1" stop-color="#42E8E0"/>
</linearGradient>
<linearGradient id="paint14_linear" x1="468.949" y1="226.941" x2="599.259" y2="226.941" gradientUnits="userSpaceOnUse">
<stop stop-color="#2B237C"/>
<stop offset="1" stop-color="#180D5B"/>
</linearGradient>
<linearGradient id="paint15_linear" x1="493.602" y1="249.462" x2="386.771" y2="189.257" gradientUnits="userSpaceOnUse">
<stop stop-color="#180D5B"/>
<stop offset="0.0951" stop-color="#1A1560"/>
<stop offset="0.2465" stop-color="#1E2D6E"/>
<stop offset="0.2819" stop-color="#1F3372"/>
<stop offset="0.3779" stop-color="#22447C"/>
<stop offset="0.5681" stop-color="#2B7097"/>
<stop offset="0.832" stop-color="#39B7C2"/>
<stop offset="1" stop-color="#42E8E0"/>
</linearGradient>
<linearGradient id="paint16_linear" x1="529.629" y1="199.906" x2="406.709" y2="172.16" gradientUnits="userSpaceOnUse">
<stop stop-color="#180D5B"/>
<stop offset="0.095" stop-color="#1A1660"/>
<stop offset="0.2466" stop-color="#1E2D6E"/>
<stop offset="0.436" stop-color="#255385"/>
<stop offset="0.6555" stop-color="#2F87A5"/>
<stop offset="0.8978" stop-color="#3CCACE"/>
<stop offset="1" stop-color="#42E8E0"/>
</linearGradient>
<linearGradient id="paint17_linear" x1="619.912" y1="231.122" x2="432.506" y2="128.391" gradientUnits="userSpaceOnUse">
<stop stop-color="#180D5B"/>
<stop offset="0.095" stop-color="#1A1660"/>
<stop offset="0.2466" stop-color="#1E2D6E"/>
<stop offset="0.436" stop-color="#255385"/>
<stop offset="0.6555" stop-color="#2F87A5"/>
<stop offset="0.8978" stop-color="#3CCACE"/>
<stop offset="1" stop-color="#42E8E0"/>
</linearGradient>
<linearGradient id="paint18_linear" x1="468.949" y1="198.819" x2="599.259" y2="198.819" gradientUnits="userSpaceOnUse">
<stop stop-color="#2B237C"/>
<stop offset="1" stop-color="#180D5B"/>
</linearGradient>
<linearGradient id="paint19_linear" x1="508.786" y1="230.162" x2="390.078" y2="162.709" gradientUnits="userSpaceOnUse">
<stop stop-color="#180D5B"/>
<stop offset="0.0951" stop-color="#1A1560"/>
<stop offset="0.2465" stop-color="#1E2D6E"/>
<stop offset="0.2819" stop-color="#1F3372"/>
<stop offset="0.3779" stop-color="#22447C"/>
<stop offset="0.5681" stop-color="#2B7097"/>
<stop offset="0.832" stop-color="#39B7C2"/>
<stop offset="1" stop-color="#42E8E0"/>
</linearGradient>
<linearGradient id="paint20_linear" x1="560.027" y1="172.598" x2="407.099" y2="73.3128" gradientUnits="userSpaceOnUse">
<stop stop-color="#180D5B"/>
<stop offset="0.095" stop-color="#1A1660"/>
<stop offset="0.2466" stop-color="#1E2D6E"/>
<stop offset="0.436" stop-color="#255385"/>
<stop offset="0.6555" stop-color="#2F87A5"/>
<stop offset="0.8978" stop-color="#3CCACE"/>
<stop offset="1" stop-color="#42E8E0"/>
</linearGradient>
<linearGradient id="paint21_linear" x1="468.949" y1="167.004" x2="599.259" y2="167.004" gradientUnits="userSpaceOnUse">
<stop stop-color="#2B237C"/>
<stop offset="1" stop-color="#180D5B"/>
</linearGradient>
<linearGradient id="paint22_linear" x1="493.602" y1="189.525" x2="386.771" y2="129.32" gradientUnits="userSpaceOnUse">
<stop stop-color="#180D5B"/>
<stop offset="0.0951" stop-color="#1A1560"/>
<stop offset="0.2465" stop-color="#1E2D6E"/>
<stop offset="0.2819" stop-color="#1F3372"/>
<stop offset="0.3779" stop-color="#22447C"/>
<stop offset="0.5681" stop-color="#2B7097"/>
<stop offset="0.832" stop-color="#39B7C2"/>
<stop offset="1" stop-color="#42E8E0"/>
</linearGradient>
<linearGradient id="paint23_linear" x1="529.629" y1="139.969" x2="406.709" y2="112.223" gradientUnits="userSpaceOnUse">
<stop stop-color="#180D5B"/>
<stop offset="0.095" stop-color="#1A1660"/>
<stop offset="0.2466" stop-color="#1E2D6E"/>
<stop offset="0.436" stop-color="#255385"/>
<stop offset="0.6555" stop-color="#2F87A5"/>
<stop offset="0.8978" stop-color="#3CCACE"/>
<stop offset="1" stop-color="#42E8E0"/>
</linearGradient>
<linearGradient id="paint24_linear" x1="619.912" y1="171.184" x2="432.506" y2="68.4525" gradientUnits="userSpaceOnUse">
<stop stop-color="#180D5B"/>
<stop offset="0.095" stop-color="#1A1660"/>
<stop offset="0.2466" stop-color="#1E2D6E"/>
<stop offset="0.436" stop-color="#255385"/>
<stop offset="0.6555" stop-color="#2F87A5"/>
<stop offset="0.8978" stop-color="#3CCACE"/>
<stop offset="1" stop-color="#42E8E0"/>
</linearGradient>
<linearGradient id="paint25_linear" x1="468.949" y1="138.881" x2="599.259" y2="138.881" gradientUnits="userSpaceOnUse">
<stop stop-color="#2B237C"/>
<stop offset="1" stop-color="#180D5B"/>
</linearGradient>
<linearGradient id="paint26_linear" x1="508.786" y1="170.224" x2="390.078" y2="102.771" gradientUnits="userSpaceOnUse">
<stop stop-color="#180D5B"/>
<stop offset="0.0951" stop-color="#1A1560"/>
<stop offset="0.2465" stop-color="#1E2D6E"/>
<stop offset="0.2819" stop-color="#1F3372"/>
<stop offset="0.3779" stop-color="#22447C"/>
<stop offset="0.5681" stop-color="#2B7097"/>
<stop offset="0.832" stop-color="#39B7C2"/>
<stop offset="1" stop-color="#42E8E0"/>
</linearGradient>
<linearGradient id="paint27_linear" x1="560.027" y1="112.66" x2="407.099" y2="13.3747" gradientUnits="userSpaceOnUse">
<stop stop-color="#180D5B"/>
<stop offset="0.095" stop-color="#1A1660"/>
<stop offset="0.2466" stop-color="#1E2D6E"/>
<stop offset="0.436" stop-color="#255385"/>
<stop offset="0.6555" stop-color="#2F87A5"/>
<stop offset="0.8978" stop-color="#3CCACE"/>
<stop offset="1" stop-color="#42E8E0"/>
</linearGradient>
<linearGradient id="paint28_linear" x1="468.949" y1="107.065" x2="599.259" y2="107.065" gradientUnits="userSpaceOnUse">
<stop stop-color="#2B237C"/>
<stop offset="1" stop-color="#180D5B"/>
</linearGradient>
<linearGradient id="paint29_linear" x1="493.602" y1="129.586" x2="386.771" y2="69.3813" gradientUnits="userSpaceOnUse">
<stop stop-color="#180D5B"/>
<stop offset="0.0951" stop-color="#1A1560"/>
<stop offset="0.2465" stop-color="#1E2D6E"/>
<stop offset="0.2819" stop-color="#1F3372"/>
<stop offset="0.3779" stop-color="#22447C"/>
<stop offset="0.5681" stop-color="#2B7097"/>
<stop offset="0.832" stop-color="#39B7C2"/>
<stop offset="1" stop-color="#42E8E0"/>
</linearGradient>
<linearGradient id="paint30_linear" x1="529.629" y1="80.0305" x2="406.709" y2="52.2849" gradientUnits="userSpaceOnUse">
<stop stop-color="#180D5B"/>
<stop offset="0.095" stop-color="#1A1660"/>
<stop offset="0.2466" stop-color="#1E2D6E"/>
<stop offset="0.436" stop-color="#255385"/>
<stop offset="0.6555" stop-color="#2F87A5"/>
<stop offset="0.8978" stop-color="#3CCACE"/>
<stop offset="1" stop-color="#42E8E0"/>
</linearGradient>
<linearGradient id="paint31_linear" x1="930.162" y1="531.382" x2="742.757" y2="428.651" gradientUnits="userSpaceOnUse">
<stop stop-color="#180D5B"/>
<stop offset="0.095" stop-color="#1A1660"/>
<stop offset="0.2466" stop-color="#1E2D6E"/>
<stop offset="0.436" stop-color="#255385"/>
<stop offset="0.6555" stop-color="#2F87A5"/>
<stop offset="0.8978" stop-color="#3CCACE"/>
<stop offset="1" stop-color="#42E8E0"/>
</linearGradient>
<linearGradient id="paint32_linear" x1="779.2" y1="499.079" x2="909.51" y2="499.079" gradientUnits="userSpaceOnUse">
<stop stop-color="#2B237C"/>
<stop offset="1" stop-color="#180D5B"/>
</linearGradient>
<linearGradient id="paint33_linear" x1="819.036" y1="530.422" x2="700.328" y2="462.969" gradientUnits="userSpaceOnUse">
<stop stop-color="#180D5B"/>
<stop offset="0.0951" stop-color="#1A1560"/>
<stop offset="0.2465" stop-color="#1E2D6E"/>
<stop offset="0.2819" stop-color="#1F3372"/>
<stop offset="0.3779" stop-color="#22447C"/>
<stop offset="0.5681" stop-color="#2B7097"/>
<stop offset="0.832" stop-color="#39B7C2"/>
<stop offset="1" stop-color="#42E8E0"/>
</linearGradient>
<linearGradient id="paint34_linear" x1="870.277" y1="472.858" x2="717.349" y2="373.573" gradientUnits="userSpaceOnUse">
<stop stop-color="#180D5B"/>
<stop offset="0.095" stop-color="#1A1660"/>
<stop offset="0.2466" stop-color="#1E2D6E"/>
<stop offset="0.436" stop-color="#255385"/>
<stop offset="0.6555" stop-color="#2F87A5"/>
<stop offset="0.8978" stop-color="#3CCACE"/>
<stop offset="1" stop-color="#42E8E0"/>
</linearGradient>
<linearGradient id="paint35_linear" x1="779.2" y1="467.264" x2="909.51" y2="467.264" gradientUnits="userSpaceOnUse">
<stop stop-color="#2B237C"/>
<stop offset="1" stop-color="#180D5B"/>
</linearGradient>
<linearGradient id="paint36_linear" x1="803.852" y1="489.785" x2="697.022" y2="429.58" gradientUnits="userSpaceOnUse">
<stop stop-color="#180D5B"/>
<stop offset="0.0951" stop-color="#1A1560"/>
<stop offset="0.2465" stop-color="#1E2D6E"/>
<stop offset="0.2819" stop-color="#1F3372"/>
<stop offset="0.3779" stop-color="#22447C"/>
<stop offset="0.5681" stop-color="#2B7097"/>
<stop offset="0.832" stop-color="#39B7C2"/>
<stop offset="1" stop-color="#42E8E0"/>
</linearGradient>
<linearGradient id="paint37_linear" x1="839.88" y1="440.229" x2="716.96" y2="412.483" gradientUnits="userSpaceOnUse">
<stop stop-color="#180D5B"/>
<stop offset="0.095" stop-color="#1A1660"/>
<stop offset="0.2466" stop-color="#1E2D6E"/>
<stop offset="0.436" stop-color="#255385"/>
<stop offset="0.6555" stop-color="#2F87A5"/>
<stop offset="0.8978" stop-color="#3CCACE"/>
<stop offset="1" stop-color="#42E8E0"/>
</linearGradient>
<linearGradient id="paint38_linear" x1="930.162" y1="471.444" x2="742.757" y2="368.712" gradientUnits="userSpaceOnUse">
<stop stop-color="#180D5B"/>
<stop offset="0.095" stop-color="#1A1660"/>
<stop offset="0.2466" stop-color="#1E2D6E"/>
<stop offset="0.436" stop-color="#255385"/>
<stop offset="0.6555" stop-color="#2F87A5"/>
<stop offset="0.8978" stop-color="#3CCACE"/>
<stop offset="1" stop-color="#42E8E0"/>
</linearGradient>
<linearGradient id="paint39_linear" x1="779.2" y1="439.141" x2="909.51" y2="439.141" gradientUnits="userSpaceOnUse">
<stop stop-color="#2B237C"/>
<stop offset="1" stop-color="#180D5B"/>
</linearGradient>
<linearGradient id="paint40_linear" x1="819.036" y1="470.484" x2="700.328" y2="403.031" gradientUnits="userSpaceOnUse">
<stop stop-color="#180D5B"/>
<stop offset="0.0951" stop-color="#1A1560"/>
<stop offset="0.2465" stop-color="#1E2D6E"/>
<stop offset="0.2819" stop-color="#1F3372"/>
<stop offset="0.3779" stop-color="#22447C"/>
<stop offset="0.5681" stop-color="#2B7097"/>
<stop offset="0.832" stop-color="#39B7C2"/>
<stop offset="1" stop-color="#42E8E0"/>
</linearGradient>
<linearGradient id="paint41_linear" x1="870.277" y1="412.92" x2="717.349" y2="313.635" gradientUnits="userSpaceOnUse">
<stop stop-color="#180D5B"/>
<stop offset="0.095" stop-color="#1A1660"/>
<stop offset="0.2466" stop-color="#1E2D6E"/>
<stop offset="0.436" stop-color="#255385"/>
<stop offset="0.6555" stop-color="#2F87A5"/>
<stop offset="0.8978" stop-color="#3CCACE"/>
<stop offset="1" stop-color="#42E8E0"/>
</linearGradient>
<linearGradient id="paint42_linear" x1="779.2" y1="407.325" x2="909.51" y2="407.325" gradientUnits="userSpaceOnUse">
<stop stop-color="#2B237C"/>
<stop offset="1" stop-color="#180D5B"/>
</linearGradient>
<linearGradient id="paint43_linear" x1="803.852" y1="429.846" x2="697.022" y2="369.641" gradientUnits="userSpaceOnUse">
<stop stop-color="#180D5B"/>
<stop offset="0.0951" stop-color="#1A1560"/>
<stop offset="0.2465" stop-color="#1E2D6E"/>
<stop offset="0.2819" stop-color="#1F3372"/>
<stop offset="0.3779" stop-color="#22447C"/>
<stop offset="0.5681" stop-color="#2B7097"/>
<stop offset="0.832" stop-color="#39B7C2"/>
<stop offset="1" stop-color="#42E8E0"/>
</linearGradient>
<linearGradient id="paint44_linear" x1="839.88" y1="380.29" x2="716.96" y2="352.545" gradientUnits="userSpaceOnUse">
<stop stop-color="#180D5B"/>
<stop offset="0.095" stop-color="#1A1660"/>
<stop offset="0.2466" stop-color="#1E2D6E"/>
<stop offset="0.436" stop-color="#255385"/>
<stop offset="0.6555" stop-color="#2F87A5"/>
<stop offset="0.8978" stop-color="#3CCACE"/>
<stop offset="1" stop-color="#42E8E0"/>
</linearGradient>
<linearGradient id="paint45_linear" x1="930.162" y1="411.506" x2="742.757" y2="308.774" gradientUnits="userSpaceOnUse">
<stop stop-color="#180D5B"/>
<stop offset="0.095" stop-color="#1A1660"/>
<stop offset="0.2466" stop-color="#1E2D6E"/>
<stop offset="0.436" stop-color="#255385"/>
<stop offset="0.6555" stop-color="#2F87A5"/>
<stop offset="0.8978" stop-color="#3CCACE"/>
<stop offset="1" stop-color="#42E8E0"/>
</linearGradient>
<linearGradient id="paint46_linear" x1="779.2" y1="379.203" x2="909.51" y2="379.203" gradientUnits="userSpaceOnUse">
<stop stop-color="#2B237C"/>
<stop offset="1" stop-color="#180D5B"/>
</linearGradient>
<linearGradient id="paint47_linear" x1="819.036" y1="410.546" x2="700.328" y2="343.093" gradientUnits="userSpaceOnUse">
<stop stop-color="#180D5B"/>
<stop offset="0.0951" stop-color="#1A1560"/>
<stop offset="0.2465" stop-color="#1E2D6E"/>
<stop offset="0.2819" stop-color="#1F3372"/>
<stop offset="0.3779" stop-color="#22447C"/>
<stop offset="0.5681" stop-color="#2B7097"/>
<stop offset="0.832" stop-color="#39B7C2"/>
<stop offset="1" stop-color="#42E8E0"/>
</linearGradient>
<linearGradient id="paint48_linear" x1="870.277" y1="352.982" x2="717.349" y2="253.697" gradientUnits="userSpaceOnUse">
<stop stop-color="#180D5B"/>
<stop offset="0.095" stop-color="#1A1660"/>
<stop offset="0.2466" stop-color="#1E2D6E"/>
<stop offset="0.436" stop-color="#255385"/>
<stop offset="0.6555" stop-color="#2F87A5"/>
<stop offset="0.8978" stop-color="#3CCACE"/>
<stop offset="1" stop-color="#42E8E0"/>
</linearGradient>
<linearGradient id="paint49_linear" x1="779.2" y1="347.387" x2="909.51" y2="347.387" gradientUnits="userSpaceOnUse">
<stop stop-color="#2B237C"/>
<stop offset="1" stop-color="#180D5B"/>
</linearGradient>
<linearGradient id="paint50_linear" x1="803.852" y1="369.908" x2="697.022" y2="309.703" gradientUnits="userSpaceOnUse">
<stop stop-color="#180D5B"/>
<stop offset="0.0951" stop-color="#1A1560"/>
<stop offset="0.2465" stop-color="#1E2D6E"/>
<stop offset="0.2819" stop-color="#1F3372"/>
<stop offset="0.3779" stop-color="#22447C"/>
<stop offset="0.5681" stop-color="#2B7097"/>
<stop offset="0.832" stop-color="#39B7C2"/>
<stop offset="1" stop-color="#42E8E0"/>
</linearGradient>
<linearGradient id="paint51_linear" x1="839.88" y1="320.352" x2="716.96" y2="292.607" gradientUnits="userSpaceOnUse">
<stop stop-color="#180D5B"/>
<stop offset="0.095" stop-color="#1A1660"/>
<stop offset="0.2466" stop-color="#1E2D6E"/>
<stop offset="0.436" stop-color="#255385"/>
<stop offset="0.6555" stop-color="#2F87A5"/>
<stop offset="0.8978" stop-color="#3CCACE"/>
<stop offset="1" stop-color="#42E8E0"/>
</linearGradient>
<linearGradient id="paint52_linear" x1="930.162" y1="351.569" x2="742.757" y2="248.837" gradientUnits="userSpaceOnUse">
<stop stop-color="#180D5B"/>
<stop offset="0.095" stop-color="#1A1660"/>
<stop offset="0.2466" stop-color="#1E2D6E"/>
<stop offset="0.436" stop-color="#255385"/>
<stop offset="0.6555" stop-color="#2F87A5"/>
<stop offset="0.8978" stop-color="#3CCACE"/>
<stop offset="1" stop-color="#42E8E0"/>
</linearGradient>
<linearGradient id="paint53_linear" x1="779.2" y1="319.266" x2="909.51" y2="319.266" gradientUnits="userSpaceOnUse">
<stop stop-color="#2B237C"/>
<stop offset="1" stop-color="#180D5B"/>
</linearGradient>
<linearGradient id="paint54_linear" x1="819.036" y1="350.608" x2="700.328" y2="283.155" gradientUnits="userSpaceOnUse">
<stop stop-color="#180D5B"/>
<stop offset="0.0951" stop-color="#1A1560"/>
<stop offset="0.2465" stop-color="#1E2D6E"/>
<stop offset="0.2819" stop-color="#1F3372"/>
<stop offset="0.3779" stop-color="#22447C"/>
<stop offset="0.5681" stop-color="#2B7097"/>
<stop offset="0.832" stop-color="#39B7C2"/>
<stop offset="1" stop-color="#42E8E0"/>
</linearGradient>
<linearGradient id="paint55_linear" x1="870.277" y1="293.045" x2="717.349" y2="193.759" gradientUnits="userSpaceOnUse">
<stop stop-color="#180D5B"/>
<stop offset="0.095" stop-color="#1A1660"/>
<stop offset="0.2466" stop-color="#1E2D6E"/>
<stop offset="0.436" stop-color="#255385"/>
<stop offset="0.6555" stop-color="#2F87A5"/>
<stop offset="0.8978" stop-color="#3CCACE"/>
<stop offset="1" stop-color="#42E8E0"/>
</linearGradient>
<linearGradient id="paint56_linear" x1="779.2" y1="287.45" x2="909.51" y2="287.45" gradientUnits="userSpaceOnUse">
<stop stop-color="#2B237C"/>
<stop offset="1" stop-color="#180D5B"/>
</linearGradient>
<linearGradient id="paint57_linear" x1="803.852" y1="309.971" x2="697.022" y2="249.766" gradientUnits="userSpaceOnUse">
<stop stop-color="#180D5B"/>
<stop offset="0.0951" stop-color="#1A1560"/>
<stop offset="0.2465" stop-color="#1E2D6E"/>
<stop offset="0.2819" stop-color="#1F3372"/>
<stop offset="0.3779" stop-color="#22447C"/>
<stop offset="0.5681" stop-color="#2B7097"/>
<stop offset="0.832" stop-color="#39B7C2"/>
<stop offset="1" stop-color="#42E8E0"/>
</linearGradient>
<linearGradient id="paint58_linear" x1="839.88" y1="260.415" x2="716.96" y2="232.67" gradientUnits="userSpaceOnUse">
<stop stop-color="#180D5B"/>
<stop offset="0.095" stop-color="#1A1660"/>
<stop offset="0.2466" stop-color="#1E2D6E"/>
<stop offset="0.436" stop-color="#255385"/>
<stop offset="0.6555" stop-color="#2F87A5"/>
<stop offset="0.8978" stop-color="#3CCACE"/>
<stop offset="1" stop-color="#42E8E0"/>
</linearGradient>
<radialGradient id="paint59_radial" cx="0" cy="0" r="1" gradientUnits="userSpaceOnUse" gradientTransform="translate(411.89 542.258) rotate(30.0114) scale(188.551 163.328)">
<stop stop-color="#42E8E0"/>
<stop offset="0.0225" stop-color="#3FD8D7"/>
<stop offset="0.0983" stop-color="#36A9BA"/>
<stop offset="0.1786" stop-color="#2E7FA0"/>
<stop offset="0.2622" stop-color="#275C8B"/>
<stop offset="0.35" stop-color="#223F79"/>
<stop offset="0.4433" stop-color="#1D296C"/>
<stop offset="0.5449" stop-color="#1A1962"/>
<stop offset="0.6608" stop-color="#19105D"/>
<stop offset="0.8226" stop-color="#180D5B"/>
</radialGradient>
<linearGradient id="paint60_linear" x1="352.711" y1="504.851" x2="532.044" y2="504.851" gradientUnits="userSpaceOnUse">
<stop stop-color="#42E8E0"/>
<stop offset="0.1022" stop-color="#3CCACE"/>
<stop offset="0.3445" stop-color="#2F87A5"/>
<stop offset="0.564" stop-color="#255385"/>
<stop offset="0.7534" stop-color="#1E2D6E"/>
<stop offset="0.905" stop-color="#1A1660"/>
<stop offset="1" stop-color="#180D5B"/>
</linearGradient>
<linearGradient id="paint61_linear" x1="482.018" y1="504.847" x2="571.685" y2="504.847" gradientUnits="userSpaceOnUse">
<stop stop-color="#2B237C"/>
<stop offset="1" stop-color="#180D5B"/>
</linearGradient>
<linearGradient id="paint62_linear" x1="392.35" y1="485.031" x2="571.696" y2="485.031" gradientUnits="userSpaceOnUse">
<stop stop-color="#42E8E0"/>
<stop offset="0.1022" stop-color="#3CCACE"/>
<stop offset="0.3445" stop-color="#2F87A5"/>
<stop offset="0.564" stop-color="#255385"/>
<stop offset="0.7534" stop-color="#1E2D6E"/>
<stop offset="0.905" stop-color="#1A1660"/>
<stop offset="1" stop-color="#180D5B"/>
</linearGradient>
<linearGradient id="paint63_linear" x1="392.351" y1="485.034" x2="483.885" y2="485.034" gradientUnits="userSpaceOnUse">
<stop stop-color="#42E8E0"/>
<stop offset="0.1022" stop-color="#3CCACE"/>
<stop offset="0.3445" stop-color="#2F87A5"/>
<stop offset="0.564" stop-color="#255385"/>
<stop offset="0.7534" stop-color="#1E2D6E"/>
<stop offset="0.905" stop-color="#1A1660"/>
<stop offset="1" stop-color="#180D5B"/>
</linearGradient>
<linearGradient id="paint64_linear" x1="416.744" y1="537.24" x2="566.895" y2="439.14" gradientUnits="userSpaceOnUse">
<stop stop-color="#42E8E0"/>
<stop offset="0.1022" stop-color="#3CCACE"/>
<stop offset="0.3445" stop-color="#2F87A5"/>
<stop offset="0.564" stop-color="#255385"/>
<stop offset="0.7534" stop-color="#1E2D6E"/>
<stop offset="0.905" stop-color="#1A1660"/>
<stop offset="1" stop-color="#180D5B"/>
</linearGradient>
<linearGradient id="paint65_linear" x1="352.711" y1="450.621" x2="532.044" y2="450.621" gradientUnits="userSpaceOnUse">
<stop stop-color="#42E8E0"/>
<stop offset="0.1022" stop-color="#3CCACE"/>
<stop offset="0.3445" stop-color="#2F87A5"/>
<stop offset="0.564" stop-color="#255385"/>
<stop offset="0.7534" stop-color="#1E2D6E"/>
<stop offset="0.905" stop-color="#1A1660"/>
<stop offset="1" stop-color="#180D5B"/>
</linearGradient>
<linearGradient id="paint66_linear" x1="482.018" y1="450.617" x2="571.685" y2="450.617" gradientUnits="userSpaceOnUse">
<stop stop-color="#2B237C"/>
<stop offset="1" stop-color="#180D5B"/>
</linearGradient>
<linearGradient id="paint67_linear" x1="392.35" y1="430.801" x2="571.696" y2="430.801" gradientUnits="userSpaceOnUse">
<stop stop-color="#42E8E0"/>
<stop offset="0.1022" stop-color="#3CCACE"/>
<stop offset="0.3445" stop-color="#2F87A5"/>
<stop offset="0.564" stop-color="#255385"/>
<stop offset="0.7534" stop-color="#1E2D6E"/>
<stop offset="0.905" stop-color="#1A1660"/>
<stop offset="1" stop-color="#180D5B"/>
</linearGradient>
<linearGradient id="paint68_linear" x1="392.351" y1="430.804" x2="483.885" y2="430.804" gradientUnits="userSpaceOnUse">
<stop stop-color="#42E8E0"/>
<stop offset="0.1022" stop-color="#3CCACE"/>
<stop offset="0.3445" stop-color="#2F87A5"/>
<stop offset="0.564" stop-color="#255385"/>
<stop offset="0.7534" stop-color="#1E2D6E"/>
<stop offset="0.905" stop-color="#1A1660"/>
<stop offset="1" stop-color="#180D5B"/>
</linearGradient>
<linearGradient id="paint69_linear" x1="416.744" y1="483.01" x2="566.895" y2="384.91" gradientUnits="userSpaceOnUse">
<stop stop-color="#42E8E0"/>
<stop offset="0.1022" stop-color="#3CCACE"/>
<stop offset="0.3445" stop-color="#2F87A5"/>
<stop offset="0.564" stop-color="#255385"/>
<stop offset="0.7534" stop-color="#1E2D6E"/>
<stop offset="0.905" stop-color="#1A1660"/>
<stop offset="1" stop-color="#180D5B"/>
</linearGradient>
<radialGradient id="paint70_radial" cx="0" cy="0" r="1" gradientUnits="userSpaceOnUse" gradientTransform="translate(231.419 264.23) rotate(30.0114) scale(188.551 163.328)">
<stop stop-color="#42E8E0"/>
<stop offset="0.0225" stop-color="#3FD8D7"/>
<stop offset="0.0983" stop-color="#36A9BA"/>
<stop offset="0.1786" stop-color="#2E7FA0"/>
<stop offset="0.2622" stop-color="#275C8B"/>
<stop offset="0.35" stop-color="#223F79"/>
<stop offset="0.4433" stop-color="#1D296C"/>
<stop offset="0.5449" stop-color="#1A1962"/>
<stop offset="0.6608" stop-color="#19105D"/>
<stop offset="0.8226" stop-color="#180D5B"/>
</radialGradient>
<linearGradient id="paint71_linear" x1="172.239" y1="226.822" x2="351.573" y2="226.822" gradientUnits="userSpaceOnUse">
<stop stop-color="#42E8E0"/>
<stop offset="0.1022" stop-color="#3CCACE"/>
<stop offset="0.3445" stop-color="#2F87A5"/>
<stop offset="0.564" stop-color="#255385"/>
<stop offset="0.7534" stop-color="#1E2D6E"/>
<stop offset="0.905" stop-color="#1A1660"/>
<stop offset="1" stop-color="#180D5B"/>
</linearGradient>
<linearGradient id="paint72_linear" x1="301.547" y1="226.819" x2="391.213" y2="226.819" gradientUnits="userSpaceOnUse">
<stop stop-color="#2B237C"/>
<stop offset="1" stop-color="#180D5B"/>
</linearGradient>
<linearGradient id="paint73_linear" x1="211.878" y1="207.002" x2="391.225" y2="207.002" gradientUnits="userSpaceOnUse">
<stop stop-color="#42E8E0"/>
<stop offset="0.1022" stop-color="#3CCACE"/>
<stop offset="0.3445" stop-color="#2F87A5"/>
<stop offset="0.564" stop-color="#255385"/>
<stop offset="0.7534" stop-color="#1E2D6E"/>
<stop offset="0.905" stop-color="#1A1660"/>
<stop offset="1" stop-color="#180D5B"/>
</linearGradient>
<linearGradient id="paint74_linear" x1="211.878" y1="207.006" x2="303.413" y2="207.006" gradientUnits="userSpaceOnUse">
<stop stop-color="#42E8E0"/>
<stop offset="0.1022" stop-color="#3CCACE"/>
<stop offset="0.3445" stop-color="#2F87A5"/>
<stop offset="0.564" stop-color="#255385"/>
<stop offset="0.7534" stop-color="#1E2D6E"/>
<stop offset="0.905" stop-color="#1A1660"/>
<stop offset="1" stop-color="#180D5B"/>
</linearGradient>
<linearGradient id="paint75_linear" x1="236.273" y1="259.211" x2="386.423" y2="161.111" gradientUnits="userSpaceOnUse">
<stop stop-color="#42E8E0"/>
<stop offset="0.1022" stop-color="#3CCACE"/>
<stop offset="0.3445" stop-color="#2F87A5"/>
<stop offset="0.564" stop-color="#255385"/>
<stop offset="0.7534" stop-color="#1E2D6E"/>
<stop offset="0.905" stop-color="#1A1660"/>
<stop offset="1" stop-color="#180D5B"/>
</linearGradient>
<linearGradient id="paint76_linear" x1="172.239" y1="172.592" x2="351.573" y2="172.592" gradientUnits="userSpaceOnUse">
<stop stop-color="#42E8E0"/>
<stop offset="0.1022" stop-color="#3CCACE"/>
<stop offset="0.3445" stop-color="#2F87A5"/>
<stop offset="0.564" stop-color="#255385"/>
<stop offset="0.7534" stop-color="#1E2D6E"/>
<stop offset="0.905" stop-color="#1A1660"/>
<stop offset="1" stop-color="#180D5B"/>
</linearGradient>
<linearGradient id="paint77_linear" x1="301.547" y1="172.589" x2="391.213" y2="172.589" gradientUnits="userSpaceOnUse">
<stop stop-color="#2B237C"/>
<stop offset="1" stop-color="#180D5B"/>
</linearGradient>
<linearGradient id="paint78_linear" x1="211.879" y1="152.773" x2="391.226" y2="152.773" gradientUnits="userSpaceOnUse">
<stop stop-color="#42E8E0"/>
<stop offset="0.1022" stop-color="#3CCACE"/>
<stop offset="0.3445" stop-color="#2F87A5"/>
<stop offset="0.564" stop-color="#255385"/>
<stop offset="0.7534" stop-color="#1E2D6E"/>
<stop offset="0.905" stop-color="#1A1660"/>
<stop offset="1" stop-color="#180D5B"/>
</linearGradient>
<linearGradient id="paint79_linear" x1="211.879" y1="152.776" x2="303.414" y2="152.776" gradientUnits="userSpaceOnUse">
<stop stop-color="#42E8E0"/>
<stop offset="0.1022" stop-color="#3CCACE"/>
<stop offset="0.3445" stop-color="#2F87A5"/>
<stop offset="0.564" stop-color="#255385"/>
<stop offset="0.7534" stop-color="#1E2D6E"/>
<stop offset="0.905" stop-color="#1A1660"/>
<stop offset="1" stop-color="#180D5B"/>
</linearGradient>
<linearGradient id="paint80_linear" x1="236.273" y1="204.982" x2="386.424" y2="106.882" gradientUnits="userSpaceOnUse">
<stop stop-color="#42E8E0"/>
<stop offset="0.1022" stop-color="#3CCACE"/>
<stop offset="0.3445" stop-color="#2F87A5"/>
<stop offset="0.564" stop-color="#255385"/>
<stop offset="0.7534" stop-color="#1E2D6E"/>
<stop offset="0.905" stop-color="#1A1660"/>
<stop offset="1" stop-color="#180D5B"/>
</linearGradient>
<radialGradient id="paint81_radial" cx="0" cy="0" r="1" gradientUnits="userSpaceOnUse" gradientTransform="translate(782.431 170.645) rotate(30.0114) scale(69.7757 60.4414)">
<stop stop-color="#42E8E0"/>
<stop offset="0.0225" stop-color="#3FD8D7"/>
<stop offset="0.0983" stop-color="#36A9BA"/>
<stop offset="0.1786" stop-color="#2E7FA0"/>
<stop offset="0.2622" stop-color="#275C8B"/>
<stop offset="0.35" stop-color="#223F79"/>
<stop offset="0.4433" stop-color="#1D296C"/>
<stop offset="0.5449" stop-color="#1A1962"/>
<stop offset="0.6608" stop-color="#19105D"/>
<stop offset="0.8226" stop-color="#180D5B"/>
</radialGradient>
<radialGradient id="paint82_radial" cx="0" cy="0" r="1" gradientUnits="userSpaceOnUse" gradientTransform="translate(874.726 260.43) rotate(30.0114) scale(69.7757 60.4414)">
<stop stop-color="#42E8E0"/>
<stop offset="0.0225" stop-color="#3FD8D7"/>
<stop offset="0.0983" stop-color="#36A9BA"/>
<stop offset="0.1786" stop-color="#2E7FA0"/>
<stop offset="0.2622" stop-color="#275C8B"/>
<stop offset="0.35" stop-color="#223F79"/>
<stop offset="0.4433" stop-color="#1D296C"/>
<stop offset="0.5449" stop-color="#1A1962"/>
<stop offset="0.6608" stop-color="#19105D"/>
<stop offset="0.8226" stop-color="#180D5B"/>
</radialGradient>
<radialGradient id="paint83_radial" cx="0" cy="0" r="1" gradientUnits="userSpaceOnUse" gradientTransform="translate(704.537 215.476) rotate(30.0114) scale(53.6487 46.4718)">
<stop stop-color="#42E8E0"/>
<stop offset="0.0225" stop-color="#3FD8D7"/>
<stop offset="0.0983" stop-color="#36A9BA"/>
<stop offset="0.1786" stop-color="#2E7FA0"/>
<stop offset="0.2622" stop-color="#275C8B"/>
<stop offset="0.35" stop-color="#223F79"/>
<stop offset="0.4433" stop-color="#1D296C"/>
<stop offset="0.5449" stop-color="#1A1962"/>
<stop offset="0.6608" stop-color="#19105D"/>
<stop offset="0.8226" stop-color="#180D5B"/>
</radialGradient>
<radialGradient id="paint84_radial" cx="0" cy="0" r="1" gradientUnits="userSpaceOnUse" gradientTransform="translate(783.189 172.419) scale(12.2471 12.2523)">
<stop stop-color="#42E8E0"/>
<stop offset="0.0225" stop-color="#3FD8D7"/>
<stop offset="0.0983" stop-color="#36A9BA"/>
<stop offset="0.1786" stop-color="#2E7FA0"/>
<stop offset="0.2622" stop-color="#275C8B"/>
<stop offset="0.35" stop-color="#223F79"/>
<stop offset="0.4433" stop-color="#1D296C"/>
<stop offset="0.5449" stop-color="#1A1962"/>
<stop offset="0.6608" stop-color="#19105D"/>
<stop offset="0.8226" stop-color="#180D5B"/>
</radialGradient>
<radialGradient id="paint85_radial" cx="0" cy="0" r="1" gradientUnits="userSpaceOnUse" gradientTransform="translate(704.537 217.94) scale(12.2471 12.2523)">
<stop stop-color="#42E8E0"/>
<stop offset="0.0225" stop-color="#3FD8D7"/>
<stop offset="0.0983" stop-color="#36A9BA"/>
<stop offset="0.1786" stop-color="#2E7FA0"/>
<stop offset="0.2622" stop-color="#275C8B"/>
<stop offset="0.35" stop-color="#223F79"/>
<stop offset="0.4433" stop-color="#1D296C"/>
<stop offset="0.5449" stop-color="#1A1962"/>
<stop offset="0.6608" stop-color="#19105D"/>
<stop offset="0.8226" stop-color="#180D5B"/>
</radialGradient>
<radialGradient id="paint86_radial" cx="0" cy="0" r="1" gradientUnits="userSpaceOnUse" gradientTransform="translate(867.016 265.099) scale(12.247 12.2523)">
<stop stop-color="#42E8E0"/>
<stop offset="0.0225" stop-color="#3FD8D7"/>
<stop offset="0.0983" stop-color="#36A9BA"/>
<stop offset="0.1786" stop-color="#2E7FA0"/>
<stop offset="0.2622" stop-color="#275C8B"/>
<stop offset="0.35" stop-color="#223F79"/>
<stop offset="0.4433" stop-color="#1D296C"/>
<stop offset="0.5449" stop-color="#1A1962"/>
<stop offset="0.6608" stop-color="#19105D"/>
<stop offset="0.8226" stop-color="#180D5B"/>
</radialGradient>
<radialGradient id="paint87_radial" cx="0" cy="0" r="1" gradientUnits="userSpaceOnUse" gradientTransform="translate(889.719 251.715) scale(12.247 12.2523)">
<stop stop-color="#42E8E0"/>
<stop offset="0.0225" stop-color="#3FD8D7"/>
<stop offset="0.0983" stop-color="#36A9BA"/>
<stop offset="0.1786" stop-color="#2E7FA0"/>
<stop offset="0.2622" stop-color="#275C8B"/>
<stop offset="0.35" stop-color="#223F79"/>
<stop offset="0.4433" stop-color="#1D296C"/>
<stop offset="0.5449" stop-color="#1A1962"/>
<stop offset="0.6608" stop-color="#19105D"/>
<stop offset="0.8226" stop-color="#180D5B"/>
</radialGradient>
<radialGradient id="paint88_radial" cx="0" cy="0" r="1" gradientUnits="userSpaceOnUse" gradientTransform="translate(912.422 238.534) scale(12.2471 12.2523)">
<stop stop-color="#42E8E0"/>
<stop offset="0.0225" stop-color="#3FD8D7"/>
<stop offset="0.0983" stop-color="#36A9BA"/>
<stop offset="0.1786" stop-color="#2E7FA0"/>
<stop offset="0.2622" stop-color="#275C8B"/>
<stop offset="0.35" stop-color="#223F79"/>
<stop offset="0.4433" stop-color="#1D296C"/>
<stop offset="0.5449" stop-color="#1A1962"/>
<stop offset="0.6608" stop-color="#19105D"/>
<stop offset="0.8226" stop-color="#180D5B"/>
</radialGradient>
<radialGradient id="paint89_radial" cx="0" cy="0" r="1" gradientUnits="userSpaceOnUse" gradientTransform="translate(782.431 144.568) rotate(30.0114) scale(69.7756 60.4414)">
<stop stop-color="#42E8E0"/>
<stop offset="0.0225" stop-color="#3FD8D7"/>
<stop offset="0.0983" stop-color="#36A9BA"/>
<stop offset="0.1786" stop-color="#2E7FA0"/>
<stop offset="0.2622" stop-color="#275C8B"/>
<stop offset="0.35" stop-color="#223F79"/>
<stop offset="0.4433" stop-color="#1D296C"/>
<stop offset="0.5449" stop-color="#1A1962"/>
<stop offset="0.6608" stop-color="#19105D"/>
<stop offset="0.8226" stop-color="#180D5B"/>
</radialGradient>
<radialGradient id="paint90_radial" cx="0" cy="0" r="1" gradientUnits="userSpaceOnUse" gradientTransform="translate(874.726 234.353) rotate(30.0114) scale(69.7757 60.4414)">
<stop stop-color="#42E8E0"/>
<stop offset="0.0225" stop-color="#3FD8D7"/>
<stop offset="0.0983" stop-color="#36A9BA"/>
<stop offset="0.1786" stop-color="#2E7FA0"/>
<stop offset="0.2622" stop-color="#275C8B"/>
<stop offset="0.35" stop-color="#223F79"/>
<stop offset="0.4433" stop-color="#1D296C"/>
<stop offset="0.5449" stop-color="#1A1962"/>
<stop offset="0.6608" stop-color="#19105D"/>
<stop offset="0.8226" stop-color="#180D5B"/>
</radialGradient>
<radialGradient id="paint91_radial" cx="0" cy="0" r="1" gradientUnits="userSpaceOnUse" gradientTransform="translate(704.536 189.398) rotate(30.0114) scale(53.6487 46.4718)">
<stop stop-color="#42E8E0"/>
<stop offset="0.0225" stop-color="#3FD8D7"/>
<stop offset="0.0983" stop-color="#36A9BA"/>
<stop offset="0.1786" stop-color="#2E7FA0"/>
<stop offset="0.2622" stop-color="#275C8B"/>
<stop offset="0.35" stop-color="#223F79"/>
<stop offset="0.4433" stop-color="#1D296C"/>
<stop offset="0.5449" stop-color="#1A1962"/>
<stop offset="0.6608" stop-color="#19105D"/>
<stop offset="0.8226" stop-color="#180D5B"/>
</radialGradient>
<radialGradient id="paint92_radial" cx="0" cy="0" r="1" gradientUnits="userSpaceOnUse" gradientTransform="translate(783.189 146.342) scale(12.2471 12.2523)">
<stop stop-color="#42E8E0"/>
<stop offset="0.0225" stop-color="#3FD8D7"/>
<stop offset="0.0983" stop-color="#36A9BA"/>
<stop offset="0.1786" stop-color="#2E7FA0"/>
<stop offset="0.2622" stop-color="#275C8B"/>
<stop offset="0.35" stop-color="#223F79"/>
<stop offset="0.4433" stop-color="#1D296C"/>
<stop offset="0.5449" stop-color="#1A1962"/>
<stop offset="0.6608" stop-color="#19105D"/>
<stop offset="0.8226" stop-color="#180D5B"/>
</radialGradient>
<radialGradient id="paint93_radial" cx="0" cy="0" r="1" gradientUnits="userSpaceOnUse" gradientTransform="translate(704.537 191.862) scale(12.2471 12.2523)">
<stop stop-color="#42E8E0"/>
<stop offset="0.0225" stop-color="#3FD8D7"/>
<stop offset="0.0983" stop-color="#36A9BA"/>
<stop offset="0.1786" stop-color="#2E7FA0"/>
<stop offset="0.2622" stop-color="#275C8B"/>
<stop offset="0.35" stop-color="#223F79"/>
<stop offset="0.4433" stop-color="#1D296C"/>
<stop offset="0.5449" stop-color="#1A1962"/>
<stop offset="0.6608" stop-color="#19105D"/>
<stop offset="0.8226" stop-color="#180D5B"/>
</radialGradient>
<radialGradient id="paint94_radial" cx="0" cy="0" r="1" gradientUnits="userSpaceOnUse" gradientTransform="translate(867.016 239.022) scale(12.247 12.2523)">
<stop stop-color="#42E8E0"/>
<stop offset="0.0225" stop-color="#3FD8D7"/>
<stop offset="0.0983" stop-color="#36A9BA"/>
<stop offset="0.1786" stop-color="#2E7FA0"/>
<stop offset="0.2622" stop-color="#275C8B"/>
<stop offset="0.35" stop-color="#223F79"/>
<stop offset="0.4433" stop-color="#1D296C"/>
<stop offset="0.5449" stop-color="#1A1962"/>
<stop offset="0.6608" stop-color="#19105D"/>
<stop offset="0.8226" stop-color="#180D5B"/>
</radialGradient>
<radialGradient id="paint95_radial" cx="0" cy="0" r="1" gradientUnits="userSpaceOnUse" gradientTransform="translate(889.719 225.637) scale(12.247 12.2523)">
<stop stop-color="#42E8E0"/>
<stop offset="0.0225" stop-color="#3FD8D7"/>
<stop offset="0.0983" stop-color="#36A9BA"/>
<stop offset="0.1786" stop-color="#2E7FA0"/>
<stop offset="0.2622" stop-color="#275C8B"/>
<stop offset="0.35" stop-color="#223F79"/>
<stop offset="0.4433" stop-color="#1D296C"/>
<stop offset="0.5449" stop-color="#1A1962"/>
<stop offset="0.6608" stop-color="#19105D"/>
<stop offset="0.8226" stop-color="#180D5B"/>
</radialGradient>
<radialGradient id="paint96_radial" cx="0" cy="0" r="1" gradientUnits="userSpaceOnUse" gradientTransform="translate(912.422 212.456) scale(12.2471 12.2523)">
<stop stop-color="#42E8E0"/>
<stop offset="0.0225" stop-color="#3FD8D7"/>
<stop offset="0.0983" stop-color="#36A9BA"/>
<stop offset="0.1786" stop-color="#2E7FA0"/>
<stop offset="0.2622" stop-color="#275C8B"/>
<stop offset="0.35" stop-color="#223F79"/>
<stop offset="0.4433" stop-color="#1D296C"/>
<stop offset="0.5449" stop-color="#1A1962"/>
<stop offset="0.6608" stop-color="#19105D"/>
<stop offset="0.8226" stop-color="#180D5B"/>
</radialGradient>
<radialGradient id="paint97_radial" cx="0" cy="0" r="1" gradientUnits="userSpaceOnUse" gradientTransform="translate(276.391 73.6848) rotate(30.0114) scale(69.7757 60.4414)">
<stop stop-color="#42E8E0"/>
<stop offset="0.0225" stop-color="#3FD8D7"/>
<stop offset="0.0983" stop-color="#36A9BA"/>
<stop offset="0.1786" stop-color="#2E7FA0"/>
<stop offset="0.2622" stop-color="#275C8B"/>
<stop offset="0.35" stop-color="#223F79"/>
<stop offset="0.4433" stop-color="#1D296C"/>
<stop offset="0.5449" stop-color="#1A1962"/>
<stop offset="0.6608" stop-color="#19105D"/>
<stop offset="0.8226" stop-color="#180D5B"/>
</radialGradient>
<radialGradient id="paint98_radial" cx="0" cy="0" r="1" gradientUnits="userSpaceOnUse" gradientTransform="translate(368.687 163.47) rotate(30.0114) scale(69.7757 60.4414)">
<stop stop-color="#42E8E0"/>
<stop offset="0.0225" stop-color="#3FD8D7"/>
<stop offset="0.0983" stop-color="#36A9BA"/>
<stop offset="0.1786" stop-color="#2E7FA0"/>
<stop offset="0.2622" stop-color="#275C8B"/>
<stop offset="0.35" stop-color="#223F79"/>
<stop offset="0.4433" stop-color="#1D296C"/>
<stop offset="0.5449" stop-color="#1A1962"/>
<stop offset="0.6608" stop-color="#19105D"/>
<stop offset="0.8226" stop-color="#180D5B"/>
</radialGradient>
<radialGradient id="paint99_radial" cx="0" cy="0" r="1" gradientUnits="userSpaceOnUse" gradientTransform="translate(198.497 118.515) rotate(30.0114) scale(53.6487 46.4718)">
<stop stop-color="#42E8E0"/>
<stop offset="0.0225" stop-color="#3FD8D7"/>
<stop offset="0.0983" stop-color="#36A9BA"/>
<stop offset="0.1786" stop-color="#2E7FA0"/>
<stop offset="0.2622" stop-color="#275C8B"/>
<stop offset="0.35" stop-color="#223F79"/>
<stop offset="0.4433" stop-color="#1D296C"/>
<stop offset="0.5449" stop-color="#1A1962"/>
<stop offset="0.6608" stop-color="#19105D"/>
<stop offset="0.8226" stop-color="#180D5B"/>
</radialGradient>
<radialGradient id="paint100_radial" cx="0" cy="0" r="1" gradientUnits="userSpaceOnUse" gradientTransform="translate(277.149 75.4585) scale(12.247 12.2523)">
<stop stop-color="#42E8E0"/>
<stop offset="0.0225" stop-color="#3FD8D7"/>
<stop offset="0.0983" stop-color="#36A9BA"/>
<stop offset="0.1786" stop-color="#2E7FA0"/>
<stop offset="0.2622" stop-color="#275C8B"/>
<stop offset="0.35" stop-color="#223F79"/>
<stop offset="0.4433" stop-color="#1D296C"/>
<stop offset="0.5449" stop-color="#1A1962"/>
<stop offset="0.6608" stop-color="#19105D"/>
<stop offset="0.8226" stop-color="#180D5B"/>
</radialGradient>
<radialGradient id="paint101_radial" cx="0" cy="0" r="1" gradientUnits="userSpaceOnUse" gradientTransform="translate(198.497 120.979) scale(12.247 12.2523)">
<stop stop-color="#42E8E0"/>
<stop offset="0.0225" stop-color="#3FD8D7"/>
<stop offset="0.0983" stop-color="#36A9BA"/>
<stop offset="0.1786" stop-color="#2E7FA0"/>
<stop offset="0.2622" stop-color="#275C8B"/>
<stop offset="0.35" stop-color="#223F79"/>
<stop offset="0.4433" stop-color="#1D296C"/>
<stop offset="0.5449" stop-color="#1A1962"/>
<stop offset="0.6608" stop-color="#19105D"/>
<stop offset="0.8226" stop-color="#180D5B"/>
</radialGradient>
<radialGradient id="paint102_radial" cx="0" cy="0" r="1" gradientUnits="userSpaceOnUse" gradientTransform="translate(360.976 168.139) scale(12.2471 12.2523)">
<stop stop-color="#42E8E0"/>
<stop offset="0.0225" stop-color="#3FD8D7"/>
<stop offset="0.0983" stop-color="#36A9BA"/>
<stop offset="0.1786" stop-color="#2E7FA0"/>
<stop offset="0.2622" stop-color="#275C8B"/>
<stop offset="0.35" stop-color="#223F79"/>
<stop offset="0.4433" stop-color="#1D296C"/>
<stop offset="0.5449" stop-color="#1A1962"/>
<stop offset="0.6608" stop-color="#19105D"/>
<stop offset="0.8226" stop-color="#180D5B"/>
</radialGradient>
</defs>
</svg>
