<svg width="217" height="135" viewBox="0 0 217 135" fill="none" xmlns="http://www.w3.org/2000/svg">
<path opacity="0.5" d="M113.78 133.604L76.3647 114.871C73.5264 113.449 73.8812 110.963 77.1605 109.317L112.974 91.3826C116.254 89.7363 121.22 89.5617 124.068 90.9835L161.483 109.716C164.321 111.138 163.967 113.624 160.687 115.27L124.874 133.205C121.585 134.851 116.618 135.026 113.78 133.604Z" fill="#0B0244"/>
<path d="M168.166 93.1291V86.4193H148.212L124.624 74.6043C121.479 73.0245 115.975 73.2241 112.341 75.045L89.6353 86.411H69.6621V93.495H69.6813C69.595 94.5592 70.2758 95.5903 71.7908 96.3469L113.223 117.092C116.368 118.671 121.872 118.472 125.506 116.651L165.175 96.7876C167.275 95.7565 168.282 94.3929 168.166 93.1291Z" fill="#312A91"/>
<path opacity="0.5" d="M168.166 93.1291V86.4193H148.212L124.624 74.6043C121.479 73.0245 115.975 73.2241 112.341 75.045L89.6353 86.411H69.6621V93.495H69.6813C69.595 94.5592 70.2758 95.5903 71.7908 96.3469L113.223 117.092C116.368 118.671 121.872 118.472 125.506 116.651L165.175 96.7876C167.275 95.7565 168.282 94.3929 168.166 93.1291Z" fill="url(#paint0_linear)"/>
<path d="M124.624 74.6125C123.109 73.8559 121.057 73.515 118.919 73.5566V118.164C121.22 118.114 123.617 117.615 125.506 116.668L165.175 96.8041C167.275 95.7565 168.281 94.3929 168.166 93.1291V86.4192H148.212L124.624 74.6125Z" fill="url(#paint1_linear)"/>
<path d="M113.223 110.023L71.7808 89.2785C68.6357 87.6987 69.0289 84.9466 72.663 83.1257L112.331 63.2622C115.965 61.4413 121.469 61.2418 124.614 62.8216L166.047 83.5664C169.192 85.1461 168.799 87.8983 165.165 89.7191L125.496 109.583C121.872 111.403 116.368 111.595 113.223 110.023Z" fill="#312A91"/>
<path opacity="0.5" d="M113.223 110.023L71.7808 89.2785C68.6357 87.6987 69.0289 84.9466 72.663 83.1257L112.331 63.2622C115.965 61.4413 121.469 61.2418 124.614 62.8216L166.047 83.5664C169.192 85.1461 168.799 87.8983 165.165 89.7191L125.496 109.583C121.872 111.403 116.368 111.595 113.223 110.023Z" fill="url(#paint2_linear)"/>
<path d="M114.326 105.435L80.9378 88.7223C78.3968 87.4502 78.7228 85.2302 81.6473 83.7669L113.606 67.7613C116.531 66.298 120.97 66.1317 123.502 67.4038L156.89 84.1161C159.431 85.3882 159.105 87.6082 156.18 89.0716L124.221 105.077C121.296 106.549 116.867 106.707 114.326 105.435Z" fill="#5CFFF3"/>
<path d="M81.6578 85.9363L113.617 69.9308C116.541 68.4674 120.981 68.3011 123.512 69.5733L156.9 86.2856C157.523 86.6015 157.974 86.9673 158.262 87.3748C159 86.2024 158.568 84.9552 156.9 84.1154L123.512 67.4032C120.971 66.131 116.541 66.289 113.617 67.7607L81.6578 83.7662C79.4524 84.8721 78.7237 86.402 79.5866 87.6325C79.9702 87.0255 80.651 86.4352 81.6578 85.9363Z" fill="#42E8E0"/>
<path opacity="0.5" d="M114.614 110.024L73.1809 89.2793C70.0359 87.6995 69.2783 85.388 74.0631 83.1265L113.731 63.263C115.515 62.365 117.759 61.8661 119.945 61.7747C117.346 61.6749 114.508 62.1738 112.341 63.263L72.6727 83.1265C69.0386 84.9473 68.6455 87.6995 71.7906 89.2793L113.223 110.024C114.825 110.822 117.03 111.163 119.293 111.072C117.538 110.997 115.879 110.656 114.614 110.024Z" fill="url(#paint3_linear)"/>
<path opacity="0.5" d="M165.175 92.7126L125.506 112.576C121.872 114.397 116.368 114.597 113.223 113.017L71.781 92.2719C70.266 91.5153 69.5852 90.4843 69.6715 89.4201H69.6523V90.8918H69.6715C69.5852 91.956 70.266 92.987 71.781 93.7436L113.214 114.488C116.359 116.068 121.863 115.869 125.497 114.048L165.165 94.1843C167.265 93.1367 168.272 91.7731 168.157 90.5093V89.0376C168.281 90.3014 167.275 91.665 165.175 92.7126Z" fill="url(#paint4_linear)"/>
<path d="M157.984 90.7577C158.434 90.9822 158.434 91.348 157.984 91.5808C157.533 91.8053 156.795 91.8053 156.344 91.5808C155.893 91.3564 155.893 90.9905 156.344 90.7577C156.795 90.5332 157.533 90.5332 157.984 90.7577Z" fill="#FCCC6B"/>
<path d="M160.534 89.4775C160.985 89.7019 160.985 90.0678 160.534 90.3006C160.084 90.5251 159.345 90.5251 158.895 90.3006C158.444 90.0761 158.444 89.7103 158.895 89.4775C159.345 89.253 160.084 89.253 160.534 89.4775Z" fill="#FCCC6B"/>
<path d="M163.085 88.2055C163.536 88.43 163.536 88.7958 163.085 89.0286C162.634 89.2531 161.896 89.2531 161.445 89.0286C160.995 88.8041 160.995 88.4383 161.445 88.2055C161.896 87.981 162.634 87.981 163.085 88.2055Z" fill="#FCCC6B"/>
<path opacity="0.5" d="M115.324 101.385L89.1272 88.2814C87.1328 87.2836 87.3821 85.5459 89.6834 84.3985L114.758 71.8435C117.059 70.6961 120.53 70.5714 122.525 71.5608L148.711 84.6729C150.706 85.6706 150.456 87.4083 148.155 88.5557L123.081 101.111C120.789 102.258 117.308 102.383 115.324 101.385Z" fill="#0B0244"/>
<path opacity="0.5" d="M103.769 67.5533L69.6621 67.6863V86.419H69.6813C69.595 87.4833 70.2758 88.5143 71.7908 89.2709L113.223 110.016C114.738 110.772 116.79 111.113 118.919 111.063V63.978H110.903L103.769 67.5533Z" fill="#5CFFF3"/>
<path opacity="0.5" d="M168.166 86.4276C168.176 86.3028 168.176 86.1698 168.166 86.0451V67.3124L133.839 67.4454L124.615 62.8308C121.469 61.2511 115.966 61.4506 112.331 63.2715L103.759 67.5618L69.6523 67.6949V86.4276H69.6715C69.5852 87.4918 70.266 88.5229 71.781 89.2795L113.214 110.024C116.359 111.604 121.863 111.405 125.497 109.584L165.165 89.7201C167.064 88.7723 168.07 87.575 168.166 86.4276Z" fill="#5CFFF3"/>
<path d="M168.166 67.3122V60.6024H148.212L124.624 48.7874C121.479 47.2076 115.975 47.4072 112.341 49.2281L89.6353 60.594H69.6621V67.6781H69.6813C69.595 68.7423 70.2758 69.7733 71.7908 70.5299L113.223 91.2748C116.368 92.8545 121.872 92.655 125.506 90.8341L165.175 70.9706C167.275 69.9313 168.282 68.576 168.166 67.3122Z" fill="#312A91"/>
<path opacity="0.5" d="M168.166 67.3122V60.6024H148.212L124.624 48.7874C121.479 47.2076 115.975 47.4072 112.341 49.2281L89.6353 60.594H69.6621V67.6781H69.6813C69.595 68.7423 70.2758 69.7733 71.7908 70.5299L113.223 91.2748C116.368 92.8545 121.872 92.655 125.506 90.8341L165.175 70.9706C167.275 69.9313 168.282 68.576 168.166 67.3122Z" fill="url(#paint5_linear)"/>
<path d="M124.624 48.7874C123.109 48.0307 121.057 47.6898 118.919 47.7314V92.339C121.22 92.2891 123.617 91.7902 125.506 90.8424L165.175 70.9789C167.275 69.9313 168.281 68.5677 168.166 67.3039V60.594H148.212L124.624 48.7874Z" fill="url(#paint6_linear)"/>
<path d="M113.223 84.1986L71.7808 63.4538C68.6357 61.874 69.0289 59.1219 72.663 57.301L112.331 37.4375C115.965 35.6166 121.469 35.4171 124.614 36.9969L166.047 57.7417C169.192 59.3214 168.799 62.0736 165.165 63.8945L125.496 83.7579C121.872 85.5788 116.368 85.7784 113.223 84.1986Z" fill="#312A91"/>
<path opacity="0.5" d="M113.223 84.1986L71.7808 63.4538C68.6357 61.874 69.0289 59.1219 72.663 57.301L112.331 37.4375C115.965 35.6166 121.469 35.4171 124.614 36.9969L166.047 57.7417C169.192 59.3214 168.799 62.0736 165.165 63.8945L125.496 83.7579C121.872 85.5788 116.368 85.7784 113.223 84.1986Z" fill="url(#paint7_linear)"/>
<path opacity="0.5" d="M114.614 84.1989L73.1809 63.4541C70.0359 61.8743 69.2783 59.5629 74.0631 57.3013L113.731 37.4378C115.515 36.5398 117.759 36.0409 119.945 35.9495C117.346 35.8497 114.508 36.3486 112.341 37.4378L72.6727 57.3013C69.0386 59.1222 68.6455 61.8743 71.7906 63.4541L113.223 84.1989C114.824 84.9971 117.03 85.338 119.293 85.2466C117.538 85.1801 115.879 84.8308 114.614 84.1989Z" fill="url(#paint8_linear)"/>
<path opacity="0.5" d="M165.175 66.8957L125.506 86.7593C121.872 88.5801 116.368 88.7797 113.223 87.1999L71.781 66.4468C70.266 65.6901 69.5852 64.6591 69.6715 63.5949H69.6523V65.0665H69.6715C69.5852 66.1308 70.266 67.1618 71.781 67.9184L113.214 88.6633C116.359 90.243 121.863 90.0435 125.497 88.2226L165.165 68.3591C167.265 67.3115 168.272 65.9479 168.157 64.6841V63.2124C168.281 64.4845 167.275 65.8398 165.175 66.8957Z" fill="url(#paint9_linear)"/>
<path opacity="0.2" d="M115.63 62.1007C116.493 62.5331 116.493 63.2315 115.63 63.6639C114.767 64.0962 113.376 64.0962 112.513 63.6639C111.65 63.2315 111.65 62.5331 112.513 62.1007C113.367 61.6767 114.767 61.6767 115.63 62.1007Z" fill="#5CFFF3"/>
<path opacity="0.6" d="M120.481 59.6724C121.344 60.1048 121.344 60.8032 120.481 61.2355C119.618 61.6679 118.228 61.6679 117.365 61.2355C116.502 60.8032 116.502 60.1048 117.365 59.6724C118.218 59.2401 119.618 59.2401 120.481 59.6724Z" fill="#5CFFF3"/>
<path d="M125.334 57.2442C126.197 57.6765 126.197 58.375 125.334 58.8073C124.471 59.2397 123.081 59.2397 122.218 58.8073C121.355 58.375 121.355 57.6765 122.218 57.2442C123.081 56.8118 124.471 56.8118 125.334 57.2442Z" fill="#5CFFF3"/>
<path opacity="0.5" d="M118.65 79.1026C117.116 79.1026 115.649 78.8365 114.546 78.2878L83.9105 62.9474C82.7982 62.3903 82.1846 61.6087 82.1846 60.7357C82.1846 59.713 83.0475 58.6903 84.5626 57.9254L113.894 43.2419C116.665 41.8534 120.875 41.712 123.291 42.9176L153.927 58.258C155.039 58.8151 155.653 59.5966 155.653 60.4697C155.653 61.5007 154.79 62.5233 153.275 63.28L123.943 77.9635C122.438 78.7118 120.491 79.1026 118.65 79.1026ZM114.863 77.8138C117.097 78.9363 121.038 78.7866 123.636 77.4895L152.968 62.806C154.282 62.1492 155.039 61.2928 155.039 60.4697C155.039 59.8045 154.541 59.1892 153.62 58.7319L122.984 43.3915C120.75 42.2691 116.809 42.4187 114.211 43.7158L84.879 58.3993C83.5653 59.0562 82.8078 59.9126 82.8078 60.7357C82.8078 61.4009 83.3064 62.0162 84.2269 62.4735L114.863 77.8138Z" fill="#0B0244"/>
<path d="M114.311 102.2C112.06 102.2 109.904 101.801 108.302 101.004L38.5396 66.074C36.949 65.2771 36.0771 64.1737 36.0771 62.9579C36.0771 61.5072 37.3261 60.036 39.5176 58.9428L107.324 24.9931C111.4 22.9498 117.598 22.7352 121.144 24.5027L190.906 59.4332C192.497 60.2301 193.369 61.3335 193.369 62.5493C193.369 64.0102 192.12 65.4712 189.928 66.5644L122.122 100.514C119.884 101.628 117.02 102.2 114.311 102.2ZM108.502 100.678C111.931 102.394 117.939 102.169 121.898 100.187L189.705 66.2374C191.755 65.2158 192.933 63.8672 192.933 62.539C192.933 61.4561 192.132 60.4651 190.682 59.7397L120.92 24.8092C117.492 23.0928 111.483 23.3176 107.524 25.2996L39.7178 59.2493C37.6677 60.271 36.4895 61.6195 36.4895 62.9375C36.4895 64.0204 37.2907 65.0115 38.7399 65.7368L108.502 100.678Z" fill="#6EE8FC"/>
<path opacity="0.3" d="M96.9315 57.9624C128.79 57.9624 154.617 45.0359 154.617 29.0903C154.617 13.1447 128.79 0.218262 96.9315 0.218262C65.0727 0.218262 39.2461 13.1447 39.2461 29.0903C39.2461 45.0359 65.0727 57.9624 96.9315 57.9624Z" fill="url(#paint10_radial)"/>
<path opacity="0.3" d="M159.236 110.496C191.095 110.496 216.922 97.5696 216.922 81.624C216.922 65.6784 191.095 52.752 159.236 52.752C127.377 52.752 101.551 65.6784 101.551 81.624C101.551 97.5696 127.377 110.496 159.236 110.496Z" fill="url(#paint11_radial)"/>
<path opacity="0.3" d="M44.348 77.5175C68.8408 77.5175 88.696 67.5779 88.696 55.3169C88.696 43.0558 68.8408 33.1162 44.348 33.1162C19.8553 33.1162 0 43.0558 0 55.3169C0 67.5779 19.8553 77.5175 44.348 77.5175Z" fill="url(#paint12_radial)"/>
<path d="M105.71 30.133C105.71 34.097 102.011 37.305 97.439 37.305C92.8676 37.305 89.168 34.097 89.168 30.133C89.168 26.1689 92.8676 22.9609 97.439 22.9609C102.011 22.9609 105.71 26.1689 105.71 30.133Z" fill="url(#paint13_radial)"/>
<path d="M99.8076 30.1317C99.8076 31.2555 98.7472 32.175 97.4512 32.175C96.1551 32.175 95.0947 31.2555 95.0947 30.1317C95.0947 29.0079 96.1551 28.0884 97.4512 28.0884C98.7472 28.0884 99.8076 28.9977 99.8076 30.1317Z" fill="#6EE8FC"/>
<path d="M44.3482 63.929C48.9162 63.929 52.6193 60.718 52.6193 56.757C52.6193 52.796 48.9162 49.585 44.3482 49.585C39.7802 49.585 36.0771 52.796 36.0771 56.757C36.0771 60.718 39.7802 63.929 44.3482 63.929Z" fill="url(#paint14_radial)"/>
<path d="M46.705 56.7576C46.705 57.8815 45.6446 58.8009 44.3486 58.8009C43.0526 58.8009 41.9922 57.8815 41.9922 56.7576C41.9922 55.6338 43.0526 54.7144 44.3486 54.7144C45.6564 54.7144 46.705 55.6338 46.705 56.7576Z" fill="#6EE8FC"/>
<path d="M154.028 91.5238C158.596 91.5238 162.299 88.3127 162.299 84.3517C162.299 80.3907 158.596 77.1797 154.028 77.1797C149.46 77.1797 145.757 80.3907 145.757 84.3517C145.757 88.3127 149.46 91.5238 154.028 91.5238Z" fill="url(#paint15_radial)"/>
<path d="M156.384 84.3539C156.384 85.4777 155.323 86.3972 154.027 86.3972C152.731 86.3972 151.671 85.4777 151.671 84.3539C151.671 83.23 152.731 82.3105 154.027 82.3105C155.323 82.3105 156.384 83.23 156.384 84.3539Z" fill="#6EE8FC"/>
<path d="M169.357 83.6966C173.925 83.6966 177.628 80.4856 177.628 76.5246C177.628 72.5636 173.925 69.3525 169.357 69.3525C164.789 69.3525 161.086 72.5636 161.086 76.5246C161.086 80.4856 164.789 83.6966 169.357 83.6966Z" fill="url(#paint16_radial)"/>
<path d="M171.713 76.5267C171.713 77.6505 170.652 78.57 169.356 78.57C168.06 78.57 167 77.6505 167 76.5267C167 75.4029 168.06 74.4834 169.356 74.4834C170.652 74.4834 171.713 75.3927 171.713 76.5267Z" fill="#6EE8FC"/>
<path d="M192.945 68.8141C192.945 72.7782 189.245 75.9862 184.673 75.9862C180.102 75.9862 176.402 72.7782 176.402 68.8141C176.402 64.8501 180.102 61.6421 184.673 61.6421C189.245 61.6421 192.945 64.8501 192.945 68.8141Z" fill="url(#paint17_radial)"/>
<path d="M187.041 68.8133C187.041 69.9372 185.981 70.8567 184.685 70.8567C183.389 70.8567 182.328 69.9372 182.328 68.8133C182.328 67.6895 183.389 66.77 184.685 66.77C185.981 66.77 187.041 67.6793 187.041 68.8133Z" fill="#6EE8FC"/>
<defs>
<linearGradient id="paint0_linear" x1="47.8823" y1="95.861" x2="146.4" y2="95.861" gradientUnits="userSpaceOnUse">
<stop stop-color="#42E8E0"/>
<stop offset="0.1022" stop-color="#3CCACE"/>
<stop offset="0.3445" stop-color="#2F87A5"/>
<stop offset="0.564" stop-color="#255385"/>
<stop offset="0.7534" stop-color="#1E2D6E"/>
<stop offset="0.905" stop-color="#1A1660"/>
<stop offset="1" stop-color="#180D5B"/>
</linearGradient>
<linearGradient id="paint1_linear" x1="118.918" y1="95.8591" x2="168.177" y2="95.8591" gradientUnits="userSpaceOnUse">
<stop stop-color="#2B237C"/>
<stop offset="1" stop-color="#180D5B"/>
</linearGradient>
<linearGradient id="paint2_linear" x1="69.6586" y1="86.4227" x2="168.183" y2="86.4227" gradientUnits="userSpaceOnUse">
<stop stop-color="#42E8E0"/>
<stop offset="0.1022" stop-color="#3CCACE"/>
<stop offset="0.3445" stop-color="#2F87A5"/>
<stop offset="0.564" stop-color="#255385"/>
<stop offset="0.7534" stop-color="#1E2D6E"/>
<stop offset="0.905" stop-color="#1A1660"/>
<stop offset="1" stop-color="#180D5B"/>
</linearGradient>
<linearGradient id="paint3_linear" x1="69.6588" y1="86.4249" x2="119.944" y2="86.4249" gradientUnits="userSpaceOnUse">
<stop stop-color="#42E8E0"/>
<stop offset="0.1022" stop-color="#3CCACE"/>
<stop offset="0.3445" stop-color="#2F87A5"/>
<stop offset="0.564" stop-color="#255385"/>
<stop offset="0.7534" stop-color="#1E2D6E"/>
<stop offset="0.905" stop-color="#1A1660"/>
<stop offset="1" stop-color="#180D5B"/>
</linearGradient>
<linearGradient id="paint4_linear" x1="83.0592" y1="111.282" x2="158.111" y2="54.7092" gradientUnits="userSpaceOnUse">
<stop stop-color="#42E8E0"/>
<stop offset="0.1022" stop-color="#3CCACE"/>
<stop offset="0.3445" stop-color="#2F87A5"/>
<stop offset="0.564" stop-color="#255385"/>
<stop offset="0.7534" stop-color="#1E2D6E"/>
<stop offset="0.905" stop-color="#1A1660"/>
<stop offset="1" stop-color="#180D5B"/>
</linearGradient>
<linearGradient id="paint5_linear" x1="47.8823" y1="70.0389" x2="146.4" y2="70.0389" gradientUnits="userSpaceOnUse">
<stop stop-color="#42E8E0"/>
<stop offset="0.1022" stop-color="#3CCACE"/>
<stop offset="0.3445" stop-color="#2F87A5"/>
<stop offset="0.564" stop-color="#255385"/>
<stop offset="0.7534" stop-color="#1E2D6E"/>
<stop offset="0.905" stop-color="#1A1660"/>
<stop offset="1" stop-color="#180D5B"/>
</linearGradient>
<linearGradient id="paint6_linear" x1="118.918" y1="70.037" x2="168.177" y2="70.037" gradientUnits="userSpaceOnUse">
<stop stop-color="#2B237C"/>
<stop offset="1" stop-color="#180D5B"/>
</linearGradient>
<linearGradient id="paint7_linear" x1="69.6586" y1="60.6011" x2="168.183" y2="60.6011" gradientUnits="userSpaceOnUse">
<stop stop-color="#42E8E0"/>
<stop offset="0.1022" stop-color="#3CCACE"/>
<stop offset="0.3445" stop-color="#2F87A5"/>
<stop offset="0.564" stop-color="#255385"/>
<stop offset="0.7534" stop-color="#1E2D6E"/>
<stop offset="0.905" stop-color="#1A1660"/>
<stop offset="1" stop-color="#180D5B"/>
</linearGradient>
<linearGradient id="paint8_linear" x1="69.6588" y1="60.6028" x2="119.944" y2="60.6028" gradientUnits="userSpaceOnUse">
<stop stop-color="#42E8E0"/>
<stop offset="0.1022" stop-color="#3CCACE"/>
<stop offset="0.3445" stop-color="#2F87A5"/>
<stop offset="0.564" stop-color="#255385"/>
<stop offset="0.7534" stop-color="#1E2D6E"/>
<stop offset="0.905" stop-color="#1A1660"/>
<stop offset="1" stop-color="#180D5B"/>
</linearGradient>
<linearGradient id="paint9_linear" x1="83.0592" y1="85.4603" x2="158.111" y2="28.8871" gradientUnits="userSpaceOnUse">
<stop stop-color="#42E8E0"/>
<stop offset="0.1022" stop-color="#3CCACE"/>
<stop offset="0.3445" stop-color="#2F87A5"/>
<stop offset="0.564" stop-color="#255385"/>
<stop offset="0.7534" stop-color="#1E2D6E"/>
<stop offset="0.905" stop-color="#1A1660"/>
<stop offset="1" stop-color="#180D5B"/>
</linearGradient>
<radialGradient id="paint10_radial" cx="0" cy="0" r="1" gradientUnits="userSpaceOnUse" gradientTransform="translate(96.9337 29.0907) rotate(26.5948) scale(45.6113 36.5174)">
<stop stop-color="#42E8E0"/>
<stop offset="0.0225" stop-color="#3FD8D7"/>
<stop offset="0.0983" stop-color="#36A9BA"/>
<stop offset="0.1786" stop-color="#2E7FA0"/>
<stop offset="0.2622" stop-color="#275C8B"/>
<stop offset="0.35" stop-color="#223F79"/>
<stop offset="0.4433" stop-color="#1D296C"/>
<stop offset="0.5449" stop-color="#1A1962"/>
<stop offset="0.6608" stop-color="#19105D"/>
<stop offset="0.8226" stop-color="#180D5B"/>
</radialGradient>
<radialGradient id="paint11_radial" cx="0" cy="0" r="1" gradientUnits="userSpaceOnUse" gradientTransform="translate(159.236 81.622) rotate(26.5948) scale(45.6113 36.5174)">
<stop stop-color="#42E8E0"/>
<stop offset="0.0225" stop-color="#3FD8D7"/>
<stop offset="0.0983" stop-color="#36A9BA"/>
<stop offset="0.1786" stop-color="#2E7FA0"/>
<stop offset="0.2622" stop-color="#275C8B"/>
<stop offset="0.35" stop-color="#223F79"/>
<stop offset="0.4433" stop-color="#1D296C"/>
<stop offset="0.5449" stop-color="#1A1962"/>
<stop offset="0.6608" stop-color="#19105D"/>
<stop offset="0.8226" stop-color="#180D5B"/>
</radialGradient>
<radialGradient id="paint12_radial" cx="0" cy="0" r="1" gradientUnits="userSpaceOnUse" gradientTransform="translate(44.3534 55.3206) rotate(26.5948) scale(35.0694 28.0773)">
<stop stop-color="#42E8E0"/>
<stop offset="0.0225" stop-color="#3FD8D7"/>
<stop offset="0.0983" stop-color="#36A9BA"/>
<stop offset="0.1786" stop-color="#2E7FA0"/>
<stop offset="0.2622" stop-color="#275C8B"/>
<stop offset="0.35" stop-color="#223F79"/>
<stop offset="0.4433" stop-color="#1D296C"/>
<stop offset="0.5449" stop-color="#1A1962"/>
<stop offset="0.6608" stop-color="#19105D"/>
<stop offset="0.8226" stop-color="#180D5B"/>
</radialGradient>
<radialGradient id="paint13_radial" cx="0" cy="0" r="1" gradientUnits="userSpaceOnUse" gradientTransform="translate(97.4467 30.1292) scale(8.26705 7.16857)">
<stop stop-color="#42E8E0"/>
<stop offset="0.0225" stop-color="#3FD8D7"/>
<stop offset="0.0983" stop-color="#36A9BA"/>
<stop offset="0.1786" stop-color="#2E7FA0"/>
<stop offset="0.2622" stop-color="#275C8B"/>
<stop offset="0.35" stop-color="#223F79"/>
<stop offset="0.4433" stop-color="#1D296C"/>
<stop offset="0.5449" stop-color="#1A1962"/>
<stop offset="0.6608" stop-color="#19105D"/>
<stop offset="0.8226" stop-color="#180D5B"/>
</radialGradient>
<radialGradient id="paint14_radial" cx="0" cy="0" r="1" gradientUnits="userSpaceOnUse" gradientTransform="translate(44.3537 56.7617) scale(8.26705 7.16857)">
<stop stop-color="#42E8E0"/>
<stop offset="0.0225" stop-color="#3FD8D7"/>
<stop offset="0.0983" stop-color="#36A9BA"/>
<stop offset="0.1786" stop-color="#2E7FA0"/>
<stop offset="0.2622" stop-color="#275C8B"/>
<stop offset="0.35" stop-color="#223F79"/>
<stop offset="0.4433" stop-color="#1D296C"/>
<stop offset="0.5449" stop-color="#1A1962"/>
<stop offset="0.6608" stop-color="#19105D"/>
<stop offset="0.8226" stop-color="#180D5B"/>
</radialGradient>
<radialGradient id="paint15_radial" cx="0" cy="0" r="1" gradientUnits="userSpaceOnUse" gradientTransform="translate(154.031 84.3535) scale(8.26705 7.16857)">
<stop stop-color="#42E8E0"/>
<stop offset="0.0225" stop-color="#3FD8D7"/>
<stop offset="0.0983" stop-color="#36A9BA"/>
<stop offset="0.1786" stop-color="#2E7FA0"/>
<stop offset="0.2622" stop-color="#275C8B"/>
<stop offset="0.35" stop-color="#223F79"/>
<stop offset="0.4433" stop-color="#1D296C"/>
<stop offset="0.5449" stop-color="#1A1962"/>
<stop offset="0.6608" stop-color="#19105D"/>
<stop offset="0.8226" stop-color="#180D5B"/>
</radialGradient>
<radialGradient id="paint16_radial" cx="0" cy="0" r="1" gradientUnits="userSpaceOnUse" gradientTransform="translate(169.357 76.5213) scale(8.26705 7.16855)">
<stop stop-color="#42E8E0"/>
<stop offset="0.0225" stop-color="#3FD8D7"/>
<stop offset="0.0983" stop-color="#36A9BA"/>
<stop offset="0.1786" stop-color="#2E7FA0"/>
<stop offset="0.2622" stop-color="#275C8B"/>
<stop offset="0.35" stop-color="#223F79"/>
<stop offset="0.4433" stop-color="#1D296C"/>
<stop offset="0.5449" stop-color="#1A1962"/>
<stop offset="0.6608" stop-color="#19105D"/>
<stop offset="0.8226" stop-color="#180D5B"/>
</radialGradient>
<radialGradient id="paint17_radial" cx="0" cy="0" r="1" gradientUnits="userSpaceOnUse" gradientTransform="translate(184.682 68.8122) scale(8.26711 7.16857)">
<stop stop-color="#42E8E0"/>
<stop offset="0.0225" stop-color="#3FD8D7"/>
<stop offset="0.0983" stop-color="#36A9BA"/>
<stop offset="0.1786" stop-color="#2E7FA0"/>
<stop offset="0.2622" stop-color="#275C8B"/>
<stop offset="0.35" stop-color="#223F79"/>
<stop offset="0.4433" stop-color="#1D296C"/>
<stop offset="0.5449" stop-color="#1A1962"/>
<stop offset="0.6608" stop-color="#19105D"/>
<stop offset="0.8226" stop-color="#180D5B"/>
</radialGradient>
</defs>
</svg>
