<svg width="1576" height="61" viewBox="0 0 1576 61" fill="none" xmlns="http://www.w3.org/2000/svg">
<path d="M0.485469 8.124C0.485469 7.644 0.641469 7.26 0.953469 6.972C1.28947 6.684 1.69747 6.54 2.17747 6.54H40.9495C41.3815 6.54 41.7655 6.672 42.1015 6.936C42.4375 7.2 42.6295 7.596 42.6775 8.124V17.088C42.6775 17.52 42.5215 17.94 42.2095 18.348C41.9215 18.732 41.5015 18.924 40.9495 18.924H28.5295V58.308C28.5295 58.74 28.3735 59.136 28.0615 59.496C27.7495 59.832 27.3415 60 26.8375 60H16.2535C15.8455 60 15.4615 59.844 15.1015 59.532C14.7415 59.196 14.5615 58.788 14.5615 58.308V18.924H2.17747C1.69747 18.924 1.28947 18.768 0.953469 18.456C0.641469 18.144 0.485469 17.688 0.485469 17.088V8.124ZM51.4986 8.124C51.5226 7.716 51.6666 7.356 51.9306 7.044C52.2186 6.708 52.5906 6.54 53.0466 6.54H63.7386C64.0986 6.54 64.4706 6.696 64.8546 7.008C65.2386 7.296 65.4306 7.668 65.4306 8.124V25.188H83.3226V8.124C83.3226 7.692 83.4666 7.32 83.7546 7.008C84.0666 6.696 84.4626 6.54 84.9426 6.54H95.4906C95.9706 6.54 96.3906 6.66 96.7506 6.9C97.1106 7.14 97.2906 7.524 97.2906 8.052V58.416C97.2906 58.944 97.1346 59.34 96.8226 59.604C96.5106 59.868 96.1026 60 95.5986 60H84.9426C84.4626 60 84.0666 59.868 83.7546 59.604C83.4666 59.34 83.3226 58.944 83.3226 58.416V37.968H65.4306V58.416C65.4306 58.92 65.2626 59.316 64.9266 59.604C64.6146 59.868 64.1826 60 63.6306 60H53.0466C52.0386 60 51.5226 59.532 51.4986 58.596V8.124ZM124.311 7.944C124.335 7.8 124.407 7.644 124.527 7.476C124.671 7.308 124.839 7.152 125.031 7.008C125.223 6.864 125.427 6.756 125.643 6.684C125.859 6.588 126.063 6.54 126.255 6.54H135.471C135.879 6.54 136.227 6.672 136.515 6.936C136.803 7.176 137.019 7.392 137.163 7.584L138.063 9.636L156.963 58.38C157.155 58.86 157.119 59.256 156.855 59.568C156.591 59.856 156.135 60 155.487 60H145.155C144.603 60 144.171 59.904 143.859 59.712C143.571 59.496 143.343 59.148 143.175 58.668C142.695 57.444 142.227 56.232 141.771 55.032C141.315 53.808 140.859 52.584 140.403 51.36H121.287C120.831 52.584 120.363 53.808 119.883 55.032C119.427 56.232 118.971 57.444 118.515 58.668C118.203 59.556 117.591 60 116.679 60H106.059C105.603 60 105.219 59.88 104.907 59.64C104.619 59.4 104.571 59.04 104.763 58.56L124.311 7.944ZM130.863 23.352C130.407 24.576 129.939 25.896 129.459 27.312C129.003 28.728 128.547 30.156 128.091 31.596C127.635 33.036 127.167 34.464 126.687 35.88C126.231 37.272 125.775 38.58 125.319 39.804H136.371L130.863 23.352ZM164.28 8.124C164.28 7.692 164.412 7.32 164.676 7.008C164.94 6.696 165.336 6.54 165.864 6.54H177.636C177.972 6.54 178.32 6.624 178.68 6.792C179.04 6.96 179.352 7.248 179.616 7.656C182.664 12.576 185.688 17.424 188.688 22.2C191.688 26.976 194.724 31.824 197.796 36.744V7.908C197.892 7.476 198.084 7.14 198.372 6.9C198.66 6.66 198.996 6.54 199.38 6.54H209.64C210.144 6.54 210.564 6.684 210.9 6.972C211.236 7.236 211.404 7.62 211.404 8.124V58.596C211.404 59.076 211.26 59.436 210.972 59.676C210.684 59.892 210.288 60 209.784 60H198.3C197.988 60 197.712 59.892 197.472 59.676C197.232 59.46 196.98 59.172 196.716 58.812C193.524 53.532 190.368 48.312 187.248 43.152C184.128 37.992 180.96 32.772 177.744 27.492V58.416C177.744 58.944 177.624 59.34 177.384 59.604C177.144 59.868 176.712 60 176.088 60H165.864C165.312 60 164.904 59.856 164.64 59.568C164.4 59.256 164.28 58.884 164.28 58.452V8.124ZM223.056 8.124C223.056 7.692 223.188 7.32 223.452 7.008C223.74 6.696 224.136 6.54 224.64 6.54H235.296C235.656 6.54 236.028 6.684 236.412 6.972C236.82 7.26 237.024 7.644 237.024 8.124V27.744C239.64 24.384 242.208 21.072 244.728 17.808C247.248 14.544 249.804 11.232 252.396 7.872C252.66 7.464 252.996 7.14 253.404 6.9C253.836 6.636 254.256 6.504 254.664 6.504H268.344C268.92 6.504 269.208 6.684 269.208 7.044C269.208 7.284 269.076 7.572 268.812 7.908L251.856 30.264L270.612 58.488C270.876 58.896 271.008 59.22 271.008 59.46C271.008 59.82 270.744 60 270.216 60H256.608C256.2 60 255.792 59.88 255.384 59.64C255 59.4 254.676 59.076 254.412 58.668C253.14 56.94 251.976 55.284 250.92 53.7C249.888 52.116 248.88 50.544 247.896 48.984C246.912 47.4 245.916 45.804 244.908 44.196C243.9 42.588 242.796 40.896 241.596 39.12L237.024 44.376V58.416C237.024 59.472 236.448 60 235.296 60H224.676C223.596 60 223.056 59.472 223.056 58.416V8.124ZM320.373 26.268L329.085 7.656C329.229 7.368 329.349 7.164 329.445 7.044C329.541 6.9 329.637 6.804 329.733 6.756C329.829 6.684 329.925 6.648 330.021 6.648C330.141 6.624 330.273 6.588 330.417 6.54H344.277C344.445 6.54 344.577 6.6 344.673 6.72C344.793 6.816 344.853 6.936 344.853 7.08C344.853 7.344 344.685 7.644 344.349 7.98L327.285 38.184V58.308C327.285 59.436 326.733 60 325.629 60H314.829C314.349 60 313.977 59.856 313.713 59.568C313.449 59.256 313.317 58.836 313.317 58.308V38.112L296.289 7.98C295.977 7.668 295.821 7.368 295.821 7.08C295.821 6.936 295.869 6.816 295.965 6.72C296.061 6.6 296.193 6.54 296.361 6.54H310.221C310.389 6.588 310.521 6.624 310.617 6.648C310.713 6.648 310.809 6.684 310.905 6.756C311.001 6.804 311.097 6.9 311.193 7.044C311.289 7.164 311.421 7.368 311.589 7.656L320.373 26.268ZM359.696 33.288C359.696 35.28 360.032 37.14 360.704 38.868C361.376 40.596 362.312 42.108 363.512 43.404C364.736 44.676 366.176 45.684 367.832 46.428C369.488 47.148 371.312 47.508 373.304 47.508C375.296 47.508 377.12 47.148 378.776 46.428C380.456 45.684 381.896 44.676 383.096 43.404C384.32 42.108 385.268 40.596 385.94 38.868C386.612 37.14 386.948 35.28 386.948 33.288C386.948 31.32 386.612 29.472 385.94 27.744C385.268 25.992 384.32 24.468 383.096 23.172C381.896 21.876 380.456 20.856 378.776 20.112C377.12 19.368 375.296 18.996 373.304 18.996C371.312 18.996 369.488 19.368 367.832 20.112C366.176 20.856 364.736 21.876 363.512 23.172C362.312 24.468 361.376 25.992 360.704 27.744C360.032 29.472 359.696 31.32 359.696 33.288ZM345.8 33.324C345.8 30.78 346.124 28.344 346.772 26.016C347.42 23.664 348.344 21.468 349.544 19.428C350.744 17.364 352.172 15.492 353.828 13.812C355.508 12.132 357.368 10.704 359.408 9.528C361.448 8.328 363.632 7.404 365.96 6.756C368.312 6.084 370.76 5.748 373.304 5.748C375.824 5.748 378.26 6.084 380.612 6.756C382.964 7.404 385.16 8.328 387.2 9.528C389.24 10.704 391.1 12.132 392.78 13.812C394.46 15.492 395.888 17.364 397.064 19.428C398.264 21.468 399.188 23.664 399.836 26.016C400.508 28.344 400.844 30.78 400.844 33.324C400.844 35.868 400.508 38.316 399.836 40.668C399.188 42.996 398.264 45.18 397.064 47.22C395.888 49.236 394.46 51.084 392.78 52.764C391.1 54.42 389.24 55.848 387.2 57.048C385.16 58.248 382.964 59.172 380.612 59.82C378.26 60.468 375.824 60.792 373.304 60.792C370.76 60.792 368.312 60.468 365.96 59.82C363.632 59.172 361.448 58.248 359.408 57.048C357.368 55.848 355.508 54.42 353.828 52.764C352.172 51.084 350.744 49.236 349.544 47.22C348.344 45.18 347.42 42.996 346.772 40.668C346.124 38.316 345.8 35.868 345.8 33.324ZM423.455 38.652C423.455 40.428 423.695 41.94 424.175 43.188C424.679 44.412 425.327 45.42 426.119 46.212C426.935 46.98 427.871 47.544 428.927 47.904C430.007 48.264 431.123 48.444 432.275 48.444C433.475 48.444 434.603 48.24 435.659 47.832C436.739 47.4 437.675 46.776 438.467 45.96C439.283 45.12 439.919 44.088 440.375 42.864C440.855 41.64 441.095 40.236 441.095 38.652V8.124C441.095 7.692 441.239 7.32 441.527 7.008C441.839 6.696 442.247 6.54 442.751 6.54H453.263C453.815 6.54 454.247 6.708 454.559 7.044C454.871 7.356 455.027 7.716 455.027 8.124V38.472C455.027 42.672 454.403 46.2 453.155 49.056C451.931 51.912 450.275 54.216 448.187 55.968C446.099 57.696 443.675 58.944 440.915 59.712C438.179 60.456 435.299 60.828 432.275 60.828C429.251 60.828 426.359 60.444 423.599 59.676C420.839 58.884 418.415 57.612 416.327 55.86C414.239 54.084 412.571 51.78 411.323 48.948C410.099 46.092 409.487 42.6 409.487 38.472V8.124C409.487 7.716 409.619 7.356 409.883 7.044C410.171 6.708 410.519 6.54 410.927 6.54H421.727C422.087 6.54 422.459 6.696 422.843 7.008C423.251 7.296 423.455 7.668 423.455 8.124V38.652ZM488.354 8.196C488.354 7.692 488.486 7.296 488.75 7.008C489.038 6.72 489.374 6.564 489.758 6.54H524.21C524.762 6.54 525.17 6.696 525.434 7.008C525.722 7.32 525.866 7.74 525.866 8.268V17.196C525.866 17.604 525.722 18 525.434 18.384C525.146 18.744 524.726 18.924 524.174 18.924H502.286V30.048H518.45C518.906 30.048 519.29 30.18 519.602 30.444C519.914 30.684 520.07 31.08 520.07 31.632V40.236C520.07 40.644 519.926 41.04 519.638 41.424C519.374 41.784 519.002 41.964 518.522 41.964H502.286V58.452C502.286 59.484 501.734 60 500.63 60H489.65C488.786 59.88 488.354 59.376 488.354 58.488V8.196ZM546.165 33.288C546.165 35.28 546.501 37.14 547.173 38.868C547.845 40.596 548.781 42.108 549.981 43.404C551.205 44.676 552.645 45.684 554.301 46.428C555.957 47.148 557.781 47.508 559.773 47.508C561.765 47.508 563.589 47.148 565.245 46.428C566.925 45.684 568.365 44.676 569.565 43.404C570.789 42.108 571.737 40.596 572.409 38.868C573.081 37.14 573.417 35.28 573.417 33.288C573.417 31.32 573.081 29.472 572.409 27.744C571.737 25.992 570.789 24.468 569.565 23.172C568.365 21.876 566.925 20.856 565.245 20.112C563.589 19.368 561.765 18.996 559.773 18.996C557.781 18.996 555.957 19.368 554.301 20.112C552.645 20.856 551.205 21.876 549.981 23.172C548.781 24.468 547.845 25.992 547.173 27.744C546.501 29.472 546.165 31.32 546.165 33.288ZM532.269 33.324C532.269 30.78 532.593 28.344 533.241 26.016C533.889 23.664 534.813 21.468 536.013 19.428C537.213 17.364 538.641 15.492 540.297 13.812C541.977 12.132 543.837 10.704 545.877 9.528C547.917 8.328 550.101 7.404 552.429 6.756C554.781 6.084 557.229 5.748 559.773 5.748C562.293 5.748 564.729 6.084 567.081 6.756C569.433 7.404 571.629 8.328 573.669 9.528C575.709 10.704 577.569 12.132 579.249 13.812C580.929 15.492 582.357 17.364 583.533 19.428C584.733 21.468 585.657 23.664 586.305 26.016C586.977 28.344 587.313 30.78 587.313 33.324C587.313 35.868 586.977 38.316 586.305 40.668C585.657 42.996 584.733 45.18 583.533 47.22C582.357 49.236 580.929 51.084 579.249 52.764C577.569 54.42 575.709 55.848 573.669 57.048C571.629 58.248 569.433 59.172 567.081 59.82C564.729 60.468 562.293 60.792 559.773 60.792C557.229 60.792 554.781 60.468 552.429 59.82C550.101 59.172 547.917 58.248 545.877 57.048C543.837 55.848 541.977 54.42 540.297 52.764C538.641 51.084 537.213 49.236 536.013 47.22C534.813 45.18 533.889 42.996 533.241 40.668C532.593 38.316 532.269 35.868 532.269 33.324ZM596.208 8.196C596.208 7.692 596.34 7.296 596.604 7.008C596.868 6.696 597.264 6.54 597.792 6.54H621.048C623.52 6.54 625.836 7.008 627.996 7.944C630.156 8.856 632.04 10.104 633.648 11.688C635.256 13.272 636.516 15.132 637.428 17.268C638.364 19.38 638.832 21.636 638.832 24.036C638.832 25.668 638.604 27.228 638.148 28.716C637.716 30.18 637.104 31.56 636.312 32.856C635.52 34.128 634.572 35.292 633.468 36.348C632.388 37.38 631.2 38.268 629.904 39.012L639.156 56.436C639.324 56.772 639.54 57.168 639.804 57.624C640.068 58.08 640.2 58.476 640.2 58.812C640.2 59.196 640.068 59.496 639.804 59.712C639.564 59.904 639.228 60 638.796 60H626.448C626.04 60 625.668 59.88 625.332 59.64C625.02 59.4 624.816 59.076 624.72 58.668L615.972 42.216H610.14V58.452C610.14 59.484 609.588 60 608.484 60H597.792C597.312 60 596.928 59.88 596.64 59.64C596.352 59.376 596.208 58.98 596.208 58.452V8.196ZM624.396 24.18C624.396 23.46 624.264 22.74 624 22.02C623.736 21.3 623.364 20.64 622.884 20.04C622.404 19.44 621.828 18.936 621.156 18.528C620.484 18.12 619.74 17.856 618.924 17.736C618.252 17.688 617.616 17.652 617.016 17.628C616.44 17.58 615.804 17.556 615.108 17.556H610.14V30.768H616.764C617.196 30.768 617.58 30.756 617.916 30.732C618.252 30.708 618.624 30.672 619.032 30.624C619.872 30.528 620.628 30.288 621.3 29.904C621.972 29.496 622.536 29.004 622.992 28.428C623.448 27.828 623.796 27.168 624.036 26.448C624.276 25.704 624.396 24.948 624.396 24.18ZM688.951 26.268L697.663 7.656C697.807 7.368 697.927 7.164 698.023 7.044C698.119 6.9 698.215 6.804 698.311 6.756C698.407 6.684 698.503 6.648 698.599 6.648C698.719 6.624 698.851 6.588 698.995 6.54H712.855C713.023 6.54 713.155 6.6 713.251 6.72C713.371 6.816 713.431 6.936 713.431 7.08C713.431 7.344 713.263 7.644 712.927 7.98L695.863 38.184V58.308C695.863 59.436 695.311 60 694.207 60H683.407C682.927 60 682.555 59.856 682.291 59.568C682.027 59.256 681.895 58.836 681.895 58.308V38.112L664.867 7.98C664.555 7.668 664.399 7.368 664.399 7.08C664.399 6.936 664.447 6.816 664.543 6.72C664.639 6.6 664.771 6.54 664.939 6.54H678.799C678.967 6.588 679.099 6.624 679.195 6.648C679.291 6.648 679.387 6.684 679.483 6.756C679.579 6.804 679.675 6.9 679.771 7.044C679.867 7.164 679.999 7.368 680.167 7.656L688.951 26.268ZM728.274 33.288C728.274 35.28 728.61 37.14 729.282 38.868C729.954 40.596 730.89 42.108 732.09 43.404C733.314 44.676 734.754 45.684 736.41 46.428C738.066 47.148 739.89 47.508 741.882 47.508C743.874 47.508 745.698 47.148 747.354 46.428C749.034 45.684 750.474 44.676 751.674 43.404C752.898 42.108 753.846 40.596 754.518 38.868C755.19 37.14 755.526 35.28 755.526 33.288C755.526 31.32 755.19 29.472 754.518 27.744C753.846 25.992 752.898 24.468 751.674 23.172C750.474 21.876 749.034 20.856 747.354 20.112C745.698 19.368 743.874 18.996 741.882 18.996C739.89 18.996 738.066 19.368 736.41 20.112C734.754 20.856 733.314 21.876 732.09 23.172C730.89 24.468 729.954 25.992 729.282 27.744C728.61 29.472 728.274 31.32 728.274 33.288ZM714.378 33.324C714.378 30.78 714.702 28.344 715.35 26.016C715.998 23.664 716.922 21.468 718.122 19.428C719.322 17.364 720.75 15.492 722.406 13.812C724.086 12.132 725.946 10.704 727.986 9.528C730.026 8.328 732.21 7.404 734.538 6.756C736.89 6.084 739.338 5.748 741.882 5.748C744.402 5.748 746.838 6.084 749.19 6.756C751.542 7.404 753.738 8.328 755.778 9.528C757.818 10.704 759.678 12.132 761.358 13.812C763.038 15.492 764.466 17.364 765.642 19.428C766.842 21.468 767.766 23.664 768.414 26.016C769.086 28.344 769.422 30.78 769.422 33.324C769.422 35.868 769.086 38.316 768.414 40.668C767.766 42.996 766.842 45.18 765.642 47.22C764.466 49.236 763.038 51.084 761.358 52.764C759.678 54.42 757.818 55.848 755.778 57.048C753.738 58.248 751.542 59.172 749.19 59.82C746.838 60.468 744.402 60.792 741.882 60.792C739.338 60.792 736.89 60.468 734.538 59.82C732.21 59.172 730.026 58.248 727.986 57.048C725.946 55.848 724.086 54.42 722.406 52.764C720.75 51.084 719.322 49.236 718.122 47.22C716.922 45.18 715.998 42.996 715.35 40.668C714.702 38.316 714.378 35.868 714.378 33.324ZM792.033 38.652C792.033 40.428 792.273 41.94 792.753 43.188C793.257 44.412 793.905 45.42 794.697 46.212C795.513 46.98 796.449 47.544 797.505 47.904C798.585 48.264 799.701 48.444 800.853 48.444C802.053 48.444 803.181 48.24 804.237 47.832C805.317 47.4 806.253 46.776 807.045 45.96C807.861 45.12 808.497 44.088 808.953 42.864C809.433 41.64 809.673 40.236 809.673 38.652V8.124C809.673 7.692 809.817 7.32 810.105 7.008C810.417 6.696 810.825 6.54 811.329 6.54H821.841C822.393 6.54 822.825 6.708 823.137 7.044C823.449 7.356 823.605 7.716 823.605 8.124V38.472C823.605 42.672 822.981 46.2 821.733 49.056C820.509 51.912 818.853 54.216 816.765 55.968C814.677 57.696 812.253 58.944 809.493 59.712C806.757 60.456 803.877 60.828 800.853 60.828C797.829 60.828 794.937 60.444 792.177 59.676C789.417 58.884 786.993 57.612 784.905 55.86C782.817 54.084 781.149 51.78 779.901 48.948C778.677 46.092 778.065 42.6 778.065 38.472V8.124C778.065 7.716 778.197 7.356 778.461 7.044C778.749 6.708 779.097 6.54 779.505 6.54H790.305C790.665 6.54 791.037 6.696 791.421 7.008C791.829 7.296 792.033 7.668 792.033 8.124V38.652ZM834.145 8.196C834.145 7.692 834.277 7.296 834.541 7.008C834.805 6.696 835.201 6.54 835.729 6.54H858.985C861.457 6.54 863.773 7.008 865.933 7.944C868.093 8.856 869.977 10.104 871.585 11.688C873.193 13.272 874.453 15.132 875.365 17.268C876.301 19.38 876.769 21.636 876.769 24.036C876.769 25.668 876.541 27.228 876.085 28.716C875.653 30.18 875.041 31.56 874.249 32.856C873.457 34.128 872.509 35.292 871.405 36.348C870.325 37.38 869.137 38.268 867.841 39.012L877.093 56.436C877.261 56.772 877.477 57.168 877.741 57.624C878.005 58.08 878.137 58.476 878.137 58.812C878.137 59.196 878.005 59.496 877.741 59.712C877.501 59.904 877.165 60 876.733 60H864.385C863.977 60 863.605 59.88 863.269 59.64C862.957 59.4 862.753 59.076 862.657 58.668L853.909 42.216H848.077V58.452C848.077 59.484 847.525 60 846.421 60H835.729C835.249 60 834.865 59.88 834.577 59.64C834.289 59.376 834.145 58.98 834.145 58.452V8.196ZM862.333 24.18C862.333 23.46 862.201 22.74 861.937 22.02C861.673 21.3 861.301 20.64 860.821 20.04C860.341 19.44 859.765 18.936 859.093 18.528C858.421 18.12 857.677 17.856 856.861 17.736C856.189 17.688 855.553 17.652 854.953 17.628C854.377 17.58 853.741 17.556 853.045 17.556H848.077V30.768H854.701C855.133 30.768 855.517 30.756 855.853 30.732C856.189 30.708 856.561 30.672 856.969 30.624C857.809 30.528 858.565 30.288 859.237 29.904C859.909 29.496 860.473 29.004 860.929 28.428C861.385 27.828 861.733 27.168 861.973 26.448C862.213 25.704 862.333 24.948 862.333 24.18Z" fill="white"/>
<path d="M906.585 8.196C906.585 7.692 906.717 7.296 906.981 7.008C907.245 6.696 907.641 6.54 908.169 6.54H931.173C932.829 6.54 934.389 6.768 935.853 7.224C937.317 7.68 938.661 8.316 939.885 9.132C941.109 9.924 942.213 10.884 943.197 12.012C944.181 13.116 945.009 14.316 945.681 15.612C946.377 16.908 946.905 18.276 947.265 19.716C947.625 21.132 947.805 22.572 947.805 24.036C947.805 26.196 947.409 28.308 946.617 30.372C945.849 32.436 944.745 34.272 943.305 35.88C941.865 37.488 940.137 38.796 938.121 39.804C936.105 40.788 933.873 41.292 931.425 41.316H920.517V58.452C920.517 59.484 919.965 60 918.861 60H908.169C907.689 60 907.305 59.88 907.017 59.64C906.729 59.376 906.585 58.98 906.585 58.452V8.196ZM933.693 23.964C933.693 23.244 933.561 22.524 933.297 21.804C933.057 21.084 932.697 20.448 932.217 19.896C931.737 19.32 931.149 18.852 930.453 18.492C929.781 18.132 929.013 17.952 928.149 17.952H920.517V29.976H928.149C929.013 29.976 929.793 29.808 930.489 29.472C931.185 29.112 931.761 28.656 932.217 28.104C932.697 27.552 933.057 26.916 933.297 26.196C933.561 25.476 933.693 24.732 933.693 23.964ZM965.53 7.944C965.554 7.8 965.626 7.644 965.746 7.476C965.89 7.308 966.058 7.152 966.25 7.008C966.442 6.864 966.646 6.756 966.862 6.684C967.078 6.588 967.282 6.54 967.474 6.54H976.69C977.098 6.54 977.446 6.672 977.734 6.936C978.022 7.176 978.238 7.392 978.382 7.584L979.282 9.636L998.182 58.38C998.374 58.86 998.338 59.256 998.074 59.568C997.81 59.856 997.354 60 996.706 60H986.374C985.822 60 985.39 59.904 985.078 59.712C984.79 59.496 984.562 59.148 984.394 58.668C983.914 57.444 983.446 56.232 982.99 55.032C982.534 53.808 982.078 52.584 981.622 51.36H962.506C962.05 52.584 961.582 53.808 961.102 55.032C960.646 56.232 960.19 57.444 959.734 58.668C959.422 59.556 958.81 60 957.898 60H947.278C946.822 60 946.438 59.88 946.126 59.64C945.838 59.4 945.79 59.04 945.982 58.56L965.53 7.944ZM972.082 23.352C971.626 24.576 971.158 25.896 970.678 27.312C970.222 28.728 969.766 30.156 969.31 31.596C968.854 33.036 968.386 34.464 967.906 35.88C967.45 37.272 966.994 38.58 966.538 39.804H977.59L972.082 23.352ZM1005.43 8.196C1005.43 7.692 1005.56 7.296 1005.82 7.008C1006.09 6.696 1006.48 6.54 1007.01 6.54H1030.27C1032.74 6.54 1035.05 7.008 1037.21 7.944C1039.37 8.856 1041.26 10.104 1042.87 11.688C1044.47 13.272 1045.73 15.132 1046.65 17.268C1047.58 19.38 1048.05 21.636 1048.05 24.036C1048.05 25.668 1047.82 27.228 1047.37 28.716C1046.93 30.18 1046.32 31.56 1045.53 32.856C1044.74 34.128 1043.79 35.292 1042.69 36.348C1041.61 37.38 1040.42 38.268 1039.12 39.012L1048.37 56.436C1048.54 56.772 1048.76 57.168 1049.02 57.624C1049.29 58.08 1049.42 58.476 1049.42 58.812C1049.42 59.196 1049.29 59.496 1049.02 59.712C1048.78 59.904 1048.45 60 1048.01 60H1035.67C1035.26 60 1034.89 59.88 1034.55 59.64C1034.24 59.4 1034.03 59.076 1033.94 58.668L1025.19 42.216H1019.36V58.452C1019.36 59.484 1018.81 60 1017.7 60H1007.01C1006.53 60 1006.15 59.88 1005.86 59.64C1005.57 59.376 1005.43 58.98 1005.43 58.452V8.196ZM1033.61 24.18C1033.61 23.46 1033.48 22.74 1033.22 22.02C1032.95 21.3 1032.58 20.64 1032.1 20.04C1031.62 19.44 1031.05 18.936 1030.37 18.528C1029.7 18.12 1028.96 17.856 1028.14 17.736C1027.47 17.688 1026.83 17.652 1026.23 17.628C1025.66 17.58 1025.02 17.556 1024.33 17.556H1019.36V30.768H1025.98C1026.41 30.768 1026.8 30.756 1027.13 30.732C1027.47 30.708 1027.84 30.672 1028.25 30.624C1029.09 30.528 1029.85 30.288 1030.52 29.904C1031.19 29.496 1031.75 29.004 1032.21 28.428C1032.67 27.828 1033.01 27.168 1033.25 26.448C1033.49 25.704 1033.61 24.948 1033.61 24.18ZM1053.06 8.124C1053.06 7.644 1053.22 7.26 1053.53 6.972C1053.87 6.684 1054.28 6.54 1054.76 6.54H1093.53C1093.96 6.54 1094.34 6.672 1094.68 6.936C1095.02 7.2 1095.21 7.596 1095.26 8.124V17.088C1095.26 17.52 1095.1 17.94 1094.79 18.348C1094.5 18.732 1094.08 18.924 1093.53 18.924H1081.11V58.308C1081.11 58.74 1080.95 59.136 1080.64 59.496C1080.33 59.832 1079.92 60 1079.42 60H1068.83C1068.42 60 1068.04 59.844 1067.68 59.532C1067.32 59.196 1067.14 58.788 1067.14 58.308V18.924H1054.76C1054.28 18.924 1053.87 18.768 1053.53 18.456C1053.22 18.144 1053.06 17.688 1053.06 17.088V8.124ZM1104.08 8.124C1104.08 7.692 1104.21 7.32 1104.47 7.008C1104.74 6.696 1105.13 6.54 1105.66 6.54H1116.24C1116.6 6.54 1116.99 6.684 1117.4 6.972C1117.8 7.26 1118.01 7.644 1118.01 8.124V58.416C1118.01 59.472 1117.42 60 1116.24 60H1105.66C1104.6 60 1104.08 59.472 1104.08 58.416V8.124ZM1170.38 10.428C1170.79 10.668 1171.09 10.98 1171.28 11.364C1171.48 11.748 1171.44 12.204 1171.18 12.732L1165.09 21.372C1164.83 21.78 1164.54 22.02 1164.23 22.092C1163.94 22.14 1163.58 22.032 1163.15 21.768C1161.97 20.88 1160.68 20.196 1159.26 19.716C1157.84 19.236 1156.34 18.996 1154.76 18.996C1152.79 18.996 1150.98 19.368 1149.32 20.112C1147.67 20.856 1146.24 21.876 1145.04 23.172C1143.84 24.468 1142.9 25.98 1142.23 27.708C1141.56 29.436 1141.22 31.284 1141.22 33.252C1141.22 35.22 1141.56 37.068 1142.23 38.796C1142.9 40.5 1143.84 42 1145.04 43.296C1146.24 44.568 1147.67 45.576 1149.32 46.32C1150.98 47.064 1152.79 47.436 1154.76 47.436C1156.34 47.436 1157.86 47.196 1159.3 46.716C1160.74 46.212 1162.04 45.516 1163.22 44.628C1163.65 44.364 1164.01 44.256 1164.3 44.304C1164.59 44.352 1164.88 44.568 1165.16 44.952L1171.32 53.808C1171.58 54.336 1171.62 54.78 1171.43 55.14C1171.24 55.5 1170.94 55.8 1170.53 56.04C1168.27 57.552 1165.84 58.728 1163.22 59.568C1160.63 60.384 1157.89 60.792 1155.01 60.792C1152.47 60.792 1150.02 60.468 1147.67 59.82C1145.34 59.172 1143.16 58.248 1141.12 57.048C1139.08 55.848 1137.22 54.42 1135.54 52.764C1133.88 51.084 1132.45 49.236 1131.25 47.22C1130.05 45.18 1129.13 42.996 1128.48 40.668C1127.83 38.316 1127.51 35.868 1127.51 33.324C1127.51 30.78 1127.83 28.344 1128.48 26.016C1129.13 23.664 1130.05 21.468 1131.25 19.428C1132.45 17.364 1133.88 15.492 1135.54 13.812C1137.22 12.132 1139.08 10.704 1141.12 9.528C1143.16 8.328 1145.34 7.404 1147.67 6.756C1150.02 6.084 1152.47 5.748 1155.01 5.748C1157.89 5.748 1160.6 6.156 1163.15 6.972C1165.72 7.764 1168.13 8.916 1170.38 10.428ZM1180.44 8.124C1180.44 7.692 1180.57 7.32 1180.83 7.008C1181.1 6.696 1181.49 6.54 1182.02 6.54H1192.6C1192.96 6.54 1193.35 6.684 1193.76 6.972C1194.16 7.26 1194.37 7.644 1194.37 8.124V58.416C1194.37 59.472 1193.78 60 1192.6 60H1182.02C1180.96 60 1180.44 59.472 1180.44 58.416V8.124ZM1205.27 8.196C1205.27 7.692 1205.4 7.296 1205.67 7.008C1205.93 6.696 1206.33 6.54 1206.86 6.54H1229.86C1231.52 6.54 1233.08 6.768 1234.54 7.224C1236 7.68 1237.35 8.316 1238.57 9.132C1239.8 9.924 1240.9 10.884 1241.88 12.012C1242.87 13.116 1243.7 14.316 1244.37 15.612C1245.06 16.908 1245.59 18.276 1245.95 19.716C1246.31 21.132 1246.49 22.572 1246.49 24.036C1246.49 26.196 1246.1 28.308 1245.3 30.372C1244.54 32.436 1243.43 34.272 1241.99 35.88C1240.55 37.488 1238.82 38.796 1236.81 39.804C1234.79 40.788 1232.56 41.292 1230.11 41.316H1219.2V58.452C1219.2 59.484 1218.65 60 1217.55 60H1206.86C1206.38 60 1205.99 59.88 1205.7 59.64C1205.42 59.376 1205.27 58.98 1205.27 58.452V8.196ZM1232.38 23.964C1232.38 23.244 1232.25 22.524 1231.98 21.804C1231.74 21.084 1231.38 20.448 1230.9 19.896C1230.42 19.32 1229.84 18.852 1229.14 18.492C1228.47 18.132 1227.7 17.952 1226.84 17.952H1219.2V29.976H1226.84C1227.7 29.976 1228.48 29.808 1229.18 29.472C1229.87 29.112 1230.45 28.656 1230.9 28.104C1231.38 27.552 1231.74 26.916 1231.98 26.196C1232.25 25.476 1232.38 24.732 1232.38 23.964ZM1264.22 7.944C1264.24 7.8 1264.31 7.644 1264.43 7.476C1264.58 7.308 1264.75 7.152 1264.94 7.008C1265.13 6.864 1265.33 6.756 1265.55 6.684C1265.77 6.588 1265.97 6.54 1266.16 6.54H1275.38C1275.79 6.54 1276.13 6.672 1276.42 6.936C1276.71 7.176 1276.93 7.392 1277.07 7.584L1277.97 9.636L1296.87 58.38C1297.06 58.86 1297.03 59.256 1296.76 59.568C1296.5 59.856 1296.04 60 1295.39 60H1285.06C1284.51 60 1284.08 59.904 1283.77 59.712C1283.48 59.496 1283.25 59.148 1283.08 58.668C1282.6 57.444 1282.13 56.232 1281.68 55.032C1281.22 53.808 1280.77 52.584 1280.31 51.36H1261.19C1260.74 52.584 1260.27 53.808 1259.79 55.032C1259.33 56.232 1258.88 57.444 1258.42 58.668C1258.11 59.556 1257.5 60 1256.59 60H1245.97C1245.51 60 1245.13 59.88 1244.81 59.64C1244.53 59.4 1244.48 59.04 1244.67 58.56L1264.22 7.944ZM1270.77 23.352C1270.31 24.576 1269.85 25.896 1269.37 27.312C1268.91 28.728 1268.45 30.156 1268 31.596C1267.54 33.036 1267.07 34.464 1266.59 35.88C1266.14 37.272 1265.68 38.58 1265.23 39.804H1276.28L1270.77 23.352ZM1294.09 8.124C1294.09 7.644 1294.25 7.26 1294.56 6.972C1294.9 6.684 1295.31 6.54 1295.79 6.54H1334.56C1334.99 6.54 1335.37 6.672 1335.71 6.936C1336.05 7.2 1336.24 7.596 1336.29 8.124V17.088C1336.29 17.52 1336.13 17.94 1335.82 18.348C1335.53 18.732 1335.11 18.924 1334.56 18.924H1322.14V58.308C1322.14 58.74 1321.98 59.136 1321.67 59.496C1321.36 59.832 1320.95 60 1320.45 60H1309.86C1309.45 60 1309.07 59.844 1308.71 59.532C1308.35 59.196 1308.17 58.788 1308.17 58.308V18.924H1295.79C1295.31 18.924 1294.9 18.768 1294.56 18.456C1294.25 18.144 1294.09 17.688 1294.09 17.088V8.124ZM1345.11 8.124C1345.11 7.692 1345.24 7.32 1345.5 7.008C1345.77 6.696 1346.16 6.54 1346.69 6.54H1357.28C1357.64 6.54 1358.02 6.684 1358.43 6.972C1358.84 7.26 1359.04 7.644 1359.04 8.124V58.416C1359.04 59.472 1358.45 60 1357.28 60H1346.69C1345.64 60 1345.11 59.472 1345.11 58.416V8.124ZM1382.04 33.288C1382.04 35.28 1382.38 37.14 1383.05 38.868C1383.72 40.596 1384.66 42.108 1385.86 43.404C1387.08 44.676 1388.52 45.684 1390.18 46.428C1391.83 47.148 1393.66 47.508 1395.65 47.508C1397.64 47.508 1399.46 47.148 1401.12 46.428C1402.8 45.684 1404.24 44.676 1405.44 43.404C1406.66 42.108 1407.61 40.596 1408.28 38.868C1408.96 37.14 1409.29 35.28 1409.29 33.288C1409.29 31.32 1408.96 29.472 1408.28 27.744C1407.61 25.992 1406.66 24.468 1405.44 23.172C1404.24 21.876 1402.8 20.856 1401.12 20.112C1399.46 19.368 1397.64 18.996 1395.65 18.996C1393.66 18.996 1391.83 19.368 1390.18 20.112C1388.52 20.856 1387.08 21.876 1385.86 23.172C1384.66 24.468 1383.72 25.992 1383.05 27.744C1382.38 29.472 1382.04 31.32 1382.04 33.288ZM1368.14 33.324C1368.14 30.78 1368.47 28.344 1369.12 26.016C1369.76 23.664 1370.69 21.468 1371.89 19.428C1373.09 17.364 1374.52 15.492 1376.17 13.812C1377.85 12.132 1379.71 10.704 1381.75 9.528C1383.79 8.328 1385.98 7.404 1388.3 6.756C1390.66 6.084 1393.1 5.748 1395.65 5.748C1398.17 5.748 1400.6 6.084 1402.96 6.756C1405.31 7.404 1407.5 8.328 1409.54 9.528C1411.58 10.704 1413.44 12.132 1415.12 13.812C1416.8 15.492 1418.23 17.364 1419.41 19.428C1420.61 21.468 1421.53 23.664 1422.18 26.016C1422.85 28.344 1423.19 30.78 1423.19 33.324C1423.19 35.868 1422.85 38.316 1422.18 40.668C1421.53 42.996 1420.61 45.18 1419.41 47.22C1418.23 49.236 1416.8 51.084 1415.12 52.764C1413.44 54.42 1411.58 55.848 1409.54 57.048C1407.5 58.248 1405.31 59.172 1402.96 59.82C1400.6 60.468 1398.17 60.792 1395.65 60.792C1393.1 60.792 1390.66 60.468 1388.3 59.82C1385.98 59.172 1383.79 58.248 1381.75 57.048C1379.71 55.848 1377.85 54.42 1376.17 52.764C1374.52 51.084 1373.09 49.236 1371.89 47.22C1370.69 45.18 1369.76 42.996 1369.12 40.668C1368.47 38.316 1368.14 35.868 1368.14 33.324ZM1432.15 8.124C1432.15 7.692 1432.29 7.32 1432.55 7.008C1432.81 6.696 1433.21 6.54 1433.74 6.54H1445.51C1445.85 6.54 1446.19 6.624 1446.55 6.792C1446.91 6.96 1447.23 7.248 1447.49 7.656C1450.54 12.576 1453.56 17.424 1456.56 22.2C1459.56 26.976 1462.6 31.824 1465.67 36.744V7.908C1465.77 7.476 1465.96 7.14 1466.25 6.9C1466.53 6.66 1466.87 6.54 1467.25 6.54H1477.51C1478.02 6.54 1478.44 6.684 1478.77 6.972C1479.11 7.236 1479.28 7.62 1479.28 8.124V58.596C1479.28 59.076 1479.13 59.436 1478.85 59.676C1478.56 59.892 1478.16 60 1477.66 60H1466.17C1465.86 60 1465.59 59.892 1465.35 59.676C1465.11 59.46 1464.85 59.172 1464.59 58.812C1461.4 53.532 1458.24 48.312 1455.12 43.152C1452 37.992 1448.83 32.772 1445.62 27.492V58.416C1445.62 58.944 1445.5 59.34 1445.26 59.604C1445.02 59.868 1444.59 60 1443.96 60H1433.74C1433.19 60 1432.78 59.856 1432.51 59.568C1432.27 59.256 1432.15 58.884 1432.15 58.452V8.124ZM1513.65 2.328C1513.65 1.272 1514.23 0.743999 1515.41 0.743999H1524.77C1525.83 0.743999 1526.35 1.272 1526.35 2.328V41.136C1526.35 41.592 1526.22 41.976 1525.96 42.288C1525.69 42.576 1525.3 42.72 1524.77 42.72H1515.41C1515.05 42.72 1514.67 42.576 1514.26 42.288C1513.85 42 1513.65 41.616 1513.65 41.136V2.328ZM1513.65 49.668C1513.65 49.188 1513.78 48.804 1514.04 48.516C1514.33 48.228 1514.73 48.084 1515.23 48.084H1524.73C1525.14 48.084 1525.51 48.228 1525.85 48.516C1526.21 48.804 1526.39 49.188 1526.39 49.668V58.38C1526.39 58.812 1526.25 59.196 1525.96 59.532C1525.67 59.868 1525.26 60.036 1524.73 60.036H1515.23C1514.17 60.036 1513.65 59.484 1513.65 58.38V49.668ZM1538.18 2.328C1538.18 1.272 1538.77 0.743999 1539.95 0.743999H1549.31C1550.36 0.743999 1550.89 1.272 1550.89 2.328V41.136C1550.89 41.592 1550.76 41.976 1550.5 42.288C1550.23 42.576 1549.84 42.72 1549.31 42.72H1539.95C1539.59 42.72 1539.2 42.576 1538.8 42.288C1538.39 42 1538.18 41.616 1538.18 41.136V2.328ZM1538.18 49.668C1538.18 49.188 1538.32 48.804 1538.58 48.516C1538.87 48.228 1539.26 48.084 1539.77 48.084H1549.27C1549.68 48.084 1550.05 48.228 1550.39 48.516C1550.75 48.804 1550.93 49.188 1550.93 49.668V58.38C1550.93 58.812 1550.78 59.196 1550.5 59.532C1550.21 59.868 1549.8 60.036 1549.27 60.036H1539.77C1538.71 60.036 1538.18 59.484 1538.18 58.38V49.668ZM1562.72 2.328C1562.72 1.272 1563.31 0.743999 1564.49 0.743999H1573.85C1574.9 0.743999 1575.43 1.272 1575.43 2.328V41.136C1575.43 41.592 1575.3 41.976 1575.04 42.288C1574.77 42.576 1574.38 42.72 1573.85 42.72H1564.49C1564.13 42.72 1563.74 42.576 1563.34 42.288C1562.93 42 1562.72 41.616 1562.72 41.136V2.328ZM1562.72 49.668C1562.72 49.188 1562.86 48.804 1563.12 48.516C1563.41 48.228 1563.8 48.084 1564.31 48.084H1573.81C1574.22 48.084 1574.59 48.228 1574.93 48.516C1575.29 48.804 1575.47 49.188 1575.47 49.668V58.38C1575.47 58.812 1575.32 59.196 1575.04 59.532C1574.75 59.868 1574.34 60.036 1573.81 60.036H1564.31C1563.25 60.036 1562.72 59.484 1562.72 58.38V49.668Z" fill="url(#paint0_linear)"/>
<defs>
<linearGradient id="paint0_linear" x1="789.5" y1="-13" x2="789.5" y2="89" gradientUnits="userSpaceOnUse">
<stop stop-color="#37D4C9"/>
<stop offset="1" stop-color="#E866E2"/>
</linearGradient>
</defs>
</svg>
